<?xml version="1.0" encoding="utf-8"?>
<!-- Generator: Adobe Illustrator 23.0.0, SVG Export Plug-In . SVG Version: 6.00 Build 0)  -->
<svg version="1.1" id="Layer_1" xmlns="http://www.w3.org/2000/svg" xmlns:xlink="http://www.w3.org/1999/xlink" x="0px" y="0px"
	 viewBox="0 0 1969.4 756.3" style="enable-background:new 0 0 1969.4 756.3;" xml:space="preserve">
<style type="text/css">
	.st0{fill:#ADD8E6;}
	.st1{fill:#E6E6E6;}
	.st2{clip-path:url(#SVGID_2_);}
	.st3{fill:#13375B;}
	.st4{fill:#96D9C9;}
	.st5{fill:#50BFA5;}
	.st6{fill:#F7A491;}
	.st7{fill:#F47458;}
	.st8{fill:#FFFFFF;}
	.st9{clip-path:url(#SVGID_4_);}
	.st10{fill:#F29383;}
	.st11{fill:#C24C32;}
	.st12{clip-path:url(#SVGID_6_);}
	.st13{fill:#BF7154;}
	.st14{fill:#A85D42;}
	.st15{clip-path:url(#SVGID_8_);}
	.st16{fill:#CFE8F0;}
	.st17{fill:#F5866E;}
	.st18{clip-path:url(#SVGID_10_);}
	.st19{fill:#F7CC7F;}
	.st20{clip-path:url(#SVGID_12_);}
	.st21{fill:#466EB6;}
	.st22{fill:#184655;}
	.st23{fill:#F48C7F;}
	.st24{clip-path:url(#SVGID_14_);}
	.st25{fill:#A3573C;}
	.st26{clip-path:url(#SVGID_16_);}
	.st27{clip-path:url(#SVGID_18_);}
	.st28{clip-path:url(#SVGID_20_);}
	.st29{clip-path:url(#SVGID_22_);}
	.st30{fill:#47637F;}
	.st31{clip-path:url(#SVGID_24_);}
	.st32{clip-path:url(#SVGID_26_);}
	.st33{fill:#8CA5D2;}
	.st34{fill:#0E2E35;}
	.st35{clip-path:url(#SVGID_28_);}
	.st36{fill:#FADFAE;}
	.st37{fill:#96482A;}
	.st38{clip-path:url(#SVGID_30_);}
	.st39{fill:#B75742;}
	.st40{fill:#F8A492;}
	.st41{clip-path:url(#SVGID_32_);}
	.st42{opacity:0.5;fill:#F47458;}
	.st43{clip-path:url(#SVGID_34_);}
</style>
<g>
	<g>
		
			<rect x="986.4" y="189.5" transform="matrix(0.1269 -0.9919 0.9919 0.1269 517.6374 1283.468)" class="st0" width="3" height="316.4"/>
		<polygon class="st0" points="833.4,360.9 834.8,358.2 399.7,123.9 573.6,80.7 572.9,77.8 391.4,122.9 		"/>
		
			<rect x="404.2" y="237.1" transform="matrix(0.3182 -0.948 0.948 0.3182 -232.8821 751.0529)" class="st0" width="3" height="600.6"/>
		<polygon class="st0" points="1788.5,647.2 1790.7,645.1 1507.4,355.5 1507.1,355.4 1022.7,146.4 855.6,121.9 855.2,124.9 
			1022.1,149.3 1505.7,358.1 		"/>
		<polygon class="st0" points="885.8,716 907.4,560.7 906.3,560.3 659.9,463.6 439.9,369.8 438.7,372.5 658.7,466.4 904.1,562.6 
			882.8,715.6 		"/>
		<polygon class="st0" points="869.1,717.1 870.5,714.5 673.2,611.4 673.2,451.6 471.3,622 114.4,446.8 480.9,346.7 481.1,346 
			592,95.1 850.3,124.7 825.6,327.5 828.6,327.9 853.6,122.1 852.1,121.9 590.1,91.9 589.7,92.9 478.7,344.1 106,446 471.7,625.6 
			472.5,625 670.2,458.1 670.2,613.2 		"/>
		<polygon class="st0" points="1491.8,375.5 1491.8,372.5 1156.2,365.6 1251.6,82.9 1248.8,82 1152.1,368.5 		"/>
		<polygon class="st0" points="1918.3,557.5 1919.8,554.8 1539.3,346.4 1292.2,123.8 1290.2,126 1537.6,348.8 		"/>
		
			<rect x="1693.5" y="541.7" transform="matrix(0.3411 -0.94 0.94 0.3411 512.9263 2016.7399)" class="st0" width="3" height="201.5"/>
		
			<rect x="1415.5" y="626.9" transform="matrix(0.967 -0.2547 0.2547 0.967 -110.2578 405.1049)" class="st0" width="187.8" height="3"/>
		
			<rect x="1197.3" y="657.4" transform="matrix(0.9976 -6.994766e-02 6.994766e-02 0.9976 -42.8969 92.7586)" class="st0" width="211.4" height="3"/>
		<polygon class="st0" points="1003.4,437.6 1003.9,437.6 1463.7,400.3 1463.5,397.4 1004.2,434.6 863.2,350.9 861.7,353.5 		"/>
		<polygon class="st0" points="1107.2,635.9 1109.8,634.4 1004,438.9 911.9,563.9 914.3,565.7 1003.6,444.5 		"/>
		<polygon class="st0" points="832,341.6 1014.5,155.8 1266.7,83.9 1265.9,81 1012.9,153.1 1012.6,153.4 829.9,339.5 		"/>
		
			<rect x="315.3" y="234.6" transform="matrix(0.1964 -0.9805 0.9805 0.1964 -67.0625 574.1495)" class="st0" width="3" height="186.7"/>
		<polygon class="st0" points="267.1,678.9 268.2,676.1 105.2,615.7 105.2,431.1 237.6,328.3 237.4,327.3 182.1,140 179.2,140.8 
			234.2,327.1 102.2,429.7 102.2,617.8 		"/>
		
			<rect x="81.2" y="506.2" transform="matrix(0.8465 -0.5324 0.5324 0.8465 -228.8475 221.6172)" class="st0" width="377.3" height="3"/>
		
			<rect x="1363.5" y="27.9" transform="matrix(0.2876 -0.9577 0.9577 0.2876 847.0341 1400.536)" class="st0" width="3" height="206"/>
		
			<rect x="1020.7" y="512.1" transform="matrix(3.618297e-02 -0.9993 0.9993 3.618297e-02 603.9991 1653.4153)" class="st0" width="277" height="3"/>
		<polygon class="st0" points="682.5,648.5 802.4,306.4 799.5,305.4 679.7,647.5 		"/>
		
			<rect x="324" y="71.8" transform="matrix(0.6751 -0.7377 0.7377 0.6751 -73.9038 319.2036)" class="st0" width="3" height="343.5"/>
		<g>
			<path class="st0" d="M99.8,445.6v173.8L268.6,682l2.7-7.3l-163.7-60.6v-5.7l2.7,4.3l144.6-90.9l217.3,106.7l1.9-1.6l52.8-44.5
				l155,52.1l-5.1,14.6l7.4,2.6l5.1-14.7l2.3,0.8l2.5-7.4l-2.2-0.7l0.7-2l177.7,92.9l3.6-6.9L695,620.1l42.2-120.3l164.2,64.5
				l-21.3,153.5l7.7,1.1l21.4-153.9l5.7,4.2l88.4-120.1l102.9,190.1l6.9-3.7l-105.9-195.7l151.2-12.3l-8.2,226.7l7.8,0.3l8.2-227.7
				l300.1-24.3l-0.6-7.8L1166.5,419l1.7-46.1l-7.8-0.3l-1.7,47l-154,12.5l-142.3-84.5l-4,6.7L1001,439l-91.6,124.3l0.6-4.1l-2.9-1.1
				l-167.4-65.7l52.8-150.7l41.8,22.5l3.7-6.9l-42.9-23.1l10.2-29.2l-7.4-2.6l-9.8,28L547.8,201l45.6-103.3l254.1,29.1L823,329.6
				l5.2,0.6l-0.1,1l5.8,0.7l-7.4,7.5l5.6,5.5l11.5-11.7l303.1,38.6l1-7.7l-297.3-37.9l165.3-168.3l12.2-3.5l169.2,73l-48.4,143.4
				l345.4,7l0.2-7.8l-334.7-6.8l44.8-132.7l299.9,129.5l25.2,25.8l-108.4,239.7l-95.2-170.8l-158.4,217.5l6.5,4.2l150.8-205.9
				l96.5,173.3l114-252.1l253.1,258.8l5.6-5.4l-255.3-260.9l4.4-9.6l-7.1-3.2l-3.1,6.8l-24.2-24.7l-302-130.3l44.7-132.5l18.2-5.2
				l-2.1-7.5l-13,3.7l0.1-0.3l-7.4-2.5l-1.8,5.4l-217,61.9l-5-2.2l-169.8-24.8l-0.1,0.5l-1.2-0.1L588.7,89.3l-1.2,2.6L541,197.3
				l-134.7-72.5l170.3-42.4l-1.9-7.6l-189.8,47.2l153,82.4L477,342.1l-29.2,8l-248.1-227l-5.3,5.8l244.5,223.7l-314.8,86.1l-4-1.3
				l-0.9,2.7l-11.6,3.2v-10.8l132.9-103.2l-0.8-2.5l-3.2-10.7l173.4,34.7l1.5-7.6L234,307.5L183.7,137l-7.5,2.2l49.1,166.5l-1.7-0.3
				l-1.5,7.6l5.8,1.2l3.6,12.1L99.8,428.5v16.7l-0.5,0.1L99.8,445.6z M1039.7,151.1l202.7-57.8l-42.8,126.8L1039.7,151.1z
				 M855.4,127.3l158.1,23.1l-1.8,0.5l-0.7,0.7L840.7,325l-9.2-1.2L855.4,127.3z M123.8,446.7l153.5,51.6l-23,14.5l-133.2-65.4
				L123.8,446.7z M732.5,489.5l-56.9-22.3v-20.7l-16.7,14.1l-220.3-93.9l-3.1,7.2l216.7,92.4L525.1,573.5l-229.7-77.2l138.3-87
				l-4.2-6.6L285.9,493l-148.6-50l308.3-84.3l5.7,5.2l5.3-5.8l-2-1.9l28.1-7.7l0.7-1.7l61.3-138.8l240.9,129.7L732.5,489.5z
				 M667.8,463.2v0.9l-0.7-0.3L667.8,463.2z M688,616.4l-12.4-6.5V475.5l54.3,21.3L688,616.4z M533.8,576.4l126.6-106.8l7.5,2.9
				v142.1l17.6,9.2l-1.1,3.2L533.8,576.4z M262.6,516.9l24.3-15.3l231.2,77.8l-47.2,39.8L262.6,516.9z M107.6,449.5l139,68.3
				l-139,87.4V449.5z"/>
			<polygon class="st0" points="1910.3,555.8 1558.1,362.8 1524.6,363.4 1524.5,355.6 1544.3,355.2 1536.2,350.8 1527.1,342.6 
				1520.7,360.1 1513.4,357.4 1520.9,337 1286.8,126.2 1292.1,120.4 1523.8,329.2 1612,91.2 1619.3,93.9 1530,334.8 1540.7,344.4 
				1560,355 1859.1,370.7 1859.3,378.5 1573.8,362.5 1908.4,545.9 1850.4,375.3 1858.1,373.8 1917.3,550.7 1923,553.9 1919.3,560.7 
				1919.2,560.7 1923.4,581.8 1815.7,651.1 1811.4,644.6 1914.7,578.1 			"/>
			<polygon class="st0" points="1602.9,604.9 1793.3,674 1790.6,681.4 1596.7,611 1597.3,609.3 1417.3,656.7 1415.3,649.1 
				1601.6,600.1 			"/>
			
				<rect x="1194.9" y="655" transform="matrix(0.9976 -6.994639e-02 6.994639e-02 0.9976 -42.8962 92.7569)" class="st0" width="216.2" height="7.8"/>
			
				<rect x="1361.1" y="25.5" transform="matrix(0.2872 -0.9579 0.9579 0.2872 847.532 1400.7389)" class="st0" width="7.8" height="210.7"/>
		</g>
		
			<rect x="1426.8" y="224.2" transform="matrix(0.3474 -0.9377 0.9377 0.3474 810.5864 1616.0385)" class="st0" width="279.1" height="3"/>
	</g>
	<g>
		
			<ellipse transform="matrix(0.5257 -0.8506 0.8506 0.5257 191.2589 542.2336)" class="st1" cx="581.9" cy="99.6" rx="77.4" ry="77.4"/>
	</g>
	<g>
		
			<ellipse transform="matrix(0.1602 -0.9871 0.9871 0.1602 -425.4311 832.559)" class="st1" cx="276.6" cy="666.3" rx="78.4" ry="78.4"/>
	</g>
	<g>
		<path class="st1" d="M1211.6,367.1c0,31.7-25.7,57.4-57.4,57.4c-31.7,0-57.4-25.7-57.4-57.4c0-31.7,25.7-57.4,57.4-57.4
			C1185.9,309.7,1211.6,335.4,1211.6,367.1z"/>
	</g>
	<g>
		
			<ellipse transform="matrix(0.9806 -0.1961 0.1961 0.9806 -40.8424 306.4341)" class="st1" cx="1526.9" cy="359.5" rx="107.4" ry="107.4"/>
	</g>
	<g>
		
			<ellipse transform="matrix(0.9436 -0.331 0.331 0.9436 8.6968 346.8001)" class="st1" cx="1022.5" cy="147.9" rx="50.3" ry="50.3"/>
	</g>
	<g>
		
			<ellipse transform="matrix(9.853861e-02 -0.9951 0.9951 9.853861e-02 1329.3906 1703.5854)" class="st1" cx="1605" cy="118" rx="73.1" ry="73.1"/>
	</g>
	<g>
		<circle class="st1" cx="207" cy="151.8" r="64.9"/>
	</g>
	<g>
		
			<ellipse transform="matrix(0.1299 -0.9915 0.9915 0.1299 397.0422 1124.3995)" class="st1" cx="839.2" cy="336" rx="95.2" ry="95.2"/>
	</g>
	<g>
		
			<ellipse transform="matrix(0.2298 -0.9732 0.9732 0.2298 -344.5958 436.7902)" class="st1" cx="103.7" cy="436.1" rx="88.9" ry="88.9"/>
	</g>
	<g>
		<path class="st1" d="M1916.6,379.1c0,34.8-28.2,63-63,63c-34.8,0-63-28.2-63-63c0-34.8,28.2-63,63-63
			C1888.4,316.1,1916.6,344.3,1916.6,379.1z"/>
	</g>
	<g>
		
			<ellipse transform="matrix(0.2298 -0.9732 0.9732 0.2298 153.6594 1323.7383)" class="st1" cx="913.1" cy="564.8" rx="43.3" ry="43.3"/>
	</g>
	<g>
		<path class="st1" d="M1476,634.7c0,30.3-24.5,54.8-54.8,54.8c-30.3,0-54.8-24.5-54.8-54.8c0-30.3,24.5-54.8,54.8-54.8
			C1451.5,579.9,1476,604.5,1476,634.7z"/>
	</g>
	<g>
		
			<ellipse transform="matrix(0.2204 -0.9754 0.9754 0.2204 895.0323 1308.8921)" class="st1" cx="1266.3" cy="94.5" rx="87.9" ry="87.9"/>
	</g>
	<g>
		<defs>
			
				<ellipse id="SVGID_1_" transform="matrix(2.628843e-02 -0.9997 0.9997 2.628843e-02 1141.8948 1354.6641)" cx="1266.3" cy="91.2" rx="84.5" ry="84.5"/>
		</defs>
		<clipPath id="SVGID_2_">
			<use xlink:href="#SVGID_1_"  style="overflow:visible;"/>
		</clipPath>
		<g class="st2">
			<path class="st3" d="M1306.8,79.1c0.5-11.8-1.2-23.4-6.5-34.4c-4.5-9.4-15.8-14.8-26-14.8c-32.5,0-36.7,42.9-57.4,59.5
				c-6.3,5.1-13.4,9.2-19.4,14.7c-22.1,20.2-12.1,57.5,8.2,75.2c14.1,12.3,36.2,19.2,53.6,9.7c9.1-5,15.9-13.3,20.8-22.5
				c7-12.9,11.4-27.9,16.4-41.7C1301.7,110.1,1306.1,94.8,1306.8,79.1z"/>
			<path class="st4" d="M1294.6,187.7c0,0-24.3-24.9-30.5-35.7c-6.3-10.8,4.3-3.8,15-6.6c4.1-1.1,3-24.9,10.7-17.2
				c12.6,12.7,28.5,34.9,28.5,34.9L1294.6,187.7z"/>
			<path class="st5" d="M1260.1,117.3c0,0-21.8-4.3-31.8,4c-10,8.3,2.1,82.2,2.1,94.5c0,12.3-6.8,44.3-6.8,44.3s66.1,14.2,76.6-4.2
				c0,0,3-70.1,2.5-78.9c-0.4-8.8-10.2-44.8-13-48.7C1287,124.3,1260.1,117.3,1260.1,117.3z"/>
			<path class="st6" d="M1259.9,83.5c0,0-0.1,0.7-0.3,1.8c-1,5.3-4.8,23-7.4,27.8c-3.1,5.9,10.6,24.6,23.9,22.3
				c3.9-0.7-3.3-17.2-3-18.9c0.7-3.3,1.6-7.9,2.5-12.6c0.5-2.6,1.1-5.3,1.6-7.8c1.4-7.2,2.6-13,2.6-13L1259.9,83.5z"/>
			<path class="st7" d="M1259.6,85.3c0.2-1.1,0.3-1.8,0.3-1.8l19.8-0.5c0,0-1.2,5.9-2.6,13c-0.5,2.5-1,5.2-1.5,7.8
				c-3.1-0.5-6.3-1.9-9.5-4.7c-3.5-3.1-5.8-6.7-7.2-10.6C1259.2,87.2,1259.4,86.1,1259.6,85.3z"/>
			<path class="st6" d="M1273.3,38.5c0,0-9.3-1.1-15.2,6.5c-5.9,7.6-12.2,31,2.4,43.7c14.6,12.7,28.9-1.7,31.1-16.9
				C1293.6,56.5,1294.5,38,1273.3,38.5z"/>
			<path class="st3" d="M1287.8,34.7c0,0-18.2,26.1-35.6,22.6l-0.5-11.1l1.6-4.2l8.8-5.6l14.3-3.3L1287.8,34.7z"/>
			<path class="st6" d="M1295.8,71.5c-1.7,3.4-4.7,5.2-6.5,4.2c-1.9-1.1-2-4.7-0.2-8c1.7-3.4,4.7-5.2,6.5-4.2
				C1297.5,64.6,1297.6,68.2,1295.8,71.5z"/>
			<path class="st6" d="M1255.2,64.9c0.7,4-0.7,7.6-3.3,8.1c-2.5,0.5-5.2-2.3-5.9-6.2c-0.7-4,0.7-7.6,3.3-8.1
				C1251.9,58.2,1254.5,60.9,1255.2,64.9z"/>
			<path class="st8" d="M1278.9,80.3l-13.7-0.7c0,0,0,5.2,6.1,5.7C1278.6,85.9,1278.9,80.3,1278.9,80.3z"/>
			<path class="st8" d="M1278.9,80.3l-13.7-0.7c0,0,0,5.2,6.1,5.7C1278.6,85.9,1278.9,80.3,1278.9,80.3z"/>
			<path class="st4" d="M1236.5,186.8c0,0-14.3-31.7-16.5-44c-2.2-12.3,8.4-27.8,19.4-26.8c11.1,1,27.6,55.8,27.6,55.8L1236.5,186.8
				z"/>
		</g>
	</g>
	<g>
		
			<ellipse transform="matrix(0.2298 -0.9732 0.9732 0.2298 -1.5652 716.9234)" class="st1" cx="452.2" cy="359.5" rx="100.2" ry="100.2"/>
	</g>
	<g>
		<path class="st1" d="M733.9,619c0,30-24.3,54.2-54.2,54.2c-30,0-54.2-24.3-54.2-54.2c0-30,24.3-54.2,54.2-54.2
			C709.6,564.8,733.9,589.1,733.9,619z"/>
	</g>
	<g>
		
			<ellipse transform="matrix(0.9988 -4.981331e-02 4.981331e-02 0.9988 -30.6058 58.2916)" class="st1" cx="1154.2" cy="643.2" rx="105.8" ry="105.8"/>
	</g>
	<g>
		<path class="st1" d="M1859.5,637.8c0,38.1-30.9,69-69,69s-69-30.9-69-69c0-38.1,30.9-69,69-69S1859.5,599.7,1859.5,637.8z"/>
	</g>
	<path class="st1" d="M1296.5,466.9c0,15.9,12.9,28.9,28.9,28.9c15.9,0,28.9-12.9,28.9-28.9c0-15.9-12.9-28.9-28.9-28.9
		C1309.4,438,1296.5,450.9,1296.5,466.9z"/>
	<path class="st1" d="M1446.4,160.5c0,9.5,7.7,17.2,17.2,17.2c9.5,0,17.2-7.7,17.2-17.2c0-9.5-7.7-17.2-17.2-17.2
		C1454.1,143.3,1446.4,151,1446.4,160.5z"/>
	
		<ellipse transform="matrix(0.3827 -0.9239 0.9239 0.3827 426.0522 1853.866)" class="st1" cx="1600.3" cy="608.1" rx="24.8" ry="24.8"/>
	<path class="st1" d="M830.9,123.4c0,13.5,11,24.5,24.5,24.5c13.5,0,24.5-11,24.5-24.5c0-13.5-10.9-24.5-24.5-24.5
		C841.9,99,830.9,109.9,830.9,123.4z"/>
	
		<ellipse transform="matrix(0.7071 -0.7071 0.7071 0.7071 28.5882 315.8359)" class="st1" cx="395.5" cy="123.4" rx="23.7" ry="23.7"/>
	<path class="st1" d="M645.2,465c0,15.9,12.9,28.9,28.9,28.9c15.9,0,28.9-12.9,28.9-28.9c0-15.9-12.9-28.9-28.9-28.9
		C658.1,436.1,645.2,449,645.2,465z"/>
	<path class="st1" d="M855.4,715.8c0,15.9,12.9,28.9,28.9,28.9c15.9,0,28.9-12.9,28.9-28.9c0-15.9-12.9-28.9-28.9-28.9
		C868.3,686.9,855.4,699.9,855.4,715.8z"/>
	<path class="st1" d="M985.1,436.1c0,10.3,8.4,18.7,18.7,18.7c10.3,0,18.7-8.4,18.7-18.7c0-10.3-8.4-18.7-18.7-18.7
		C993.4,417.4,985.1,425.8,985.1,436.1z"/>
	<path class="st1" d="M452.2,623.8c0,10.7,8.7,19.4,19.4,19.4c10.7,0,19.4-8.7,19.4-19.4c0-10.7-8.7-19.4-19.4-19.4
		C460.8,604.5,452.2,613.1,452.2,623.8z"/>
	
		<ellipse transform="matrix(0.9975 -7.088884e-02 7.088884e-02 0.9975 -43.4622 8.8998)" class="st1" cx="103.7" cy="616.8" rx="28.9" ry="28.9"/>
	<path class="st1" d="M207,309.7c0,15.9,12.9,28.9,28.9,28.9c15.9,0,28.9-12.9,28.9-28.9c0-15.9-12.9-28.9-28.9-28.9
		C220,280.8,207,293.7,207,309.7z"/>
	<path class="st1" d="M1890.2,564.8c0,15.9,12.9,28.9,28.9,28.9s28.9-12.9,28.9-28.9c0-15.9-12.9-28.9-28.9-28.9
		S1890.2,548.8,1890.2,564.8z"/>
	<g>
		<defs>
			
				<ellipse id="SVGID_3_" transform="matrix(0.1602 -0.9871 0.9871 0.1602 385.9178 1111.5441)" cx="846.2" cy="329" rx="88.3" ry="88.3"/>
		</defs>
		<clipPath id="SVGID_4_">
			<use xlink:href="#SVGID_3_"  style="overflow:visible;"/>
		</clipPath>
		<g class="st9">
			<path class="st3" d="M815.6,274.4c24.2-12.8,52.3-1.3,54.5,32.4c2.1,33.7-21.7,45.6-44.5,43.4C802.7,348,780.2,288.6,815.6,274.4
				z"/>
			<path class="st3" d="M830.2,364c0,13.3,10.8,24,24,24c13.3,0,24-10.8,24-24c0-13.3-10.8-24-24-24C841,340,830.2,350.8,830.2,364z
				"/>
			<path class="st10" d="M802.6,377.8l-82.1-2.8c0,0-64-20-66-20.6c-2-0.6-11.8-26.2-14.4-24c-2.6,2.2,5.7,12.8,2.3,14.7
				c-3.3,1.9-34.6-8.3-34.5-5.8c0.1,4.7,18.9,7,18.5,9.3c-0.4,2.2-19.4-4.3-21.3-0.8c-1.9,3.5,18.6,4.4,19.1,6.2
				c0.6,1.8-19.4,1.8-17.9,5.6c0.8,2,17.7-0.5,17.3,2.1c-0.5,2.5-13.1,6.5-12,8.8c1.1,2.3,10.2-4.8,17.1-3.9
				c6.9,0.9,12.3-2,22.8,2.8c10.5,4.8,45.3,26.2,68.8,28.6c23.5,2.4,75.4,7.9,75.4,7.9L802.6,377.8z"/>
			<path class="st11" d="M818.3,374.1c45,2.1,5.4,39.8,5.4,39.8l-66.4-9.4c-2-13.3,1.4-29.1,1.6-32.6
				C772.6,371,807.2,373.6,818.3,374.1z"/>
			<path class="st7" d="M853,366.9c0,0,19.3-0.3,29.6,10.9c10.3,11.2-16.1,98.7-18,113c-1.9,14.3,9.5,52.3,9.5,52.3
				s-61,12.3-78.4,0.7c0,0-1.9-102.7,0-112.9c1.9-10.2,17.4-51.7,21.2-55.8C820.6,371,853,366.9,853,366.9z"/>
			<path class="st6" d="M844.4,332.1c0,0,0.1,0.8,0.4,2.1c1.2,6.3,5.6,27,8.6,32.7c3.6,6.9-12.5,28.9-28,26.2
				c-4.6-0.8,3.9-20.2,3.5-22.3c-0.8-3.9-1.8-9.3-2.9-14.8c-0.6-3.1-1.2-6.3-1.8-9.2c-1.7-8.4-3-15.3-3-15.3L844.4,332.1z"/>
			<path class="st7" d="M844.8,334.2c-0.2-1.3-0.4-2.1-0.4-2.1l-23.2-0.6c0,0,1.4,6.9,3,15.3c0.6,2.9,1.2,6.1,1.8,9.2
				c3.6-0.5,7.3-2.3,11.1-5.6c4.1-3.6,6.8-7.9,8.4-12.5C845.2,336.4,845,335.2,844.8,334.2z"/>
			<path class="st6" d="M828.8,279.2c0,0,10.9-1.3,17.8,7.6c6.9,8.9,14.3,36.4-2.8,51.4c-17,15-33.9-2-36.4-19.9
				C804.9,300.3,803.9,278.6,828.8,279.2z"/>
			<path class="st6" d="M802.4,318c2,4,5.4,6.2,7.6,4.9c2.2-1.3,2.3-5.5,0.3-9.5c-2-4-5.4-6.2-7.6-4.9
				C800.5,309.8,800.3,314,802.4,318z"/>
			<path class="st3" d="M827.5,276.3c0,0,14.6,26.2,25.1,27.4c10.5,1.2,11.8,15.1,11.8,15.1s-3.7-32-14.1-38.2
				C840,274.4,827.5,276.3,827.5,276.3z"/>
			<path class="st6" d="M849.9,310.2c-0.9,4.6,0.9,8.9,3.8,9.5c3,0.6,6.1-2.7,6.9-7.3c0.9-4.6-0.9-8.9-3.8-9.5
				C853.8,302.3,850.7,305.6,849.9,310.2z"/>
			<path class="st11" d="M827.1,455.6c0,0,47.2-24.2,57.6-37.1c10.4-12.9,8.1-37.6-5.3-43.5c-13.4-5.9-68,48.7-68,48.7L827.1,455.6z
				"/>
		</g>
	</g>
	<g>
		<defs>
			<path id="SVGID_5_" d="M974.9,145.8c0,26.3,21.3,47.6,47.6,47.6c26.3,0,47.6-21.3,47.6-47.6c0-26.3-21.3-47.6-47.6-47.6
				C996.2,98.2,974.9,119.6,974.9,145.8z"/>
		</defs>
		<clipPath id="SVGID_6_">
			<use xlink:href="#SVGID_5_"  style="overflow:visible;"/>
		</clipPath>
		<g class="st12">
			<path class="st3" d="M1039,116.4c-13-6.9-28.2-0.7-29.4,17.5c-1.1,18.2,11.7,24.6,24,23.4C1046,156.1,1058.1,124.1,1039,116.4z"
				/>
			<path class="st3" d="M1017.5,146.2c0,3.4-2.8,6.2-6.2,6.2s-6.2-2.8-6.2-6.2c0-3.4,2.8-6.2,6.2-6.2S1017.5,142.8,1017.5,146.2z"/>
			<path class="st3" d="M1023.7,152c0,3.4-2.8,6.2-6.2,6.2c-3.4,0-6.2-2.8-6.2-6.2c0-3.4,2.8-6.2,6.2-6.2
				C1020.9,145.8,1023.7,148.6,1023.7,152z"/>
			<path class="st3" d="M1031.8,156.5c0,3.4-2.8,6.2-6.2,6.2c-3.4,0-6.2-2.8-6.2-6.2c0-3.4,2.8-6.2,6.2-6.2
				C1029,150.3,1031.8,153.1,1031.8,156.5z"/>
			<path class="st3" d="M1014.8,136c0,3.4-2.8,6.2-6.2,6.2s-6.2-2.8-6.2-6.2c0-3.4,2.8-6.2,6.2-6.2S1014.8,132.5,1014.8,136z"/>
			<path class="st3" d="M1016.9,125.3c0,3.4-2.8,6.2-6.2,6.2c-3.4,0-6.2-2.8-6.2-6.2c0-3.4,2.8-6.2,6.2-6.2
				C1014.1,119.1,1016.9,121.9,1016.9,125.3z"/>
			<path class="st3" d="M1024.1,118.5c0,3.4-2.8,6.2-6.2,6.2c-3.4,0-6.2-2.8-6.2-6.2c0-3.4,2.8-6.2,6.2-6.2
				C1021.3,112.3,1024.1,115.1,1024.1,118.5z"/>
			<path class="st3" d="M1033.6,115.7c0,3.4-2.8,6.2-6.2,6.2c-3.4,0-6.2-2.8-6.2-6.2c0-3.4,2.8-6.2,6.2-6.2
				C1030.8,109.5,1033.6,112.3,1033.6,115.7z"/>
			<path class="st3" d="M1043.4,116.5c0,3.4-2.8,6.2-6.2,6.2c-3.4,0-6.2-2.8-6.2-6.2c0-3.4,2.8-6.2,6.2-6.2
				C1040.7,110.3,1043.4,113.1,1043.4,116.5z"/>
			<path class="st3" d="M1050.8,124.2c0,3.4-2.8,6.2-6.2,6.2c-3.4,0-6.2-2.8-6.2-6.2c0-3.4,2.8-6.2,6.2-6.2
				C1048,118,1050.8,120.8,1050.8,124.2z"/>
			<path class="st3" d="M1050.6,144c0,3.4-2.8,6.2-6.2,6.2s-6.2-2.8-6.2-6.2c0-3.4,2.8-6.2,6.2-6.2S1050.6,140.6,1050.6,144z"/>
			<path class="st3" d="M1044.4,153.3c0,3.4-2.8,6.2-6.2,6.2s-6.2-2.8-6.2-6.2c0-3.4,2.8-6.2,6.2-6.2S1044.4,149.9,1044.4,153.3z"/>
			<path class="st3" d="M1053.1,133.5c0,3.4-2.8,6.2-6.2,6.2c-3.4,0-6.2-2.8-6.2-6.2c0-3.4,2.8-6.2,6.2-6.2
				C1050.3,127.3,1053.1,130.1,1053.1,133.5z"/>
			<path class="st3" d="M1035.9,155.6c0,3.4-2.8,6.2-6.2,6.2c-3.4,0-6.2-2.8-6.2-6.2c0-3.4,2.8-6.2,6.2-6.2
				C1033.1,149.4,1035.9,152.2,1035.9,155.6z"/>
			<path class="st10" d="M1046,172.2l44.3-1.5c0,0,34.5-10.8,35.6-11.1c1.1-0.3,6.4-14.1,7.8-12.9c1.4,1.2-3.1,6.9-1.3,8
				c1.8,1,18.7-4.5,18.6-3.1c-0.1,2.6-10.2,3.8-10,5c0.2,1.2,10.5-2.3,11.5-0.4c1,1.9-10,2.4-10.3,3.3c-0.3,1,10.4,1,9.7,3
				c-0.4,1.1-9.6-0.3-9.3,1.1c0.2,1.4,7.1,3.5,6.5,4.7c-0.6,1.2-5.5-2.6-9.2-2.1c-3.7,0.5-6.6-1.1-12.3,1.5
				c-5.6,2.6-24.5,14.1-37.1,15.4c-12.7,1.3-40.7,4.3-40.7,4.3L1046,172.2z"/>
			<path class="st11" d="M1037.6,170.2c-24.3,1.1-2.9,21.4-2.9,21.4l35.9-5.1c1.1-7.2-0.8-15.7-0.9-17.6
				C1062.2,168.5,1043.6,169.9,1037.6,170.2z"/>
			<path class="st7" d="M1018.8,166.3c0,0-10.4-0.2-16,5.9c-5.5,6.1,8.7,53.2,9.7,61c1,7.7-5.1,28.2-5.1,28.2s32.9,6.6,42.3,0.4
				c0,0,1-55.4,0-60.9c-1-5.5-9.4-27.9-11.4-30.1C1036.3,168.5,1018.8,166.3,1018.8,166.3z"/>
			<path class="st13" d="M1023.5,147.5c0,0-0.1,0.4-0.2,1.1c-0.6,3.4-3,14.6-4.7,17.7c-2,3.7,6.7,15.6,15.1,14.1
				c2.5-0.4-2.1-10.9-1.9-12c0.4-2.1,1-5,1.6-8c0.3-1.7,0.7-3.4,1-5c0.9-4.5,1.6-8.2,1.6-8.2L1023.5,147.5z"/>
			<path class="st14" d="M1023.3,148.7c0.1-0.7,0.2-1.1,0.2-1.1l12.5-0.3c0,0-0.7,3.7-1.6,8.2c-0.3,1.6-0.6,3.3-1,4.9
				c-1.9-0.3-4-1.2-6-3c-2.2-1.9-3.7-4.3-4.5-6.8C1023.1,149.9,1023.2,149.2,1023.3,148.7z"/>
			<path class="st13" d="M1031.9,119c0,0-5.9-0.7-9.6,4.1c-3.7,4.8-7.7,19.6,1.5,27.7c9.2,8.1,18.3-1.1,19.6-10.7
				C1044.8,130.4,1045.3,118.6,1031.9,119z"/>
			<path class="st13" d="M1046.2,139.9c-1.1,2.1-2.9,3.3-4.1,2.6c-1.2-0.7-1.2-3-0.1-5.1c1.1-2.1,2.9-3.3,4.1-2.6
				C1047.2,135.5,1047.3,137.8,1046.2,139.9z"/>
			<path class="st3" d="M1032.6,117.4c0,0-7.9,14.1-13.5,14.8c-5.6,0.7-6.4,8.2-6.4,8.2s2-17.3,7.6-20.6
				C1025.9,116.4,1032.6,117.4,1032.6,117.4z"/>
			<path class="st13" d="M1020.5,135.7c0.5,2.5-0.5,4.8-2.1,5.1c-1.6,0.3-3.3-1.4-3.7-3.9c-0.5-2.5,0.5-4.8,2.1-5.1
				C1018.4,131.5,1020.1,133.2,1020.5,135.7z"/>
			<path class="st11" d="M1032.8,214.1c0,0-25.5-13.1-31.1-20c-5.6-7-4.4-20.3,2.9-23.5c7.2-3.2,36.7,26.3,36.7,26.3L1032.8,214.1z"
				/>
		</g>
	</g>
	<g>
		<defs>
			
				<ellipse id="SVGID_7_" transform="matrix(0.9436 -0.331 0.331 0.9436 -32.9026 525.8209)" cx="1527.3" cy="359.5" rx="95.2" ry="95.2"/>
		</defs>
		<clipPath id="SVGID_8_">
			<use xlink:href="#SVGID_7_"  style="overflow:visible;"/>
		</clipPath>
		<g class="st15">
			<path class="st7" d="M1560.3,300.6c-20.3-10.7-50.8-5.1-58.8,35c-4.7,23.9-16.5,49-16.5,49c30.8,13.7,63.9,14.3,90.4,9.7
				C1575.5,394.3,1598.5,315.9,1560.3,300.6z"/>
			<path class="st10" d="M1574.3,412.2l88.6-3.1c0,0,69.1-21.6,71.2-22.2c2.1-0.6,12.7-28.2,15.5-25.9c2.8,2.4-6.1,13.8-2.5,15.9
				c3.6,2.1,37.3-9,37.3-6.2c-0.1,5.1-20.4,7.6-20,10c0.4,2.4,20.9-4.6,22.9-0.8c2,3.8-20,4.7-20.6,6.7c-0.6,1.9,20.9,2,19.3,6
				c-0.9,2.2-19.1-0.5-18.6,2.2c0.5,2.7,14.2,7,12.9,9.5c-1.2,2.4-11-5.2-18.4-4.2c-7.4,1-13.3-2.2-24.6,3
				c-11.3,5.2-48.9,28.3-74.3,30.9c-25.3,2.6-81.3,8.6-81.3,8.6L1574.3,412.2z"/>
			<path class="st16" d="M1557.4,408.2c-48.5,2.3-5.9,42.9-5.9,42.9l71.7-10.2c2.2-14.3-1.5-31.4-1.7-35.2
				C1606.7,404.8,1569.4,407.6,1557.4,408.2z"/>
			<path class="st0" d="M1519.9,400.4c0,0-20.9-0.4-31.9,11.7c-11.1,12.1,17.4,106.5,19.4,121.9c2,15.4-10.3,56.4-10.3,56.4
				s65.8,13.3,84.6,0.8c0,0,2-110.8,0-121.9c-2-11-18.8-55.8-22.8-60.2C1554.9,404.8,1519.9,400.4,1519.9,400.4z"/>
			<path class="st6" d="M1529.2,362.9c0,0-0.1,0.8-0.4,2.2c-1.2,6.8-6.1,29.2-9.3,35.3c-3.9,7.4,13.4,31.2,30.2,28.3
				c5-0.9-4.2-21.8-3.8-24c0.8-4.2,2-10,3.2-16c0.7-3.4,1.3-6.7,2-9.9c1.8-9.1,3.2-16.5,3.2-16.5L1529.2,362.9z"/>
			<path class="st17" d="M1528.8,365.1c0.3-1.4,0.4-2.2,0.4-2.2l25.1-0.6c0,0-1.5,7.4-3.2,16.5c-0.6,3.2-1.3,6.6-2,9.9
				c-3.9-0.6-7.9-2.5-12-6c-4.4-3.9-7.3-8.5-9.1-13.5C1528.4,367.5,1528.6,366.2,1528.8,365.1z"/>
			<path class="st6" d="M1546.1,305.8c0,0-11.8-1.4-19.2,8.2c-7.4,9.6-15.4,39.3,3,55.4c18.4,16.1,36.6-2.1,39.3-21.5
				C1571.9,328.6,1572.9,305.1,1546.1,305.8z"/>
			<path class="st6" d="M1574.6,347.7c-2.2,4.3-5.9,6.6-8.2,5.3c-2.4-1.4-2.5-5.9-0.3-10.2c2.2-4.3,5.9-6.6,8.2-5.3
				C1576.7,338.8,1576.8,343.4,1574.6,347.7z"/>
			<path class="st7" d="M1547.4,302.6c0,0-15.8,28.2-27.1,29.5c-11.3,1.3-12.8,16.3-12.8,16.3s4-34.6,15.2-41.2
				C1534,300.6,1547.4,302.6,1547.4,302.6z"/>
			<path class="st6" d="M1523.3,339.3c0.9,5-0.9,9.6-4.1,10.3c-3.2,0.7-6.5-2.9-7.4-7.9c-0.9-5,0.9-9.6,4.1-10.3
				C1519.1,330.7,1522.4,334.2,1523.3,339.3z"/>
			<path class="st16" d="M1547.9,496.1c0,0-51-26.1-62.2-40c-11.2-13.9-8.8-40.6,5.7-47c14.5-6.4,73.4,52.6,73.4,52.6L1547.9,496.1z
				"/>
		</g>
	</g>
	<g>
		<defs>
			<circle id="SVGID_9_" cx="1790.2" cy="635.9" r="66"/>
		</defs>
		<clipPath id="SVGID_10_">
			<use xlink:href="#SVGID_9_"  style="overflow:visible;"/>
		</clipPath>
		<g class="st18">
			<path class="st19" d="M1767.3,595c18.1-9.6,39.2-1,40.7,24.2c1.6,25.2-16.2,34.1-33.3,32.5C1757.7,650.1,1740.8,605.6,1767.3,595
				z"/>
			<path class="st19" d="M1778.3,662.1c0,9.9,8.1,18,18,18c9.9,0,18-8.1,18-18c0-9.9-8.1-18-18-18
				C1786.3,644.1,1778.3,652.2,1778.3,662.1z"/>
			<path class="st10" d="M1757.6,672.4l-61.5-2.1c0,0-47.9-15-49.4-15.4c-1.5-0.4-8.8-19.6-10.8-17.9c-1.9,1.6,4.2,9.6,1.7,11
				c-2.5,1.4-25.9-6.2-25.8-4.3c0.1,3.6,14.1,5.3,13.9,6.9c-0.3,1.7-14.5-3.2-15.9-0.6c-1.4,2.6,13.9,3.3,14.3,4.6
				c0.4,1.3-14.5,1.4-13.4,4.2c0.6,1.5,13.3-0.4,12.9,1.5c-0.3,1.9-9.8,4.9-9,6.6c0.9,1.7,7.6-3.6,12.8-2.9c5.1,0.7,9.2-1.5,17,2.1
				c7.8,3.6,33.9,19.6,51.5,21.4c17.6,1.8,56.4,5.9,56.4,5.9L1757.6,672.4z"/>
			<path class="st4" d="M1769.3,669.6c33.6,1.6,4.1,29.7,4.1,29.7l-49.7-7.1c-1.5-9.9,1.1-21.7,1.2-24.4
				C1735.2,667.3,1761,669.2,1769.3,669.6z"/>
			<path class="st5" d="M1795.3,664.2c0,0,14.5-0.3,22.1,8.1c7.7,8.4-12.1,73.8-13.5,84.5c-1.4,10.7,7.1,39.1,7.1,39.1
				s-45.6,9.2-58.7,0.6c0,0-1.4-76.9,0-84.5c1.4-7.6,13-38.7,15.8-41.7C1771.1,667.3,1795.3,664.2,1795.3,664.2z"/>
			<path class="st6" d="M1788.9,638.2c0,0,0.1,0.6,0.3,1.6c0.9,4.7,4.2,20.2,6.5,24.5c2.7,5.2-9.3,21.6-20.9,19.6
				c-3.5-0.6,2.9-15.1,2.6-16.7c-0.6-2.9-1.4-7-2.2-11.1c-0.5-2.3-0.9-4.7-1.4-6.9c-1.2-6.3-2.3-11.4-2.3-11.4L1788.9,638.2z"/>
			<path class="st7" d="M1789.2,639.8c-0.2-1-0.3-1.6-0.3-1.6l-17.4-0.4c0,0,1,5.1,2.3,11.4c0.4,2.2,0.9,4.5,1.4,6.9
				c2.7-0.4,5.5-1.7,8.3-4.2c3.1-2.7,5.1-5.9,6.3-9.4C1789.5,641.4,1789.3,640.5,1789.2,639.8z"/>
			<path class="st6" d="M1777.2,598.6c0,0,8.2-0.9,13.3,5.7c5.1,6.7,10.7,27.2-2.1,38.4c-12.8,11.2-25.4-1.5-27.2-14.9
				C1759.3,614.4,1758.6,598.1,1777.2,598.6z"/>
			<path class="st6" d="M1757.4,627.7c1.5,3,4.1,4.6,5.7,3.7c1.6-0.9,1.7-4.1,0.2-7.1c-1.5-3-4.1-4.6-5.7-3.7
				C1756,621.5,1755.9,624.7,1757.4,627.7z"/>
			<path class="st19" d="M1776.3,596.4c0,0,10.9,19.6,18.8,20.5s8.9,11.3,8.9,11.3s-2.8-24-10.5-28.6
				C1785.6,595,1776.3,596.4,1776.3,596.4z"/>
			<path class="st6" d="M1793,621.8c-0.6,3.5,0.6,6.7,2.9,7.1s4.5-2,5.2-5.5c0.6-3.5-0.6-6.7-2.9-7.1
				C1795.9,615.9,1793.6,618.3,1793,621.8z"/>
			<path class="st4" d="M1775.9,730.6c0,0,35.3-18.1,43.1-27.7c7.8-9.6,6.1-28.1-4-32.6c-10-4.4-50.9,36.4-50.9,36.4L1775.9,730.6z"
				/>
		</g>
	</g>
	<g>
		<defs>
			
				<ellipse id="SVGID_11_" transform="matrix(0.1707 -0.9853 0.9853 0.1707 597.7027 1439.806)" cx="1154.2" cy="364.8" rx="55.2" ry="55.2"/>
		</defs>
		<clipPath id="SVGID_12_">
			<use xlink:href="#SVGID_11_"  style="overflow:visible;"/>
		</clipPath>
		<g class="st20">
			<path class="st7" d="M1057.3,400.7c0,0,19.5-5.2,19.7-3.6c5,34.4,7.2,46.8,7.9,47.1c2.4,1.2,33.1-28.5,38.7-30.6
				c2.7-1,5.6-0.9,8.4-0.9c6.7,0,8,0,8,0c0.2,0,0.2,0,0.2,0l0.1,6.3c-7.3,7-14.6,141.5-16,141.5c-1.6,0-32.2-0.2-30.7-2.7
				c0,0,7.4-41.4,13.2-68.8c1.9-9.2,7.4-28.3,7.4-28.3c-7.5,4-36.6,19.3-41.4,17.5C1058.2,472.6,1057.3,400.7,1057.3,400.7z"/>
			<path class="st21" d="M1115,482.5c3.3-16.5,11.9-43.5,14.4-49.7c5.8-14.1,10.6-20.1,10.6-20.1l22.8,0.7c0,0,0.5,0.1,0.7,0.2
				c1.9,0.3,1.9,66.7,0.9,91.5c-1,24.8-6.5,57.1-6.5,57.1l-6.5-0.6c-0.1,3.3-0.2,5.6-0.2,5.6c-33,5.8-51.4-10.4-51.4-10.4
				S1110.7,503.9,1115,482.5z"/>
			<path class="st7" d="M1162.9,413.5c0,0,22.6-1.6,28.3-4.4c3.5-1.7,31.9-25.8,31.9-25.8l-2-62.6l20.4-2.1c0,0,12.4,68.9,8.9,76.6
				c-3.6,7.9-45.2,41.2-53.3,55.4c-4.7,8.2-0.2,119.2-1.8,120.2c-10.8,6-56.4,11.3-55.7,7.8C1159.2,482.1,1162.9,413.5,1162.9,413.5
				z"/>
			<path class="st6" d="M1161.7,393.4l1.2,20.1c0,0-14.1,25.8-21.7,22.4c-6.4-2.8-1.3-22.3-1.3-22.3s1-4.5,2.4-9.6
				c1-3.6,1.8-7.5,1.6-10.3C1143.5,386.9,1161.7,393.4,1161.7,393.4z"/>
			<path class="st7" d="M1143.8,393.7c-0.3-6.9,17.9-0.4,17.9-0.4l0.1,2c-0.6,0.9-1.2,1.7-2,2.3c-4.7,4.1-11.7,6-17.4,5.5
				C1143.3,399.8,1144,396.4,1143.8,393.7z"/>
			<g>
				<path class="st22" d="M1142.9,348c0,0-7.2,11.5-7.5,21.1c-0.3,9.5,1.9,16,1.9,16l23.4-29.4L1142.9,348z"/>
				<path class="st23" d="M1132.8,367.1c-0.3,3.3,1.1,6.2,3.1,6.3c1.9,0.1,3.7-2.4,4-5.8c0.3-3.3-1.1-6.2-3.1-6.3
					C1134.8,361.2,1133.1,363.8,1132.8,367.1z"/>
				<path class="st6" d="M1168.5,360c0.5-0.1,1.2,27.6-6.6,34.4c-7.9,6.7-21.8,7.7-26.1,1.2c-4.7-7.2-1.2-36.5,10.6-43
					C1158.2,346,1168.5,360,1168.5,360z"/>
				<path class="st22" d="M1170.1,342.7c6.3,5.2,9.4,9.1,13.8,18.5c5.4,11.6-4.4,24.1-12.8,29.2c-8.4,5.1-8.9,10.9-8.9,10.9
					l-0.4-3.6c-0.2-1.3-0.2-2.4,0-3.3c0.2-1.1,0.7-2,1.1-3c0.7-1.6,2.9-6.9,3.7-8.3c2.3-3.7,2.7-4.6,1.5-8c-1-2.7-0.1-8.6-1.6-13.1
					l-11.5-2.2c0,0-7.2-1.5-10.9-5.6C1133.4,342.6,1153.5,328.7,1170.1,342.7z"/>
				<path class="st6" d="M1165.4,378.2c-1.3,3.1-1,6.2,0.8,7c1.8,0.8,4.3-1.1,5.6-4.2c1.3-3.1,1-6.2-0.8-7
					C1169.3,373.3,1166.8,375.1,1165.4,378.2z"/>
			</g>
		</g>
	</g>
	<g>
		<defs>
			
				<ellipse id="SVGID_13_" transform="matrix(0.9665 -0.2567 0.2567 0.9665 -107.8171 40.6958)" cx="102" cy="433.4" rx="83.2" ry="83.2"/>
		</defs>
		<clipPath id="SVGID_14_">
			<use xlink:href="#SVGID_13_"  style="overflow:visible;"/>
		</clipPath>
		<g class="st24">
			<path class="st19" d="M-44,487.4c0,0,29.4-7.8,29.7-5.5c7.6,51.8,10.9,70.5,11.9,71.1c3.6,1.7,50-42.9,58.4-46.1
				c4-1.5,8.4-1.4,12.6-1.4c10.1,0,12.1,0,12.1,0c0.3,0,0.4,0,0.4,0l0.2,9.5c-11.1,10.5-22,213.4-24.1,213.3
				c-2.4-0.1-48.5-0.3-46.3-4.1c0,0,11.1-62.5,19.9-103.7c2.9-13.8,11.1-42.7,11.1-42.7c-11.3,6-55.2,29.1-62.4,26.4
				C-42.7,595.8-44,487.4-44,487.4z"/>
			<path class="st19" d="M43,610.8c5-24.8,18-65.6,21.8-74.9c8.7-21.2,16-30.2,16-30.2l34.4,1c0,0,0.8,0.2,1,0.3
				c2.8,0.4,2.9,100.6,1.4,138c-1.5,37.4-9.8,86.2-9.8,86.2l-9.8-0.9c-0.2,5-0.3,8.4-0.3,8.4c-49.7,8.8-77.5-15.8-77.5-15.8
				S36.4,643,43,610.8z"/>
			<path class="st19" d="M115.1,506.7c0,0,34-2.5,42.7-6.7c5.3-2.5,48.1-38.9,48.1-38.9l-3-94.4l30.7-3.1c0,0,18.7,103.9,13.5,115.4
				c-5.4,11.9-68.1,62.2-80.4,83.6c-7.1,12.3-0.4,179.7-2.7,181.2c-16.3,9.1-85,17.1-84,11.8C109.6,610.2,115.1,506.7,115.1,506.7z"
				/>
			<path class="st13" d="M113.3,476.4l1.8,30.3c0,0-21.2,38.9-32.8,33.8c-9.7-4.2-2-33.6-2-33.6s1.5-6.7,3.6-14.5
				c1.5-5.4,2.6-11.2,2.4-15.5C85.9,466.6,113.3,476.4,113.3,476.4z"/>
			<path class="st25" d="M86.4,477c-0.5-10.4,26.9-0.6,26.9-0.6l0.2,3c-0.9,1.4-1.9,2.6-2.9,3.5c-7.2,6.1-17.6,9.1-26.3,8.3
				C85.6,486.2,86.6,480.9,86.4,477z"/>
			<g>
				<path class="st22" d="M85,407.9c0,0-10.9,17.4-11.3,31.8c-0.5,14.4,2.8,24.1,2.8,24.1l35.2-44.4L85,407.9z"/>
				<path class="st25" d="M69.8,436.9c-0.4,5,1.7,9.3,4.6,9.5c2.9,0.2,5.6-3.7,6-8.7c0.4-5-1.7-9.3-4.6-9.5
					C72.9,427.9,70.2,431.8,69.8,436.9z"/>
				<path class="st13" d="M123.6,426.1c0.8-0.2,1.8,41.6-10,51.8c-11.9,10.2-32.9,11.6-39.4,1.8c-7.1-10.8-1.8-55,16-64.9
					C108,405,123.6,426.1,123.6,426.1z"/>
				<path class="st22" d="M126,400.1c9.5,7.9,14.1,13.7,20.7,27.9c8.2,17.5-6.6,36.3-19.2,44c-12.6,7.6-13.5,16.5-13.5,16.5
					l-0.7-5.4c-0.3-2-0.3-3.6,0-5c0.4-1.7,1.1-3,1.7-4.5c1-2.4,4.3-10.4,5.6-12.6c3.5-5.7,4.1-6.9,2.2-12.1c-1.5-4-0.1-13-2.4-19.7
					l-17.3-3.3c0,0-10.9-2.3-16.5-8.5C70.6,399.8,101,378.9,126,400.1z"/>
				<path class="st13" d="M119,453.5c-2,4.6-1.4,9.4,1.3,10.5c2.7,1.2,6.5-1.7,8.5-6.3c2-4.6,1.4-9.4-1.3-10.5
					C124.8,446.1,121,448.9,119,453.5z"/>
			</g>
		</g>
	</g>
	<g>
		<defs>
			<path id="SVGID_15_" d="M513.2,100c0,37.9,30.7,68.7,68.7,68.7s68.7-30.7,68.7-68.7c0-37.9-30.7-68.7-68.7-68.7
				S513.2,62.1,513.2,100z"/>
		</defs>
		<clipPath id="SVGID_16_">
			<use xlink:href="#SVGID_15_"  style="overflow:visible;"/>
		</clipPath>
		<g class="st26">
			<path class="st3" d="M702.4,144.6c0,0-24.2-6.5-24.5-4.5c-6.2,42.8-9,58.2-9.8,58.7c-3,1.4-41.2-35.4-48.2-38
				c-3.3-1.2-7-1.2-10.4-1.1c-8.3,0-10,0-10,0c-0.2,0-0.3,0-0.3,0l-0.2,7.8c9.1,8.7,18.1,176.1,19.9,176.1c2,0,40-0.2,38.2-3.4
				c0,0-9.2-51.6-16.4-85.6c-2.4-11.4-9.2-35.3-9.2-35.3c9.3,5,45.6,24,51.5,21.8C701.3,234.1,702.4,144.6,702.4,144.6z"/>
			<path class="st21" d="M630.6,246.4c-4.2-20.5-14.8-54.2-18-61.8c-7.2-17.5-13.2-25-13.2-25l-28.4,0.8c0,0-0.7,0.2-0.9,0.2
				c-2.3,0.4-2.4,83-1.1,113.9c1.2,30.9,8.1,71.1,8.1,71.1l8.1-0.8c0.1,4.2,0.2,6.9,0.2,6.9c41.1,7.2,64-13,64-13
				S636,273,630.6,246.4z"/>
			<path class="st3" d="M571.1,160.5c0,0-28.1-2-35.2-5.5c-4.3-2.1-39.7-32.1-39.7-32.1l2.4-77.9l-25.3-2.6c0,0-15.4,85.7-11.1,95.3
				c4.5,9.9,56.2,51.3,66.4,69c5.8,10.2,0.3,148.3,2.2,149.6c13.5,7.5,70.2,14.1,69.3,9.8C575.7,246,571.1,160.5,571.1,160.5z"/>
			<path class="st6" d="M572.5,135.5l-1.5,25c0,0,17.5,32.1,27.1,27.9c8-3.5,1.6-27.7,1.6-27.7s-1.2-5.5-3-11.9
				c-1.2-4.5-2.2-9.3-2-12.8C595.2,127.5,572.5,135.5,572.5,135.5z"/>
			<path class="st7" d="M594.8,136c0.4-8.5-22.2-0.5-22.2-0.5l-0.1,2.4c0.7,1.2,1.5,2.1,2.4,2.9c5.9,5.1,14.6,7.5,21.7,6.9
				C595.4,143.6,594.6,139.2,594.8,136z"/>
			<g>
				<path class="st7" d="M596,79c0,0,9,14.3,9.4,26.2c0.4,11.9-2.3,19.9-2.3,19.9l-29.1-36.6L596,79z"/>
				<path class="st23" d="M608.5,102.9c0.3,4.2-1.4,7.7-3.8,7.9c-2.4,0.2-4.6-3-5-7.2c-0.3-4.2,1.4-7.7,3.8-7.9
					C606,95.5,608.2,98.7,608.5,102.9z"/>
				<path class="st6" d="M564.1,94c-0.7-0.2-1.5,34.4,8.3,42.7c9.8,8.4,27.2,9.6,32.5,1.5c5.9-8.9,1.5-45.4-13.2-53.5
					C576.9,76.6,564.1,94,564.1,94z"/>
				<path class="st7" d="M562.1,72.5c-7.8,6.5-11.6,11.3-17.1,23.1c-6.7,14.5,5.5,30,15.9,36.3c10.4,6.3,11.1,13.6,11.1,13.6
					l0.6-4.5c0.3-1.6,0.2-3,0-4.1c-0.3-1.4-0.9-2.5-1.4-3.7c-0.8-1.9-3.6-8.6-4.6-10.4c-2.9-4.7-3.4-5.7-1.8-10
					c1.2-3.3,0.1-10.8,2-16.2l14.3-2.7c0,0,9-1.9,13.6-7C607.8,72.3,582.7,55,562.1,72.5z"/>
				<path class="st6" d="M567.9,116.7c1.7,3.8,1.2,7.7-1,8.7c-2.2,1-5.4-1.4-7-5.2c-1.7-3.8-1.2-7.7,1-8.7
					C563.1,110.5,566.2,112.8,567.9,116.7z"/>
			</g>
		</g>
	</g>
	<g>
		<defs>
			
				<ellipse id="SVGID_17_" transform="matrix(0.9239 -0.3827 0.3827 0.9239 -146.6275 392.4335)" cx="913.1" cy="564.8" rx="40.3" ry="40.3"/>
		</defs>
		<clipPath id="SVGID_18_">
			<use xlink:href="#SVGID_17_"  style="overflow:visible;"/>
		</clipPath>
		<g class="st27">
			<path class="st19" d="M842.4,591c0,0,14.2-3.8,14.4-2.7c3.7,25.1,5.3,34.2,5.8,34.4c1.8,0.8,24.2-20.8,28.3-22.3
				c1.9-0.7,4.1-0.7,6.1-0.7c4.9,0,5.8,0,5.8,0c0.1,0,0.2,0,0.2,0l0.1,4.6c-5.4,5.1-10.6,103.4-11.7,103.4c-1.2,0-23.5-0.1-22.4-2
				c0,0,5.4-30.3,9.6-50.2c1.4-6.7,5.4-20.7,5.4-20.7c-5.5,2.9-26.8,14.1-30.2,12.8C843,643.5,842.4,591,842.4,591z"/>
			<path class="st21" d="M884.5,650.7c2.4-12,8.7-31.8,10.5-36.3c4.2-10.3,7.8-14.6,7.8-14.6l16.7,0.5c0,0,0.4,0.1,0.5,0.1
				c1.4,0.2,1.4,48.7,0.7,66.9c-0.7,18.1-4.8,41.7-4.8,41.7l-4.8-0.5c-0.1,2.4-0.1,4.1-0.1,4.1c-24.1,4.2-37.6-7.6-37.6-7.6
				S881.4,666.3,884.5,650.7z"/>
			<path class="st19" d="M919.5,600.3c0,0,16.5-1.2,20.7-3.2c2.5-1.2,23.3-18.9,23.3-18.9l-1.4-45.7l14.9-1.5c0,0,9.1,50.3,6.5,55.9
				c-2.6,5.8-33,30.1-39,40.5c-3.4,6-0.2,87.1-1.3,87.8c-7.9,4.4-41.2,8.3-40.7,5.7C916.8,650.5,919.5,600.3,919.5,600.3z"/>
			<path class="st6" d="M918.6,585.6l0.9,14.7c0,0-10.3,18.8-15.9,16.4c-4.7-2-0.9-16.3-0.9-16.3s0.7-3.3,1.7-7
				c0.7-2.6,1.3-5.4,1.2-7.5C905.3,580.9,918.6,585.6,918.6,585.6z"/>
			<path class="st7" d="M905.6,585.9c-0.2-5,13.1-0.3,13.1-0.3l0.1,1.4c-0.4,0.7-0.9,1.3-1.4,1.7c-3.5,3-8.6,4.4-12.7,4
				C905.2,590.4,905.7,587.8,905.6,585.9z"/>
			<g>
				<path class="st3" d="M904.9,552.5c0,0-5.3,8.4-5.5,15.4c-0.2,7,1.4,11.7,1.4,11.7l17.1-21.5L904.9,552.5z"/>
				<path class="st23" d="M897.5,566.5c-0.2,2.4,0.8,4.5,2.2,4.6c1.4,0.1,2.7-1.8,2.9-4.2c0.2-2.4-0.8-4.5-2.2-4.6
					C899,562.1,897.7,564,897.5,566.5z"/>
				<path class="st6" d="M923.6,561.2c0.4-0.1,0.9,20.2-4.9,25.1c-5.7,4.9-16,5.6-19.1,0.9c-3.4-5.2-0.9-26.7,7.8-31.4
					C916.1,551,923.6,561.2,923.6,561.2z"/>
				<path class="st3" d="M924.8,548.6c4.6,3.8,6.8,6.6,10.1,13.5c4,8.5-3.2,17.6-9.3,21.3c-6.1,3.7-6.5,8-6.5,8l-0.3-2.6
					c-0.1-1-0.1-1.7,0-2.4c0.2-0.8,0.5-1.5,0.8-2.2c0.5-1.1,2.1-5.1,2.7-6.1c1.7-2.7,2-3.3,1.1-5.9c-0.7-2-0.1-6.3-1.2-9.5l-8.4-1.6
					c0,0-5.3-1.1-8-4.1C897.9,548.5,912.7,538.4,924.8,548.6z"/>
				<path class="st6" d="M921.4,574.6c-1,2.3-0.7,4.5,0.6,5.1c1.3,0.6,3.2-0.8,4.1-3.1c1-2.3,0.7-4.5-0.6-5.1
					C924.2,570.9,922.3,572.3,921.4,574.6z"/>
			</g>
		</g>
	</g>
	<g>
		<defs>
			<path id="SVGID_19_" d="M1371.6,634c0,26.9,21.8,48.6,48.6,48.6c26.9,0,48.6-21.8,48.6-48.6c0-26.9-21.8-48.6-48.6-48.6
				C1393.3,585.4,1371.6,607.2,1371.6,634z"/>
		</defs>
		<clipPath id="SVGID_20_">
			<use xlink:href="#SVGID_19_"  style="overflow:visible;"/>
		</clipPath>
		<g class="st28">
			<path class="st7" d="M1505.5,665.6c0,0-17.2-4.6-17.4-3.2c-4.4,30.3-6.3,41.2-7,41.5c-2.1,1-29.2-25.1-34.1-26.9
				c-2.3-0.9-4.9-0.8-7.4-0.8c-5.9,0-7.1,0-7.1,0c-0.2,0-0.2,0-0.2,0l-0.1,5.5c6.5,6.1,12.8,124.7,14.1,124.7
				c1.4,0,28.3-0.2,27.1-2.4c0,0-6.5-36.5-11.6-60.6c-1.7-8.1-6.5-25-6.5-25c6.6,3.5,32.3,17,36.5,15.4
				C1504.8,729,1505.5,665.6,1505.5,665.6z"/>
			<path class="st21" d="M1454.7,737.7c-3-14.5-10.5-38.4-12.7-43.8c-5.1-12.4-9.4-17.7-9.4-17.7l-20.1,0.6c0,0-0.5,0.1-0.6,0.2
				c-1.6,0.3-1.7,58.8-0.8,80.7c0.9,21.9,5.7,50.4,5.7,50.4l5.7-0.5c0.1,3,0.2,4.9,0.2,4.9c29.1,5.1,45.3-9.2,45.3-9.2
				S1458.5,756.5,1454.7,737.7z"/>
			<path class="st7" d="M1412.5,676.9c0,0-19.9-1.4-24.9-3.9c-3.1-1.5-28.1-22.8-28.1-22.8l1.7-55.2l-17.9-1.8
				c0,0-10.9,60.7-7.9,67.5c3.2,7,39.8,36.3,47,48.8c4.1,7.2,0.2,105,1.5,105.9c9.6,5.3,49.7,10,49.1,6.9
				C1415.8,737.4,1412.5,676.9,1412.5,676.9z"/>
			<path class="st6" d="M1413.6,659.2l-1,17.7c0,0,12.4,22.7,19.2,19.8c5.7-2.5,1.1-19.6,1.1-19.6s-0.9-3.9-2.1-8.4
				c-0.9-3.2-1.5-6.6-1.4-9.1C1429.6,653.4,1413.6,659.2,1413.6,659.2z"/>
			<path class="st7" d="M1429.3,659.5c0.3-6.1-15.7-0.3-15.7-0.3l-0.1,1.7c0.5,0.8,1.1,1.5,1.7,2.1c4.2,3.6,10.3,5.3,15.4,4.9
				C1429.8,664.9,1429.2,661.8,1429.3,659.5z"/>
			<g>
				<path class="st22" d="M1430.2,619.1c0,0,6.4,10.2,6.6,18.6c0.3,8.4-1.7,14.1-1.7,14.1l-20.6-26L1430.2,619.1z"/>
				<path class="st23" d="M1439,636c0.2,2.9-1,5.4-2.7,5.6c-1.7,0.1-3.3-2.2-3.5-5.1c-0.2-2.9,1-5.4,2.7-5.6
					C1437.2,630.8,1438.8,633.1,1439,636z"/>
				<path class="st6" d="M1407.6,629.7c-0.5-0.1-1.1,24.3,5.9,30.3c6.9,5.9,19.3,6.8,23,1.1c4.2-6.3,1-32.2-9.4-37.9
					C1416.7,617.4,1407.6,629.7,1407.6,629.7z"/>
				<path class="st22" d="M1406.2,614.5c-5.5,4.6-8.2,8-12.1,16.3c-4.8,10.3,3.9,21.2,11.3,25.7c7.4,4.5,7.9,9.6,7.9,9.6l0.4-3.2
					c0.2-1.2,0.2-2.1,0-2.9c-0.2-1-0.6-1.8-1-2.6c-0.6-1.4-2.5-6.1-3.3-7.4c-2-3.3-2.4-4-1.3-7.1c0.9-2.4,0.1-7.6,1.4-11.5l10.1-1.9
					c0,0,6.3-1.4,9.6-4.9C1438.5,614.4,1420.8,602.2,1406.2,614.5z"/>
				<path class="st6" d="M1410.3,645.8c1.2,2.7,0.8,5.5-0.7,6.2c-1.6,0.7-3.8-1-5-3.7c-1.2-2.7-0.8-5.5,0.7-6.1
					C1406.9,641.4,1409.1,643.1,1410.3,645.8z"/>
			</g>
		</g>
	</g>
	<g>
		<defs>
			
				<ellipse id="SVGID_21_" transform="matrix(0.3827 -0.9239 0.9239 0.3827 124.6236 1459.1157)" cx="1154.2" cy="636.3" rx="99" ry="99"/>
		</defs>
		<clipPath id="SVGID_22_">
			<use xlink:href="#SVGID_21_"  style="overflow:visible;"/>
		</clipPath>
		<g class="st29">
			<path class="st3" d="M1129.7,753.9c0,0,22.3-29.8,30.4-43.9c8.1-14.1-5.5-4.9-19.5-8.6c-5.3-1.4-0.9-30.3-10.9-20.2
				c-16.4,16.5-32.9,52.4-32.9,52.4L1129.7,753.9z"/>
			<path class="st30" d="M1132.1,679.2c14.4-4.4,41.4-6.7,41.4-6.7s16.9-2.8,22.4-1.6c8.1,1.8,23.3,2.6,24.7,37.7
				c1,25.2,3.9,87.4,6.7,129.4l-103.1,6.3C1129,779.7,1118.5,683.3,1132.1,679.2z"/>
			<path class="st6" d="M1159.5,642.5l16.2,29.8c0,0-12.2,21.7-23.7,22.3c-9.7,0.5-8.2-13.8-8.2-13.8s-1.5-18.5-6.2-26.8
				S1159.5,642.5,1159.5,642.5z"/>
			<path class="st7" d="M1158,654.4c-3.6,3.9-9.7,9-16.3,12.2c-1-4.6-2.3-9.4-4.1-12.7c-2.1-3.8,2.4-6.6,7.8-8.4
				c7.3-1.9,14.1-3.1,14.1-3.1l3.1,5.7C1161.8,650.2,1159.2,653.1,1158,654.4z"/>
			<g>
				<path class="st6" d="M1151.1,592.3c0.7-0.5,16.6,36.8,9.7,50.1c-6.9,13.4-25.2,22.2-34.5,15.8c-10.2-7.1-21.4-48.8-9.1-64
					C1129.6,579,1151.1,592.3,1151.1,592.3z"/>
				<path class="st19" d="M1117.4,571.9c12.6-0.9,22.3,4.2,26,6.5c5.6-0.9,13.7,0.1,24.8,10.5c13.6,12.8,11.5,31.8,3,43.2
					c-8.5,11.4-5.7,21-5.7,21l-3.1-4.5c-2.3-3.4-4-7.3-4.6-11.4c-0.4-2.5-0.6-5.2-0.2-7.6c1-6.3-8.2-7.8-11.8-11.8
					c-2.8-3.1-5.1-11.3-9.6-16.4l-4.6-3.6c0,0-9.4-3.8-16.4-0.1C1108.1,601.6,1101.3,573,1117.4,571.9z"/>
				<path class="st6" d="M1148.1,624.6c1.2,4.7,4.5,8,7.2,7.3c2.7-0.7,4-5.1,2.7-9.9c-1.2-4.7-4.5-8-7.2-7.3
					C1148.1,615.5,1146.9,619.9,1148.1,624.6z"/>
			</g>
			<path class="st8" d="M1135.1,640l-15.1,3.4c0,0,1.6,5.7,8.3,4.4C1136.5,646.2,1135.1,640,1135.1,640z"/>
			<path class="st3" d="M1184.2,759.1c0,0,27.1-34.4,33.7-47.9c6.6-13.5-0.5-34.9-13.6-37.4c-13.1-2.5-51.1,59.2-51.1,59.2
				L1184.2,759.1z"/>
		</g>
	</g>
	<g>
		<defs>
			<path id="SVGID_23_" d="M148.7,153.2c0,32.2,26.1,58.3,58.3,58.3c32.2,0,58.3-26.1,58.3-58.3c0-32.2-26.1-58.3-58.3-58.3
				C174.8,94.9,148.7,121,148.7,153.2z"/>
		</defs>
		<clipPath id="SVGID_24_">
			<use xlink:href="#SVGID_23_"  style="overflow:visible;"/>
		</clipPath>
		<g class="st31">
			<path class="st4" d="M221.5,222.5c0,0-13.1-17.5-17.9-25.9c-4.8-8.3,3.3-2.9,11.5-5.1c3.1-0.8,0.5-17.9,6.4-11.9
				c9.7,9.7,19.4,30.9,19.4,30.9L221.5,222.5z"/>
			<path class="st5" d="M220,178.5c-8.5-2.6-24.4-3.9-24.4-3.9s-10-1.6-13.2-0.9c-4.8,1-13.7,1.5-14.6,22.2
				c-0.6,14.8-2.3,51.5-4,76.3l60.8,3.7C221.9,237.7,228.1,180.9,220,178.5z"/>
			<path class="st6" d="M203.9,156.9l-9.5,17.5c0,0,7.2,12.8,14,13.2c5.7,0.3,4.8-8.1,4.8-8.1s0.9-10.9,3.6-15.8
				C219.6,158.7,203.9,156.9,203.9,156.9z"/>
			<path class="st7" d="M204.8,163.9c2.1,2.3,5.7,5.3,9.6,7.2c0.6-2.7,1.3-5.6,2.4-7.5c1.3-2.3-1.4-3.9-4.6-5
				c-4.3-1.1-8.3-1.8-8.3-1.8l-1.8,3.4C202.6,161.4,204.1,163.1,204.8,163.9z"/>
			<g>
				<path class="st6" d="M208.8,127.3c-0.4-0.3-9.8,21.7-5.7,29.5c4.1,7.9,14.9,13.1,20.3,9.3c6-4.2,12.6-28.8,5.3-37.7
					C221.5,119.4,208.8,127.3,208.8,127.3z"/>
				<path class="st22" d="M228.7,115.3c-7.4-0.5-13.1,2.5-15.3,3.9c-3.3-0.5-8.1,0-14.6,6.2c-8,7.6-6.8,18.8-1.7,25.5
					c5,6.7,3.3,12.4,3.3,12.4l1.8-2.7c1.4-2,2.3-4.3,2.7-6.7c0.2-1.4,0.4-3.1,0.1-4.5c-0.6-3.7,4.8-4.6,6.9-6.9
					c1.6-1.8,3-6.6,5.6-9.7l2.7-2.1c0,0,5.5-2.3,9.7,0C234.2,132.8,238.2,115.9,228.7,115.3z"/>
				<path class="st6" d="M210.6,146.4c-0.7,2.8-2.6,4.7-4.2,4.3c-1.6-0.4-2.3-3-1.6-5.8c0.7-2.8,2.6-4.7,4.2-4.3
					C210.6,141,211.3,143.6,210.6,146.4z"/>
			</g>
			<path class="st8" d="M218.3,155.4l8.9,2c0,0-1,3.3-4.9,2.6C217.5,159,218.3,155.4,218.3,155.4z"/>
			<path class="st4" d="M189.3,225.6c0,0-16-20.3-19.8-28.2c-3.9-8,0.3-20.6,8-22.1c7.7-1.5,30.1,34.9,30.1,34.9L189.3,225.6z"/>
		</g>
	</g>
	<g>
		<defs>
			
				<ellipse id="SVGID_25_" transform="matrix(0.9975 -7.088897e-02 7.088897e-02 0.9975 -24.3436 32.957)" cx="452.2" cy="359.5" rx="93.4" ry="93.4"/>
		</defs>
		<clipPath id="SVGID_26_">
			<use xlink:href="#SVGID_25_"  style="overflow:visible;"/>
		</clipPath>
		<g class="st32">
			<path class="st33" d="M507.9,397.3c1.7,0.1,6.4,1.6,13.2,14.6c8.7,16.5,21.5,66.4,21.5,66.4l-38.1,14.2l-4.9-10.4l-8.1-80.1
				C491.5,401.9,507.4,397.3,507.9,397.3z"/>
			<path class="st21" d="M457.5,390.1c10.9,0,37.9,3.2,50.4,7.2c0,0,9.2,79-8.3,139.1c-3.9,13.4,3.2,55.7,3.2,55.7l-112.9-1.5
				c0,0,13.4-102.2,8.3-118.7c-5-16.5-5.2-74-5.2-74s0.8-0.1,25.4-4.4C429.9,391.5,445.8,390.1,457.5,390.1z"/>
			<path class="st6" d="M391.8,406.6c10.6-4,15.7,91.2,17.1,130.3c18.7,1.8,51.3,0,59.4-0.6c3.8-0.3,12.6-3.5,16.4-4
				c3.9-0.5,7.4-0.8,9.3-0.4c0.7,0.1,20.2,8.1,21.9,9.8c2.1,2.2,7.7,7.6,6.7,10c-0.9,2.4-10.8-6.6-10.8-6.6l-4.8-2.7
				c6,5.8,17.3,13.5,15.7,16.3c-1.6,2.7-11.9-5.1-19.2-10.4c6.3,5.7,14.1,15.8,12.3,17.4c-1.6,1.4-10.5-10.3-20-13.7
				c-3.5-1.3-7,2.2-9.8,2.6c-2,0.3-5.2,1-7.2,0.4l-10.3-2.9c-3.5,0.3-3.6,2.4-7.1,3.1c-4.1,0.9-10.8,1.8-16,3.1
				c-30.1,7.3-40.1,10.8-49.3,10.7C368.5,569.2,366.9,416,391.8,406.6z"/>
			<path class="st33" d="M371.8,496c-2-40.1-1.7-89.5,20.8-98c8.9-3.3,24.5,16.7,21.7,98.8C402.3,497.8,384.7,498.6,371.8,496z"/>
			<g>
				<path class="st34" d="M482.8,293.6c-3.2-1.1-6.4-2.3-9.4-3.8c-3.5-1.7-7.9-3.6-10.8-4.1c-6-0.9-16.2-0.3-21.8,5.8
					c-7,7.6-19.5,1.4-17,41.3c2.8,45.2,28,40.3,28.6,39.5c0.6-0.8,22.4-28.9,22.4-28.9s7.6,16.7,7.6,16.1
					C482.5,359,521.4,306.6,482.8,293.6z"/>
				<path class="st6" d="M463.7,375.8l2.2,16.2c0,0,4.9,23.3-1.4,27.8c-6.3,4.5-26.6-28.4-26.6-28.4l2.1-40.9L463.7,375.8z"/>
				<path class="st7" d="M439.3,363.6c5.2,14,17.5,22.6,26.2,25.9l-1.8-13.7L440,350.3L439.3,363.6z"/>
				<path class="st6" d="M462.4,305.8c13.3-2.1,25.1,8.5,24.8,21.8c-0.1,5.8-0.6,13-1.8,20.7c-2.9,18.7-15.6,35.1-24,33.6
					c-8.4-1.5-29.6-17.6-25.9-44.1C437.8,321.4,448.5,308,462.4,305.8z"/>
				<path class="st6" d="M441.4,341c-0.7,4.1-4,7-7.3,6.4c-3.3-0.6-5.5-4.4-4.8-8.5c0.7-4.1,4-7,7.3-6.4
					C440,333.1,442.1,336.9,441.4,341z"/>
				<path class="st34" d="M436.6,332.5c0,0,10.2,2.5,14-4c3.8-6.5,17.3-20.7,34.4-14.8c17.2,5.9-15.1-14.2-16.5-14.2
					c-1.4,0-17.9-0.1-17.9-0.1s-12.7,10.4-13.2,11.6c-0.5,1.1-4.1,13.7-4.1,13.7L436.6,332.5z"/>
			</g>
			<path class="st8" d="M455.2,359.8l18.5,3.5c0,0-1.8,7-10,5.7C453.8,367.4,455.2,359.8,455.2,359.8z"/>
		</g>
	</g>
	<g>
		<defs>
			
				<ellipse id="SVGID_27_" transform="matrix(0.7071 -0.7071 0.7071 0.7071 -238.3629 660.0469)" cx="677.6" cy="617.8" rx="48.5" ry="48.5"/>
		</defs>
		<clipPath id="SVGID_28_">
			<use xlink:href="#SVGID_27_"  style="overflow:visible;"/>
		</clipPath>
		<g class="st35">
			<path class="st36" d="M706.5,637.4c0.9,0,3.3,0.9,6.9,7.6c4.5,8.6,11.2,34.5,11.2,34.5l-19.8,7.4l-2.5-5.4l-4.2-41.7
				C698,639.8,706.3,637.4,706.5,637.4z"/>
			<path class="st19" d="M680.3,633.7c5.7,0,19.7,1.7,26.2,3.7c0,0,4.8,41.1-4.3,72.3c-2,7,1.7,29,1.7,29l-58.7-0.8
				c0,0,7-53.1,4.3-61.7c-2.6-8.6-2.7-38.5-2.7-38.5s0.4-0.1,13.2-2.3C666,634.4,674.3,633.7,680.3,633.7z"/>
			<path class="st6" d="M646.2,642.3c5.5-2.1,8.2,47.4,8.9,67.7c9.7,0.9,26.7,0,30.9-0.3c2-0.1,6.6-1.8,8.5-2.1
				c2-0.3,3.9-0.4,4.8-0.2c0.4,0.1,10.5,4.2,11.4,5.1c1.1,1.1,4,4,3.5,5.2c-0.5,1.2-5.6-3.4-5.6-3.4l-2.5-1.4c3.1,3,9,7,8.2,8.5
				c-0.8,1.4-6.2-2.6-10-5.4c3.3,2.9,7.3,8.2,6.4,9c-0.8,0.7-5.4-5.4-10.4-7.1c-1.8-0.7-3.6,1.2-5.1,1.4c-1.1,0.2-2.7,0.5-3.7,0.2
				l-5.3-1.5c-1.8,0.2-1.9,1.2-3.7,1.6c-2.1,0.5-5.6,0.9-8.3,1.6c-15.6,3.8-20.8,5.6-25.6,5.6C634.1,726.7,633.2,647.1,646.2,642.3z
				"/>
			<path class="st36" d="M635.8,688.7c-1-20.8-0.9-46.5,10.8-50.9c4.6-1.7,12.7,8.7,11.3,51.3C651.6,689.6,642.5,690.1,635.8,688.7z
				"/>
			<g>
				<path class="st34" d="M693.5,583.5c-1.7-0.6-3.3-1.2-4.9-2c-1.8-0.9-4.1-1.9-5.6-2.1c-3.1-0.5-8.4-0.2-11.3,3
					c-3.7,4-10.2,0.7-8.8,21.5c1.5,23.5,14.6,20.9,14.9,20.5c0.3-0.4,11.7-15,11.7-15s4,8.7,4,8.4
					C693.3,617.5,713.6,590.3,693.5,583.5z"/>
				<path class="st13" d="M683.6,626.2l1.1,8.4c0,0,2.5,12.1-0.7,14.4c-3.3,2.3-13.8-14.8-13.8-14.8l1.1-21.3L683.6,626.2z"/>
				<path class="st37" d="M670.9,619.9c2.7,7.3,9.1,11.7,13.6,13.5l-1-7.1L671.3,613L670.9,619.9z"/>
				<path class="st13" d="M682.9,589.8c6.9-1.1,13.1,4.4,12.9,11.3c-0.1,3-0.3,6.7-0.9,10.8c-1.5,9.7-8.1,18.2-12.5,17.5
					c-4.4-0.8-15.4-9.1-13.4-22.9C670.1,598,675.7,591,682.9,589.8z"/>
				<path class="st13" d="M672,608.1c-0.4,2.1-2.1,3.6-3.8,3.3c-1.7-0.3-2.8-2.3-2.5-4.4c0.4-2.1,2.1-3.6,3.8-3.3
					C671.2,604,672.3,606,672,608.1z"/>
				<path class="st34" d="M669.5,603.7c0,0,5.3,1.3,7.3-2.1c2-3.4,9-10.7,17.9-7.7c8.9,3-7.9-7.4-8.6-7.4c-0.7,0-9.3-0.1-9.3-0.1
					s-6.6,5.4-6.8,6c-0.2,0.6-2.1,7.1-2.1,7.1L669.5,603.7z"/>
			</g>
			<path class="st8" d="M679.2,617.9l9.6,1.8c0,0-0.9,3.6-5.2,2.9C678.4,621.9,679.2,617.9,679.2,617.9z"/>
		</g>
	</g>
	<g>
		<defs>
			
				<ellipse id="SVGID_29_" transform="matrix(0.2898 -0.9571 0.9571 0.2898 1026.929 1619.9561)" cx="1605" cy="118" rx="65.9" ry="65.9"/>
		</defs>
		<clipPath id="SVGID_30_">
			<use xlink:href="#SVGID_29_"  style="overflow:visible;"/>
		</clipPath>
		<g class="st38">
			<path class="st39" d="M1551.8,213.3l30.7,3.1c0,0,1.4-25.2,1.4-37.2c0-14.6-1.2-33.4-3-33c-4.9,1.1-11.6,3.9-15.6,9.3
				C1551.6,174.4,1551.8,213.3,1551.8,213.3z"/>
			<path class="st7" d="M1566.8,176.7c-0.6,4.4-12.5,125.3-12.5,125.3c56,27,86.8,4.8,86.8,4.8s-1.8-84.9,0.4-96.4
				c1.5-7.6,3.3-58.4-1.7-59.8c-6.4-1.8-13.6-3.8-21.6-4.6c-6.8-0.7-33.1-1.1-37.8,0.5C1580.5,146.4,1569.6,158,1566.8,176.7z"/>
			<path class="st6" d="M1610.8,122.6l3.6,23.8c0,0-13.2,28.3-21,25.9c-6.6-2.1-2.5-27.1-2.5-27.1s3.6-13.4,2.5-20.2
				C1592.3,118.2,1610.8,122.6,1610.8,122.6z"/>
			<path class="st7" d="M1593.4,124.9c-1.1-6.7,17.4-2.3,17.4-2.3l0.3,2c-0.5,1.3-1.2,2.4-2,3.3c-4.1,4.5-10.6,7.1-16.2,7.3
				C1593.5,131.5,1593.8,127.7,1593.4,124.9z"/>
			<g>
				<path class="st6" d="M1613.9,88.9c0.5-0.2,4.2,27.1-2.8,34.6c-7,7.5-20.6,10-25.4,4c-5.4-6.5-5.1-35.8,5.7-43.6
					C1602.2,76.3,1613.9,88.9,1613.9,88.9z"/>
				<path class="st34" d="M1595.5,69.4c8.4,1.7,13.8,6.8,15.8,9c3.8,0.4,9,2.6,14.3,11.4c6.6,10.9,1.7,22.9-5.9,28.8
					c-7.6,5.9-7.5,12.7-7.5,12.7l-1.2-3.5c-0.9-2.7-1.3-5.5-1-8.3c0.2-1.7,0.5-3.5,1.2-5c1.8-3.9-3.9-6.6-5.6-9.9
					c-1.2-2.5-1.3-8.3-3.3-12.5L1600,89c0,0-5.4-4.2-10.7-3C1584,87.2,1584.8,67.2,1595.5,69.4z"/>
				<path class="st6" d="M1606,109.5c-0.1,3.3,1.5,6,3.4,6.1c1.9,0,3.5-2.6,3.6-6c0.1-3.3-1.5-6-3.4-6.1
					C1607.7,103.5,1606.1,106.2,1606,109.5z"/>
			</g>
			<path class="st8" d="M1594.7,117.2l-10.5-0.5c0,0,0,4,4.7,4.4C1594.5,121.5,1594.7,117.2,1594.7,117.2z"/>
			<path class="st40" d="M1696.6,303.2c0-0.3,0-0.5,0-0.8c-0.8-8.4-7.8-78.7-8.9-81.6c-1.1-2.7-32.2-47.3-32.2-47.3l-15.3,20.9
				l30,40c0.7,2.5,11.5,50,11.5,50s2.2,8.6,3.2,13.8c-0.5,1.2-0.9,2.4-1.3,3.4c-1,2.1-2.2,3.8-3.2,5.2c-1.3,1.8-3.6,5.7-3.8,6.8
				c-0.3,1.2-0.9,3.8-1.2,5.3c-0.3,1.5-0.8,3.3-0.8,4.1c0,0.5-0.6,1.5-1,2.2c-0.6,1.1,0.4,2.3,1.6,1.9c1.1-0.4,1.9-1.8,2.5-2.6
				c1.5-2.5,2.3-7,2.6-6.8c0.4,0.2,1.7,7.9,1.9,8.8c0.2,0.9,1.8,9.8,2.6,11.4c0.9,1.6,2,1.4,2.3,0.3c0.3-0.9-1-13.4-1-13.4
				s-0.2-1.6,0.5-1.1c0.7,0.5,1.8,11.8,2.3,13.5c0.5,1.7,1.6,2.5,2.5,1.2c1.1-1.6-0.8-13.6-0.8-13.6s-0.2-1.5,0.4-1.4
				c0.6,0.1,1.5,9.8,2,10.6c0.5,0.8,1.8,1.1,2.4-0.3c0.7-1.6-1.1-12.3-1.1-12.3s0.1-0.9,0.5-0.6c0.4,0.3,1.7,8.5,2.5,9.2
				c0.7,0.6,1.3,0,1.3,0c1.5-1-0.8-8.8-0.8-12.7c0-3.9-1.8-8.2-1.2-12.8C1696.5,304.4,1696.6,303.7,1696.6,303.2z"/>
			<path class="st7" d="M1679.8,201.8l-26.6,17.9c0,0-15-22.3-23.1-30.3c-10.1-10,3.7-40.5,10.2-38.7
				C1654.9,154.5,1679.8,201.8,1679.8,201.8z"/>
		</g>
	</g>
	<g>
		<defs>
			<path id="SVGID_31_" d="M1910.8,377.8c0,31.2-25.3,56.6-56.6,56.6c-31.2,0-56.6-25.3-56.6-56.6c0-31.2,25.3-56.6,56.6-56.6
				C1885.5,321.2,1910.8,346.5,1910.8,377.8z"/>
		</defs>
		<clipPath id="SVGID_32_">
			<use xlink:href="#SVGID_31_"  style="overflow:visible;"/>
		</clipPath>
		<g class="st41">
			<path class="st30" d="M1823.6,424.8c7.9-24,16.7-23,16.7-23l-6.8,50.4c-4.9-1.3-11.2-4.3-16.1-5.7
				C1819,439,1821.6,430.7,1823.6,424.8z"/>
			<path class="st19" d="M1826,362.5c2.4-15.8,16.7-27.1,31.6-19.5c3.4,1.7,7.9,5.2,10.2,8.2c6.3,8,7.9,18,14.3,25.8
				c-2.4,1.8-5.3,3.7-8.7,5.5l-4-5.4l1.4,6.7c-10,4.8-24.2,8.7-43.5,8.6C1824.9,381.5,1824.7,370.9,1826,362.5z"/>
			<path class="st3" d="M1860.5,397.5c0,0,12.8-1.7,18.6,4.6c5.8,6.3-11,56.8-12.1,64.8c-1,8,7.4,28.1,7.4,28.1s-36.7,6.9-46.5,0.4
				c0,0-0.6-56.4,0.5-62.1c1-5.7,9.8-29,11.9-31.3C1842.4,399.8,1860.5,397.5,1860.5,397.5z"/>
			<path class="st6" d="M1855.7,378c0,0,0.1,0.4,0.2,1.2c0.6,3.5,3.1,15.1,4.8,18.3c2,3.9-7,16.2-15.7,14.7
				c-2.6-0.4,2.2-11.3,2-12.5c-0.4-2.2-1-5.2-1.6-8.3c-0.3-1.7-0.7-3.5-1-5.2c-0.9-4.7-1.7-8.6-1.7-8.6L1855.7,378z"/>
			<path class="st42" d="M1855.9,379.2c-0.1-0.7-0.2-1.2-0.2-1.2l-13-0.3c0,0,0.8,3.9,1.7,8.6c0.3,1.6,0.7,3.4,1,5.1
				c2-0.3,4.1-1.3,6.2-3.1c2.3-2,3.8-4.4,4.7-7C1856.1,380.5,1856,379.7,1855.9,379.2z"/>
			<path class="st6" d="M1846.9,348.4c0,0,6.1-0.7,10,4.3c3.8,5,8,20.4-1.6,28.8c-9.6,8.4-19-1.1-20.4-11.2
				C1833.6,360.2,1833,348,1846.9,348.4z"/>
			<path class="st6" d="M1832.1,370.1c1.1,2.2,3.1,3.5,4.3,2.7c1.2-0.7,1.3-3.1,0.1-5.3c-1.1-2.2-3.1-3.5-4.3-2.7
				C1831.1,365.5,1831,367.9,1832.1,370.1z"/>
			<path class="st19" d="M1846.2,346.7c0,0,8.2,14.7,14.1,15.3c5.9,0.7,6.6,8.5,6.6,8.5s-2.1-18-7.9-21.4
				C1853.2,345.7,1846.2,346.7,1846.2,346.7z"/>
			<path class="st6" d="M1858.8,365.8c-0.5,2.6,0.5,5,2.1,5.3c1.7,0.3,3.4-1.5,3.9-4.1c0.5-2.6-0.5-5-2.1-5.3
				C1861,361.3,1859.3,363.2,1858.8,365.8z"/>
			<path class="st8" d="M1851.5,375.2l-8.9,1.7c0,0,0.9,3.3,4.8,2.7C1852.3,378.8,1851.5,375.2,1851.5,375.2z"/>
			<path class="st30" d="M1876.8,400.4c0,0,4.8,2.3,9.1,12.2c4,9.4,5.2,56.5,5.2,56.5l-17.6-2.9l-6.6-21.7c-2-8.6-4.3-28.4,4.2-40
				C1873.4,401.4,1875.4,399.5,1876.8,400.4z"/>
		</g>
	</g>
	<g>
		<defs>
			<path id="SVGID_33_" d="M343,666.3c0,36.7-29.8,66.5-66.5,66.5c-36.7,0-66.5-29.8-66.5-66.5c0-36.7,29.8-66.5,66.5-66.5
				C313.3,599.8,343,629.6,343,666.3z"/>
		</defs>
		<clipPath id="SVGID_34_">
			<use xlink:href="#SVGID_33_"  style="overflow:visible;"/>
		</clipPath>
		<g class="st43">
			<path class="st19" d="M308.4,656.8c0.4-9.3-1-18.4-5.1-27.1c-3.6-7.4-12.4-11.6-20.5-11.7c-25.6,0-28.8,33.8-45.1,46.8
				c-5,4-10.5,7.2-15.2,11.5c-17.4,15.9-9.6,45.2,6.4,59.1c11.1,9.7,28.5,15.1,42.1,7.6c7.1-3.9,12.5-10.5,16.4-17.7
				c5.5-10.2,9-21.9,12.9-32.8C304.4,681.2,307.9,669.2,308.4,656.8z"/>
			<path class="st7" d="M298.8,742.2c0,0-19.1-19.6-24-28.1c-4.9-8.5,3.3-3,11.8-5.2c3.2-0.8,2.4-19.6,8.4-13.5
				c9.9,10,22.4,27.5,22.4,27.5L298.8,742.2z"/>
			<path class="st39" d="M271.6,686.8c0,0-17.1-3.4-25,3.2c-7.8,6.5,1.7,64.7,1.7,74.3c0,9.6-5.4,34.8-5.4,34.8s52,11.2,60.2-3.3
				c0,0,2.3-55.1,2-62c-0.3-6.9-8.1-35.3-10.2-38.3C292.9,692.4,271.6,686.8,271.6,686.8z"/>
			<path class="st6" d="M271.5,660.3c0,0-0.1,0.5-0.3,1.4c-0.8,4.2-3.8,18.1-5.8,21.9c-2.4,4.6,8.4,19.3,18.8,17.5
				c3.1-0.5-2.6-13.5-2.3-14.9c0.5-2.6,1.2-6.2,2-9.9c0.4-2.1,0.8-4.2,1.2-6.2c1.1-5.6,2-10.2,2-10.2L271.5,660.3z"/>
			<path class="st7" d="M271.3,661.7c0.2-0.9,0.3-1.4,0.3-1.4l15.6-0.4c0,0-0.9,4.6-2,10.2c-0.4,2-0.8,4.1-1.2,6.1
				c-2.4-0.4-4.9-1.5-7.4-3.7c-2.8-2.4-4.6-5.3-5.6-8.4C271,663.2,271.1,662.3,271.3,661.7z"/>
			<path class="st6" d="M282,624.9c0,0-7.4-0.8-12,5.1c-4.6,5.9-9.6,24.3,1.9,34.3c11.4,10,22.8-1.3,24.4-13.3
				C298,639,298.7,624.5,282,624.9z"/>
			<path class="st19" d="M293.5,621.9c0,0-14.3,20.5-28,17.8l-0.4-8.8l1.3-3.3l6.9-4.4l11.2-2.6L293.5,621.9z"/>
			<path class="st6" d="M299.8,650.8c-1.4,2.7-3.7,4.1-5.1,3.3c-1.5-0.8-1.5-3.7-0.2-6.3c1.4-2.7,3.7-4.1,5.1-3.3
				C301,645.4,301.1,648.2,299.8,650.8z"/>
			<path class="st6" d="M267.8,645.6c0.6,3.1-0.6,6-2.6,6.4c-2,0.4-4.1-1.8-4.6-4.9c-0.6-3.1,0.6-6,2.6-6.4
				C265.2,640.3,267.3,642.5,267.8,645.6z"/>
			<path class="st8" d="M286.4,657.7l-10.8-0.6c0,0,0,4.1,4.8,4.5C286.2,662.1,286.4,657.7,286.4,657.7z"/>
			<path class="st8" d="M286.4,657.7l-10.8-0.6c0,0,0,4.1,4.8,4.5C286.2,662.1,286.4,657.7,286.4,657.7z"/>
			<path class="st7" d="M253.1,741.5c0,0-11.3-24.9-13-34.6c-1.7-9.7,6.6-21.8,15.3-21.1c8.7,0.8,21.7,43.9,21.7,43.9L253.1,741.5z"
				/>
		</g>
	</g>
</g>
</svg>
