<svg id="Layer_1" data-name="Layer 1" xmlns="http://www.w3.org/2000/svg" xmlns:xlink="http://www.w3.org/1999/xlink" viewBox="0 0 1991.93 837.69"><defs><style>.cls-1{fill:none;}.cls-2{fill:#9bc1f9;}.cls-3{fill:#e6e6e6;}.cls-4{clip-path:url(#clip-path);}.cls-5{fill:#13375b;}.cls-6{fill:#96d9c9;}.cls-7{fill:#50bfa5;}.cls-8{fill:#f7a491;}.cls-44,.cls-9{fill:#f47458;}.cls-10{fill:#fff;}.cls-11{clip-path:url(#clip-path-2);}.cls-12{fill:#f29383;}.cls-13{fill:#c24c32;}.cls-14{clip-path:url(#clip-path-3);}.cls-15{fill:#bf7154;}.cls-16{fill:#a85d42;}.cls-17{clip-path:url(#clip-path-4);}.cls-18{fill:#c5dbfc;}.cls-19{fill:#f5866e;}.cls-20{clip-path:url(#clip-path-5);}.cls-21{fill:#f7cc7f;}.cls-22{clip-path:url(#clip-path-6);}.cls-23{fill:#466eb6;}.cls-24{fill:#184655;}.cls-25{fill:#f48c7f;}.cls-26{clip-path:url(#clip-path-7);}.cls-27{fill:#a3573c;}.cls-28{clip-path:url(#clip-path-8);}.cls-29{clip-path:url(#clip-path-9);}.cls-30{clip-path:url(#clip-path-10);}.cls-31{clip-path:url(#clip-path-11);}.cls-32{fill:#47637f;}.cls-33{clip-path:url(#clip-path-12);}.cls-34{clip-path:url(#clip-path-13);}.cls-35{fill:#8ca5d2;}.cls-36{fill:#0e2e35;}.cls-37{clip-path:url(#clip-path-14);}.cls-38{fill:#fadfae;}.cls-39{fill:#96482a;}.cls-40{clip-path:url(#clip-path-15);}.cls-41{fill:#b75742;}.cls-42{fill:#f8a492;}.cls-43{clip-path:url(#clip-path-16);}.cls-44{opacity:0.5;}.cls-45{clip-path:url(#clip-path-17);}</style><clipPath id="clip-path" transform="translate(44 -6.65)"><circle class="cls-1" cx="1266.33" cy="91.17" r="84.52" transform="translate(1141.89 1354.66) rotate(-88.49)"/></clipPath><clipPath id="clip-path-2" transform="translate(44 -6.65)"><circle class="cls-1" cx="846.19" cy="328.98" r="88.26" transform="translate(385.92 1111.54) rotate(-80.78)"/></clipPath><clipPath id="clip-path-3" transform="translate(44 -6.65)"><path class="cls-1" d="M974.91,145.85a47.62,47.62,0,1,0,47.62-47.62A47.62,47.62,0,0,0,974.91,145.85Z"/></clipPath><clipPath id="clip-path-4" transform="translate(44 -6.65)"><circle class="cls-1" cx="1527.32" cy="359.51" r="95.25" transform="translate(-32.9 525.82) rotate(-19.33)"/></clipPath><clipPath id="clip-path-5" transform="translate(44 -6.65)"><circle class="cls-1" cx="1790.22" cy="635.87" r="66.04"/></clipPath><clipPath id="clip-path-6" transform="translate(44 -6.65)"><circle class="cls-1" cx="1154.17" cy="364.84" r="55.17" transform="translate(597.7 1439.81) rotate(-80.17)"/></clipPath><clipPath id="clip-path-7" transform="translate(44 -6.65)"><circle class="cls-1" cx="101.99" cy="433.38" r="83.18" transform="translate(-107.82 40.7) rotate(-14.87)"/></clipPath><clipPath id="clip-path-8" transform="translate(44 -6.65)"><path class="cls-1" d="M513.25,100a68.66,68.66,0,1,0,68.66-68.66A68.66,68.66,0,0,0,513.25,100Z"/></clipPath><clipPath id="clip-path-9" transform="translate(44 -6.65)"><circle class="cls-1" cx="913.14" cy="564.79" r="40.3" transform="translate(-146.63 392.43) rotate(-22.5)"/></clipPath><clipPath id="clip-path-10" transform="translate(44 -6.65)"><path class="cls-1" d="M1371.58,634a48.62,48.62,0,1,0,48.62-48.62A48.62,48.62,0,0,0,1371.58,634Z"/></clipPath><clipPath id="clip-path-11" transform="translate(44 -6.65)"><circle class="cls-1" cx="1154.17" cy="636.3" r="98.95" transform="translate(124.62 1459.12) rotate(-67.5)"/></clipPath><clipPath id="clip-path-12" transform="translate(44 -6.65)"><path class="cls-1" d="M148.74,153.23A58.3,58.3,0,1,0,207,94.93,58.3,58.3,0,0,0,148.74,153.23Z"/></clipPath><clipPath id="clip-path-13" transform="translate(44 -6.65)"><circle class="cls-1" cx="452.15" cy="359.45" r="93.35" transform="matrix(1, -0.07, 0.07, 1, -24.34, 32.96)"/></clipPath><clipPath id="clip-path-14" transform="translate(44 -6.65)"><circle class="cls-1" cx="677.57" cy="617.75" r="48.52" transform="translate(-238.36 660.05) rotate(-45)"/></clipPath><clipPath id="clip-path-15" transform="translate(44 -6.65)"><circle class="cls-1" cx="1605" cy="118.03" r="65.93" transform="translate(1026.93 1619.96) rotate(-73.15)"/></clipPath><clipPath id="clip-path-16" transform="translate(44 -6.65)"><path class="cls-1" d="M1910.83,377.79a56.57,56.57,0,1,1-56.57-56.57A56.57,56.57,0,0,1,1910.83,377.79Z"/></clipPath><clipPath id="clip-path-17" transform="translate(44 -6.65)"><path class="cls-1" d="M343,666.3a66.48,66.48,0,1,1-66.48-66.48A66.47,66.47,0,0,1,343,666.3Z"/></clipPath></defs><title>bg-1-init</title><rect class="cls-2" x="986.37" y="189.49" width="3.01" height="316.42" transform="matrix(0.13, -0.99, 0.99, 0.13, 561.64, 1276.82)"/><polygon class="cls-2" points="877.39 354.22 878.81 351.58 443.68 117.28 617.62 74.02 616.89 71.1 435.41 116.24 877.39 354.22"/><rect class="cls-2" x="404.23" y="237.13" width="3.01" height="600.62" transform="translate(-188.88 744.4) rotate(-71.44)"/><polygon class="cls-2" points="1832.51 640.57 1834.65 638.46 1551.38 348.89 1551.11 348.77 1066.75 139.73 899.61 115.28 899.17 118.25 1066.12 142.67 1549.65 351.41 1832.51 640.57"/><polygon class="cls-2" points="929.75 709.37 951.36 554.05 950.25 553.63 703.89 456.93 483.89 363.11 482.71 365.87 702.75 459.7 948.05 555.99 926.77 708.96 929.75 709.37"/><polygon class="cls-2" points="913.11 710.5 914.5 707.83 717.23 604.71 717.23 444.95 515.29 615.38 158.43 440.18 524.86 340 525.15 339.34 636 88.48 894.25 118.08 869.63 320.87 872.62 321.23 897.6 115.44 896.09 115.27 634.14 85.24 633.7 86.26 522.69 337.48 149.97 439.38 515.73 618.95 516.48 618.32 714.22 451.42 714.22 606.53 913.11 710.5"/><polygon class="cls-2" points="1535.79 368.81 1535.85 365.8 1200.25 358.96 1295.61 76.26 1292.76 75.3 1196.09 361.89 1535.79 368.81"/><polygon class="cls-2" points="1962.33 550.83 1963.78 548.18 1583.32 339.73 1336.23 117.16 1334.22 119.39 1581.59 342.17 1962.33 550.83"/><rect class="cls-2" x="1693.49" y="541.74" width="3.01" height="201.52" transform="translate(556.93 2010.09) rotate(-70.06)"/><rect class="cls-2" x="1415.53" y="626.88" width="187.84" height="3.01" transform="translate(-66.26 398.46) rotate(-14.75)"/><rect class="cls-2" x="1197.33" y="657.4" width="211.42" height="3" transform="translate(1.1 86.11) rotate(-4.01)"/><polygon class="cls-2" points="1047.44 430.99 1047.92 430.95 1507.73 393.69 1507.49 390.7 1048.15 427.92 907.21 344.23 905.68 346.81 1047.44 430.99"/><polygon class="cls-2" points="1151.2 629.22 1153.84 627.78 1047.99 432.26 955.93 557.25 958.35 559.03 1047.6 437.86 1151.2 629.22"/><polygon class="cls-2" points="876 334.94 1058.47 149.14 1310.74 77.23 1309.91 74.34 1056.89 146.47 1056.61 146.75 873.86 332.84 876 334.94"/><rect class="cls-2" x="315.26" y="234.62" width="3.01" height="186.73" transform="translate(-23.06 567.5) rotate(-78.67)"/><polygon class="cls-2" points="311.14 672.27 312.19 669.45 149.16 609.09 149.16 424.49 281.64 321.61 281.35 320.63 226.08 133.3 223.19 134.15 278.18 320.49 146.15 423.02 146.15 611.17 311.14 672.27"/><rect class="cls-2" x="81.24" y="506.17" width="377.33" height="3.01" transform="translate(-184.85 214.97) rotate(-32.17)"/><rect class="cls-2" x="1363.46" y="27.91" width="3" height="205.96" transform="translate(891.03 1393.89) rotate(-73.29)"/><rect class="cls-2" x="1020.69" y="512.07" width="276.98" height="3.01" transform="translate(648 1646.77) rotate(-87.93)"/><polygon class="cls-2" points="726.53 641.83 846.35 299.79 843.52 298.79 723.69 640.83 726.53 641.83"/><rect class="cls-2" x="323.96" y="71.78" width="3.01" height="343.47" transform="translate(-29.9 312.55) rotate(-47.54)"/><path class="cls-2" d="M99.76,445.65V619.49L268.55,682l2.71-7.3L107.55,614.07v-5.66l2.7,4.28,144.56-90.92L472.08,628.44,474,626.8l52.77-44.54,155,52.12-5.1,14.56,7.35,2.59,5.13-14.67,2.28.77,2.48-7.39-2.18-.73.71-2,177.71,92.89,3.6-6.91L695,620.05l42.16-120.34,164.24,64.47L880.07,717.65l7.72,1.07,21.4-153.87,5.66,4.18L1003.29,449l103,190.15,6.85-3.71L1007.16,439.74l151.24-12.26-8.21,226.75,7.79.27,8.24-227.65,300.09-24.31-.63-7.77L1166.5,419l1.67-46.09-7.79-.27-1.7,47-154,12.48L862.37,347.6l-4,6.7L1001,439,909.41,563.27l.58-4.11L907.12,558,739.76,492.36l52.81-150.75,41.79,22.5,3.7-6.85-42.88-23.09L805.4,305l-7.35-2.59-9.82,28L547.84,201,593.48,97.71l254.11,29.12L823,329.6l5.23.64-.13,1,5.79.74-7.38,7.52L832,345l11.52-11.73,303.13,38.62,1-7.73L850.42,326.25l165.32-168.33,12.2-3.48,169.2,73.05-48.36,143.37,345.35,7,.15-7.79-334.72-6.82,44.76-132.7,300,129.48,25.22,25.79-108.4,239.68-95.25-170.78L1167.47,672.27l6.54,4.23,150.83-205.88L1421.31,644l114-252.11L1788.47,650.6l5.57-5.45L1538.79,384.22l4.35-9.63L1536,371.4l-3.09,6.84-24.17-24.71-302-130.32,44.69-132.5,18.19-5.19L1267.56,78l-13,3.72.11-.34-7.38-2.49-1.83,5.42-217,61.87-5-2.15L853.59,119.21l-.07.46-1.16-.13L588.66,89.31l-1.15,2.63L541,197.28l-134.7-72.52L576.52,82.41l-1.89-7.56L384.82,122.06l153,82.37L477,342.12l-29.24,8-248.08-227-5.27,5.75L438.83,352.54,124.07,438.6l-4-1.35-.91,2.69-11.61,3.18V432.31L240.4,329.14l-.75-2.54-3.16-10.7,173.4,34.71,1.53-7.64L234,307.45,183.7,137l-7.48,2.2,49.14,166.54-1.73-.35L222.1,313l5.76,1.15,3.56,12.08L99.76,428.5v16.75l-.53.14ZM1039.7,151.09,1242.4,93.3l-42.77,126.81ZM855.37,127.34l158.06,23.13-1.81.52-.73.75L840.72,325l-9.2-1.17ZM123.82,446.74l153.54,51.64-23,14.47L121.16,447.47ZM732.5,489.51l-56.88-22.33V446.45L658.9,460.56,438.63,366.62l-3.06,7.16,216.67,92.4L525.11,573.48,295.42,496.23l138.29-87-4.15-6.6L285.88,493l-148.56-50,308.31-84.29,5.66,5.18,5.26-5.75-2-1.86,28.08-7.67.74-1.71,61.34-138.81L785.62,337.87Zm-64.67-26.29v.9l-.73-.28ZM688,616.41l-12.42-6.5V475.55l54.3,21.31Zm-154.29-40L660.33,469.55l7.5,2.94V614.63l17.61,9.21L684.33,627ZM262.56,516.89l24.34-15.3,231.24,77.77-47.2,39.84Zm-155-67.42,139,68.26-139,87.44Z" transform="translate(44 -6.65)"/><polygon class="cls-2" points="1954.35 549.18 1602.13 356.15 1568.59 356.74 1568.45 348.94 1588.34 348.6 1580.19 344.13 1571.14 335.98 1564.66 353.47 1557.35 350.76 1564.91 330.36 1330.84 119.57 1336.06 113.78 1567.81 322.54 1655.96 84.56 1663.27 87.27 1574.04 328.15 1584.71 337.76 1603.98 348.32 1903.13 364.01 1903.27 371.81 1617.77 355.88 1952.39 539.22 1894.44 368.66 1902.09 367.16 1961.29 544.09 1967.03 547.23 1963.28 554.08 1963.25 554.05 1967.39 575.12 1859.67 644.5 1855.45 637.95 1958.72 571.44 1954.35 549.18"/><polygon class="cls-2" points="1646.87 598.26 1837.28 667.39 1834.62 674.72 1640.7 604.31 1641.31 602.63 1461.3 650.03 1459.33 642.49 1645.6 593.44 1646.87 598.26"/><rect class="cls-2" x="1194.94" y="655.01" width="216.2" height="7.79" transform="translate(1.1 86.11) rotate(-4.01)"/><rect class="cls-2" x="1361.07" y="25.51" width="7.79" height="210.75" transform="matrix(0.29, -0.96, 0.96, 0.29, 891.53, 1394.09)"/><rect class="cls-2" x="1426.77" y="224.16" width="279.09" height="3.01" transform="translate(854.59 1609.39) rotate(-69.67)"/><circle class="cls-3" cx="581.91" cy="99.6" r="77.43" transform="translate(235.26 535.58) rotate(-58.28)"/><circle class="cls-3" cx="276.56" cy="666.3" r="78.39" transform="translate(-381.43 825.91) rotate(-80.78)"/><path class="cls-3" d="M1211.58,367.08a57.41,57.41,0,1,1-57.41-57.42A57.41,57.41,0,0,1,1211.58,367.08Z" transform="translate(44 -6.65)"/><circle class="cls-3" cx="1526.91" cy="359.45" r="107.41" transform="translate(3.16 299.78) rotate(-11.31)"/><circle class="cls-3" cx="1022.53" cy="147.87" r="50.33" transform="translate(52.7 340.15) rotate(-19.33)"/><circle class="cls-3" cx="1605" cy="118.03" r="73.13" transform="translate(1373.39 1696.94) rotate(-84.34)"/><circle class="cls-3" cx="251.04" cy="145.13" r="64.95"/><circle class="cls-3" cx="839.2" cy="335.97" r="95.25" transform="translate(441.04 1117.75) rotate(-82.53)"/><circle class="cls-3" cx="103.66" cy="436.1" r="88.88" transform="translate(-300.6 430.14) rotate(-76.72)"/><path class="cls-3" d="M1916.65,379.11a63,63,0,1,1-63-63A63,63,0,0,1,1916.65,379.11Z" transform="translate(44 -6.65)"/><circle class="cls-3" cx="913.14" cy="564.79" r="43.33" transform="translate(197.66 1317.09) rotate(-76.72)"/><path class="cls-3" d="M1476,634.75a54.82,54.82,0,1,1-54.82-54.82A54.82,54.82,0,0,1,1476,634.75Z" transform="translate(44 -6.65)"/><circle class="cls-3" cx="1266.33" cy="94.54" r="87.89" transform="translate(939.03 1302.24) rotate(-77.27)"/><g class="cls-4"><path class="cls-5" d="M1306.76,79.14c.49-11.8-1.25-23.44-6.53-34.43-4.54-9.44-15.77-14.8-26-14.82-32.53,0-36.66,42.94-57.37,59.52-6.33,5.07-13.4,9.19-19.39,14.66-22.11,20.17-12.15,57.51,8.15,75.2,14.09,12.27,36.23,19.25,53.59,9.65,9.07-5,16-13.33,20.85-22.45,7-12.95,11.44-27.88,16.39-41.68C1301.69,110.1,1306.11,94.81,1306.76,79.14Z" transform="translate(44 -6.65)"/><path class="cls-6" d="M1294.59,187.7S1270.3,162.79,1264,152s4.26-3.77,15-6.62c4.06-1.08,3-24.9,10.72-17.16,12.61,12.7,28.46,34.92,28.46,34.92Z" transform="translate(44 -6.65)"/><path class="cls-7" d="M1260.05,117.25s-21.8-4.3-31.75,4,2.13,82.22,2.12,94.47-6.83,44.25-6.83,44.25,66.08,14.19,76.58-4.2c0,0,3-70.08,2.54-78.89s-10.24-44.85-13-48.71S1260.05,117.25,1260.05,117.25Z" transform="translate(44 -6.65)"/><path class="cls-8" d="M1259.91,83.53s-.11.65-.32,1.76c-1,5.32-4.8,23-7.37,27.83-3.11,5.86,10.65,24.57,23.88,22.28,3.94-.67-3.33-17.18-3-18.93.67-3.35,1.58-7.92,2.51-12.6.52-2.64,1-5.32,1.55-7.83,1.41-7.16,2.57-13,2.57-13Z" transform="translate(44 -6.65)"/><path class="cls-9" d="M1259.59,85.29c.21-1.11.32-1.76.32-1.76l19.84-.5s-1.16,5.85-2.57,13c-.5,2.5-1,5.16-1.55,7.79a18.63,18.63,0,0,1-9.47-4.74A25,25,0,0,1,1259,88.44C1259.23,87.19,1259.44,86.11,1259.59,85.29Z" transform="translate(44 -6.65)"/><path class="cls-8" d="M1273.26,38.53s-9.35-1.08-15.21,6.49-12.17,30.95,2.38,43.67,28.94-1.68,31.08-16.94S1294.47,38,1273.26,38.53Z" transform="translate(44 -6.65)"/><path class="cls-5" d="M1287.84,34.69s-18.23,26.11-35.58,22.61l-.48-11.14,1.6-4.22,8.79-5.64L1276.46,33Z" transform="translate(44 -6.65)"/><path class="cls-8" d="M1295.81,71.53c-1.73,3.37-4.65,5.23-6.51,4.16s-2-4.66-.22-8,4.65-5.24,6.51-4.17S1297.55,68.15,1295.81,71.53Z" transform="translate(44 -6.65)"/><path class="cls-8" d="M1255.23,64.89c.72,4-.74,7.58-3.27,8.09s-5.17-2.26-5.89-6.21.73-7.57,3.26-8.09S1254.5,60.94,1255.23,64.89Z" transform="translate(44 -6.65)"/><path class="cls-10" d="M1278.89,80.29l-13.72-.71s0,5.22,6.07,5.71C1278.59,85.88,1278.89,80.29,1278.89,80.29Z" transform="translate(44 -6.65)"/><path class="cls-10" d="M1278.89,80.29l-13.72-.71s0,5.22,6.07,5.71C1278.59,85.88,1278.89,80.29,1278.89,80.29Z" transform="translate(44 -6.65)"/><path class="cls-6" d="M1236.51,186.83s-14.3-31.72-16.48-44,8.39-27.76,19.45-26.77,27.65,55.76,27.65,55.76Z" transform="translate(44 -6.65)"/></g><circle class="cls-3" cx="452.15" cy="359.45" r="100.21" transform="translate(42.43 710.27) rotate(-76.72)"/><path class="cls-3" d="M733.93,619a54.24,54.24,0,1,1-54.24-54.23A54.23,54.23,0,0,1,733.93,619Z" transform="translate(44 -6.65)"/><circle class="cls-3" cx="1154.17" cy="643.18" r="105.82" transform="translate(13.39 51.64) rotate(-2.86)"/><path class="cls-3" d="M1859.5,637.78a69,69,0,1,1-69-69A69,69,0,0,1,1859.5,637.78Z" transform="translate(44 -6.65)"/><path class="cls-3" d="M1296.47,466.86A28.87,28.87,0,1,0,1325.34,438,28.87,28.87,0,0,0,1296.47,466.86Z" transform="translate(44 -6.65)"/><path class="cls-3" d="M1446.43,160.47a17.18,17.18,0,1,0,17.18-17.18A17.18,17.18,0,0,0,1446.43,160.47Z" transform="translate(44 -6.65)"/><circle class="cls-3" cx="1600.28" cy="608.12" r="24.77" transform="translate(470.05 1847.22) rotate(-67.5)"/><path class="cls-3" d="M830.93,123.41A24.46,24.46,0,1,0,855.39,99,24.46,24.46,0,0,0,830.93,123.41Z" transform="translate(44 -6.65)"/><circle class="cls-3" cx="395.54" cy="123.41" r="23.68" transform="translate(72.59 309.19) rotate(-45)"/><path class="cls-3" d="M645.21,465a28.87,28.87,0,1,0,28.87-28.88A28.88,28.88,0,0,0,645.21,465Z" transform="translate(44 -6.65)"/><path class="cls-3" d="M855.39,715.81a28.88,28.88,0,1,0,28.87-28.87A28.87,28.87,0,0,0,855.39,715.81Z" transform="translate(44 -6.65)"/><path class="cls-3" d="M985.06,436.1a18.74,18.74,0,1,0,18.74-18.73A18.74,18.74,0,0,0,985.06,436.1Z" transform="translate(44 -6.65)"/><path class="cls-3" d="M452.15,623.82a19.36,19.36,0,1,0,19.36-19.35A19.36,19.36,0,0,0,452.15,623.82Z" transform="translate(44 -6.65)"/><circle class="cls-3" cx="103.66" cy="616.78" r="28.87" transform="translate(0.54 2.25) rotate(-4.07)"/><path class="cls-3" d="M207,309.66a28.87,28.87,0,1,0,28.87-28.87A28.88,28.88,0,0,0,207,309.66Z" transform="translate(44 -6.65)"/><path class="cls-3" d="M1890.18,564.79a28.88,28.88,0,1,0,28.88-28.87A28.87,28.87,0,0,0,1890.18,564.79Z" transform="translate(44 -6.65)"/><g class="cls-11"><path class="cls-5" d="M815.63,274.42c24.17-12.84,52.35-1.33,54.46,32.4s-21.69,45.61-44.55,43.38S780.21,288.58,815.63,274.42Z" transform="translate(44 -6.65)"/><path class="cls-5" d="M830.21,364a24,24,0,1,0,24-24.05A24.05,24.05,0,0,0,830.21,364Z" transform="translate(44 -6.65)"/><path class="cls-12" d="M802.65,377.84,720.52,375s-64-20-66-20.56-11.78-26.17-14.38-24,5.67,12.83,2.33,14.74-34.58-8.32-34.52-5.79c.1,4.75,18.88,7,18.53,9.26s-19.38-4.26-21.26-.76,18.57,4.4,19.13,6.18-19.37,1.81-17.89,5.56c.8,2,17.71-.47,17.25,2.07s-13.13,6.52-12,8.78,10.19-4.82,17-3.87,12.32-2,22.77,2.79,45.35,26.18,68.83,28.62S795.75,406,795.75,406Z" transform="translate(44 -6.65)"/><path class="cls-13" d="M818.28,374.09c45,2.1,5.43,39.75,5.43,39.75l-66.44-9.43c-2-13.25,1.41-29.06,1.57-32.59C772.64,371,807.21,373.57,818.28,374.09Z" transform="translate(44 -6.65)"/><path class="cls-9" d="M853.05,366.89s19.32-.34,29.6,10.88-16.15,98.69-18,113S874.15,543,874.15,543s-61,12.3-78.43.74c0,0-1.87-102.71,0-112.92s17.43-51.69,21.17-55.77S853.05,366.89,853.05,366.89Z" transform="translate(44 -6.65)"/><path class="cls-8" d="M844.4,332.12l.38,2.07c1.16,6.25,5.61,27,8.63,32.72,3.64,6.89-12.46,28.89-28,26.21-4.61-.8,3.9-20.21,3.49-22.27-.79-3.94-1.85-9.31-2.93-14.81-.62-3.11-1.24-6.25-1.82-9.22-1.66-8.41-3-15.28-3-15.28Z" transform="translate(44 -6.65)"/><path class="cls-9" d="M844.78,334.19l-.38-2.07-23.22-.58s1.35,6.87,3,15.28c.58,2.95,1.2,6.08,1.81,9.17a21.76,21.76,0,0,0,11.08-5.57,29.37,29.37,0,0,0,8.4-12.52C845.2,336.43,845,335.16,844.78,334.19Z" transform="translate(44 -6.65)"/><path class="cls-8" d="M828.77,279.21s11-1.27,17.81,7.63,14.26,36.4-2.79,51.35-33.88-2-36.38-19.92S803.94,278.56,828.77,279.21Z" transform="translate(44 -6.65)"/><path class="cls-8" d="M802.37,318c2,4,5.45,6.16,7.63,4.91s2.29-5.49.26-9.45-5.45-6.16-7.63-4.91S800.33,314,802.37,318Z" transform="translate(44 -6.65)"/><path class="cls-5" d="M827.55,276.27s14.62,26.16,25.08,27.36,11.84,15.11,11.84,15.11-3.74-32-14.1-38.2S827.55,276.27,827.55,276.27Z" transform="translate(44 -6.65)"/><path class="cls-8" d="M849.89,310.21c-.85,4.64.86,8.9,3.82,9.51s6-2.66,6.9-7.31-.86-8.9-3.82-9.51S850.74,305.56,849.89,310.21Z" transform="translate(44 -6.65)"/><path class="cls-13" d="M827.12,455.55s47.21-24.19,57.62-37.08,8.12-37.58-5.29-43.51-68,48.7-68,48.7Z" transform="translate(44 -6.65)"/></g><g class="cls-14"><path class="cls-5" d="M1039,116.42c-13-6.93-28.24-.73-29.38,17.47s11.7,24.62,24,23.41S1058.13,124.05,1039,116.42Z" transform="translate(44 -6.65)"/><path class="cls-5" d="M1017.5,146.18a6.2,6.2,0,1,1-6.2-6.2A6.2,6.2,0,0,1,1017.5,146.18Z" transform="translate(44 -6.65)"/><path class="cls-5" d="M1023.69,152.05a6.2,6.2,0,1,1-6.2-6.2A6.2,6.2,0,0,1,1023.69,152.05Z" transform="translate(44 -6.65)"/><path class="cls-5" d="M1031.83,156.5a6.2,6.2,0,1,1-6.2-6.2A6.2,6.2,0,0,1,1031.83,156.5Z" transform="translate(44 -6.65)"/><path class="cls-5" d="M1014.78,136a6.2,6.2,0,1,1-6.2-6.2A6.2,6.2,0,0,1,1014.78,136Z" transform="translate(44 -6.65)"/><path class="cls-5" d="M1016.91,125.32a6.2,6.2,0,1,1-6.2-6.2A6.2,6.2,0,0,1,1016.91,125.32Z" transform="translate(44 -6.65)"/><path class="cls-5" d="M1024.08,118.54a6.2,6.2,0,1,1-6.2-6.2A6.21,6.21,0,0,1,1024.08,118.54Z" transform="translate(44 -6.65)"/><path class="cls-5" d="M1033.56,115.72a6.2,6.2,0,1,1-6.2-6.19A6.19,6.19,0,0,1,1033.56,115.72Z" transform="translate(44 -6.65)"/><path class="cls-5" d="M1043.44,116.5a6.2,6.2,0,1,1-6.2-6.2A6.21,6.21,0,0,1,1043.44,116.5Z" transform="translate(44 -6.65)"/><path class="cls-5" d="M1050.79,124.24a6.2,6.2,0,1,1-6.19-6.2A6.19,6.19,0,0,1,1050.79,124.24Z" transform="translate(44 -6.65)"/><path class="cls-5" d="M1050.6,144a6.2,6.2,0,1,1-6.2-6.2A6.19,6.19,0,0,1,1050.6,144Z" transform="translate(44 -6.65)"/><path class="cls-5" d="M1044.41,153.29a6.2,6.2,0,1,1-6.2-6.2A6.21,6.21,0,0,1,1044.41,153.29Z" transform="translate(44 -6.65)"/><path class="cls-5" d="M1053.12,133.54a6.2,6.2,0,1,1-6.2-6.2A6.21,6.21,0,0,1,1053.12,133.54Z" transform="translate(44 -6.65)"/><path class="cls-5" d="M1035.89,155.61a6.2,6.2,0,1,1-6.2-6.2A6.21,6.21,0,0,1,1035.89,155.61Z" transform="translate(44 -6.65)"/><path class="cls-12" d="M1046,172.22l44.32-1.53s34.53-10.79,35.59-11.09,6.37-14.12,7.77-12.94-3.06,6.92-1.26,8,18.65-4.5,18.62-3.13c0,2.56-10.18,3.79-10,5s10.45-2.3,11.47-.41-10,2.37-10.32,3.33,10.45,1,9.65,3c-.43,1.1-9.56-.25-9.31,1.11s7.08,3.53,6.47,4.74-5.5-2.59-9.21-2.08-6.64-1.09-12.28,1.5-24.47,14.13-37.14,15.44-40.65,4.29-40.65,4.29Z" transform="translate(44 -6.65)"/><path class="cls-13" d="M1037.59,170.19c-24.26,1.13-2.93,21.45-2.93,21.45l35.85-5.09c1.08-7.15-.76-15.68-.85-17.58C1062.22,168.51,1043.57,169.91,1037.59,170.19Z" transform="translate(44 -6.65)"/><path class="cls-9" d="M1018.83,166.31s-10.42-.19-16,5.87,8.71,53.25,9.72,60.95-5.14,28.2-5.14,28.2,32.92,6.64,42.32.4c0,0,1-55.42,0-60.92s-9.4-27.9-11.42-30.1S1018.83,166.31,1018.83,166.31Z" transform="translate(44 -6.65)"/><path class="cls-15" d="M1023.5,147.54l-.21,1.12c-.62,3.38-3,14.58-4.65,17.66-2,3.72,6.72,15.59,15.08,14.14,2.49-.43-2.1-10.91-1.88-12,.42-2.12,1-5,1.58-8,.33-1.67.67-3.37,1-5,.9-4.54,1.63-8.25,1.63-8.25Z" transform="translate(44 -6.65)"/><path class="cls-16" d="M1023.29,148.66l.21-1.12,12.53-.31s-.73,3.71-1.63,8.25c-.31,1.59-.64,3.28-1,4.94a11.6,11.6,0,0,1-6-3,15.92,15.92,0,0,1-4.54-6.76C1023.07,149.87,1023.2,149.19,1023.29,148.66Z" transform="translate(44 -6.65)"/><path class="cls-15" d="M1031.93,119a11.3,11.3,0,0,0-9.61,4.11c-3.7,4.8-7.69,19.64,1.51,27.71s18.28-1.06,19.63-10.75S1045.33,118.65,1031.93,119Z" transform="translate(44 -6.65)"/><path class="cls-15" d="M1046.18,139.93c-1.1,2.14-2.94,3.32-4.12,2.64s-1.24-3-.14-5.09,2.94-3.33,4.12-2.65S1047.27,137.79,1046.18,139.93Z" transform="translate(44 -6.65)"/><path class="cls-5" d="M1032.59,117.41s-7.89,14.11-13.53,14.77-6.39,8.15-6.39,8.15,2-17.28,7.61-20.61S1032.59,117.41,1032.59,117.41Z" transform="translate(44 -6.65)"/><path class="cls-15" d="M1020.54,135.72c.46,2.51-.47,4.81-2.07,5.14s-3.26-1.44-3.72-4,.46-4.8,2.06-5.13S1020.08,133.22,1020.54,135.72Z" transform="translate(44 -6.65)"/><path class="cls-13" d="M1032.82,214.14s-25.47-13-31.09-20-4.38-20.28,2.86-23.48,36.67,26.28,36.67,26.28Z" transform="translate(44 -6.65)"/></g><g class="cls-17"><path class="cls-9" d="M1560.3,300.64c-20.33-10.75-50.85-5.14-58.77,34.95-4.72,23.89-16.47,49-16.47,49,30.78,13.74,63.89,14.32,90.45,9.69C1575.51,394.26,1598.52,315.91,1560.3,300.64Z" transform="translate(44 -6.65)"/><path class="cls-12" d="M1574.31,412.25l88.63-3.05s69.07-21.59,71.2-22.19,12.73-28.24,15.53-25.88-6.12,13.84-2.52,15.91,37.32-9,37.26-6.24c-.11,5.12-20.38,7.58-20,10s20.91-4.59,22.94-.81-20,4.75-20.64,6.66,20.9,2,19.31,6c-.87,2.2-19.12-.52-18.63,2.22s14.17,7.05,12.94,9.48-11-5.19-18.4-4.17-13.3-2.18-24.58,3-48.94,28.27-74.28,30.89-81.32,8.57-81.32,8.57Z" transform="translate(44 -6.65)"/><path class="cls-18" d="M1557.44,408.2c-48.53,2.26-5.87,42.9-5.87,42.9l71.71-10.18c2.16-14.3-1.52-31.36-1.7-35.17C1606.7,404.83,1569.39,407.64,1557.44,408.2Z" transform="translate(44 -6.65)"/><path class="cls-2" d="M1519.92,400.43s-20.86-.37-32,11.74,17.43,106.51,19.45,121.92-10.28,56.4-10.28,56.4,65.83,13.28,84.65.8c0,0,2-110.85,0-121.86s-18.82-55.79-22.85-60.19S1519.92,400.43,1519.92,400.43Z" transform="translate(44 -6.65)"/><path class="cls-8" d="M1529.25,362.9s-.15.83-.41,2.23c-1.25,6.76-6.06,29.16-9.31,35.32-3.93,7.44,13.45,31.18,30.17,28.28,5-.86-4.21-21.81-3.76-24,.84-4.25,2-10,3.16-16l2-10c1.79-9.07,3.25-16.5,3.25-16.5Z" transform="translate(44 -6.65)"/><path class="cls-19" d="M1528.84,365.13c.26-1.4.41-2.23.41-2.23l25.06-.63s-1.46,7.43-3.25,16.5c-.63,3.18-1.29,6.56-2,9.89a23.44,23.44,0,0,1-12-6,31.73,31.73,0,0,1-9.06-13.51C1528.39,367.55,1528.65,366.18,1528.84,365.13Z" transform="translate(44 -6.65)"/><path class="cls-8" d="M1546.11,305.8s-11.81-1.36-19.21,8.23-15.39,39.29,3,55.42,36.56-2.13,39.26-21.49S1572.91,305.1,1546.11,305.8Z" transform="translate(44 -6.65)"/><path class="cls-8" d="M1574.61,347.67c-2.2,4.28-5.88,6.65-8.23,5.29s-2.48-5.92-.28-10.2,5.88-6.65,8.23-5.29S1576.81,343.39,1574.61,347.67Z" transform="translate(44 -6.65)"/><path class="cls-9" d="M1547.44,302.63s-15.79,28.23-27.08,29.53-12.77,16.3-12.77,16.3,4-34.56,15.22-41.22S1547.44,302.63,1547.44,302.63Z" transform="translate(44 -6.65)"/><path class="cls-8" d="M1523.33,339.25c.91,5-.93,9.61-4.13,10.27s-6.53-2.87-7.45-7.88.93-9.61,4.13-10.27S1522.41,334.24,1523.33,339.25Z" transform="translate(44 -6.65)"/><path class="cls-18" d="M1547.9,496.11s-51-26.11-62.18-40-8.77-40.56,5.7-47,73.35,52.57,73.35,52.57Z" transform="translate(44 -6.65)"/></g><g class="cls-20"><path class="cls-21" d="M1767.35,595.05c18.09-9.61,39.17-1,40.75,24.23s-16.23,34.14-33.34,32.47S1740.85,605.64,1767.35,595.05Z" transform="translate(44 -6.65)"/><path class="cls-21" d="M1778.26,662.1a18,18,0,1,0,18-18A18,18,0,0,0,1778.26,662.1Z" transform="translate(44 -6.65)"/><path class="cls-12" d="M1757.64,672.43l-61.46-2.11s-47.88-15-49.37-15.38-8.82-19.59-10.76-18,4.24,9.6,1.74,11-25.87-6.23-25.83-4.33c.08,3.55,14.13,5.26,13.87,6.93s-14.5-3.19-15.91-.57,13.9,3.29,14.31,4.62-14.49,1.36-13.38,4.17c.59,1.52,13.25-.36,12.91,1.54s-9.83,4.88-9,6.57,7.63-3.6,12.76-2.89,9.22-1.51,17,2.08,33.93,19.6,51.5,21.42,56.39,5.94,56.39,5.94Z" transform="translate(44 -6.65)"/><path class="cls-6" d="M1769.33,669.62c33.65,1.57,4.07,29.75,4.07,29.75l-49.72-7.06c-1.5-9.91,1-21.74,1.18-24.38C1735.18,667.29,1761.05,669.24,1769.33,669.62Z" transform="translate(44 -6.65)"/><path class="cls-7" d="M1795.35,664.24s14.46-.26,22.15,8.14-12.09,73.85-13.48,84.53,7.12,39.11,7.12,39.11-45.64,9.21-58.69.55c0,0-1.4-76.85,0-84.49s13-38.68,15.84-41.73S1795.35,664.24,1795.35,664.24Z" transform="translate(44 -6.65)"/><path class="cls-8" d="M1788.88,638.21s.1.58.28,1.55c.87,4.69,4.2,20.22,6.46,24.49,2.72,5.16-9.33,21.62-20.92,19.61-3.46-.6,2.91-15.12,2.61-16.66-.59-3-1.38-7-2.2-11.08-.45-2.33-.92-4.68-1.36-6.9-1.24-6.29-2.25-11.44-2.25-11.44Z" transform="translate(44 -6.65)"/><path class="cls-9" d="M1789.16,639.77c-.18-1-.28-1.56-.28-1.56l-17.38-.43s1,5.15,2.25,11.44c.44,2.2.9,4.55,1.36,6.86a16.25,16.25,0,0,0,8.29-4.17,21.93,21.93,0,0,0,6.29-9.37C1789.47,641.44,1789.29,640.49,1789.16,639.77Z" transform="translate(44 -6.65)"/><path class="cls-8" d="M1777.18,598.63s8.19-1,13.33,5.7,10.67,27.24-2.09,38.43-25.35-1.48-27.22-14.91S1758.6,598.14,1777.18,598.63Z" transform="translate(44 -6.65)"/><path class="cls-8" d="M1757.43,627.66c1.52,3,4.07,4.6,5.7,3.66s1.72-4.1.2-7.07-4.08-4.61-5.71-3.67S1755.9,624.69,1757.43,627.66Z" transform="translate(44 -6.65)"/><path class="cls-21" d="M1776.27,596.43S1787.21,616,1795,616.9s8.85,11.31,8.85,11.31-2.8-24-10.55-28.59S1776.27,596.43,1776.27,596.43Z" transform="translate(44 -6.65)"/><path class="cls-8" d="M1793,621.82c-.63,3.48.65,6.66,2.86,7.12s4.53-2,5.17-5.47-.64-6.66-2.86-7.12S1793.62,618.35,1793,621.82Z" transform="translate(44 -6.65)"/><path class="cls-6" d="M1776,730.58s35.33-18.1,43.11-27.75,6.08-28.12-4-32.56-50.86,36.45-50.86,36.45Z" transform="translate(44 -6.65)"/></g><g class="cls-22"><path class="cls-9" d="M1057.34,400.67s19.47-5.21,19.7-3.64c5,34.37,7.2,46.8,7.91,47.14,2.41,1.16,33.14-28.46,38.7-30.56,2.66-1,5.59-.93,8.39-.92,6.69,0,8,0,8,0h.24l.13,6.29c-7.35,7-14.56,141.51-16,141.48-1.62,0-32.15-.19-30.7-2.74,0,0,7.38-41.44,13.19-68.75,1.94-9.17,7.39-28.34,7.39-28.34-7.46,4-36.63,19.31-41.36,17.51C1058.2,472.56,1057.34,400.67,1057.34,400.67Z" transform="translate(44 -6.65)"/><path class="cls-23" d="M1115,482.49c3.35-16.48,11.92-43.53,14.43-49.66,5.76-14.08,10.61-20.05,10.61-20.05l22.8.67s.53.15.69.17c1.86.3,1.92,66.71.92,91.54S1158,562.3,1158,562.3l-6.51-.61c-.1,3.35-.18,5.55-.18,5.55-33,5.82-51.41-10.44-51.41-10.44S1110.69,503.86,1115,482.49Z" transform="translate(44 -6.65)"/><path class="cls-9" d="M1162.87,413.45s22.55-1.64,28.31-4.43c3.49-1.69,31.89-25.83,31.89-25.83l-2-62.58,20.37-2.09s12.39,68.91,8.92,76.58c-3.58,7.92-45.2,41.22-53.32,55.42-4.69,8.17-.24,119.19-1.76,120.21-10.84,6-56.4,11.33-55.69,7.84C1159.19,482.12,1162.87,413.45,1162.87,413.45Z" transform="translate(44 -6.65)"/><path class="cls-8" d="M1161.7,393.36l1.17,20.09s-14.07,25.79-21.73,22.45c-6.43-2.81-1.3-22.28-1.3-22.28s1-4.45,2.37-9.59a36.56,36.56,0,0,0,1.62-10.28C1143.49,386.88,1161.7,393.36,1161.7,393.36Z" transform="translate(44 -6.65)"/><path class="cls-9" d="M1143.83,393.75c-.34-6.87,17.87-.39,17.87-.39l.11,2a9.94,9.94,0,0,1-2,2.34,24.79,24.79,0,0,1-17.42,5.52A34.75,34.75,0,0,0,1143.83,393.75Z" transform="translate(44 -6.65)"/><path class="cls-24" d="M1142.88,348s-7.21,11.52-7.52,21.07a49.41,49.41,0,0,0,1.88,16l23.35-29.44Z" transform="translate(44 -6.65)"/><path class="cls-25" d="M1132.81,367.14c-.25,3.35,1.12,6.18,3.07,6.33s3.72-2.45,4-5.79-1.12-6.18-3.06-6.33S1133.06,363.8,1132.81,367.14Z" transform="translate(44 -6.65)"/><path class="cls-8" d="M1168.51,360c.55-.13,1.22,27.61-6.65,34.35s-21.85,7.68-26.11,1.21c-4.71-7.16-1.18-36.5,10.62-43S1168.51,360,1168.51,360Z" transform="translate(44 -6.65)"/><path class="cls-24" d="M1170.1,342.73c6.28,5.22,9.35,9.08,13.76,18.54,5.41,11.63-4.4,24.08-12.77,29.15s-8.92,10.94-8.92,10.94l-.45-3.6a9.14,9.14,0,0,1,0-3.32,15.15,15.15,0,0,1,1.14-3c.68-1.57,2.86-6.93,3.73-8.35,2.3-3.75,2.75-4.56,1.47-8-1-2.68-.08-8.65-1.6-13.06l-11.5-2.17s-7.2-1.53-10.93-5.6C1133.36,342.57,1153.53,328.68,1170.1,342.73Z" transform="translate(44 -6.65)"/><path class="cls-8" d="M1165.44,378.21c-1.32,3.08-1,6.2.84,7s4.32-1.09,5.65-4.18,1-6.2-.84-7S1166.77,375.12,1165.44,378.21Z" transform="translate(44 -6.65)"/></g><g class="cls-26"><path class="cls-21" d="M-44,487.4s29.36-7.85,29.71-5.48C-6.72,533.74-3.44,552.46-2.37,553c3.63,1.74,50-42.91,58.35-46.07,4-1.52,8.42-1.4,12.65-1.38,10.08,0,12.06,0,12.06,0l.37,0,.2,9.47c-11.08,10.5-22,213.36-24.15,213.31-2.44-.05-48.48-.3-46.29-4.14,0,0,11.13-62.47,19.88-103.65,2.94-13.82,11.15-42.73,11.15-42.73-11.25,6-55.22,29.11-62.36,26.4C-42.71,595.79-44,487.4-44,487.4Z" transform="translate(44 -6.65)"/><path class="cls-21" d="M43,610.76c5.05-24.85,18-65.63,21.75-74.87,8.69-21.24,16-30.24,16-30.24l34.38,1s.8.22,1,.26c2.81.44,2.89,100.57,1.38,138s-9.83,86.16-9.83,86.16l-9.81-.94c-.16,5.05-.27,8.38-.27,8.38C47.87,747.3,20.1,722.78,20.1,722.78S36.43,643,43,610.76Z" transform="translate(44 -6.65)"/><path class="cls-21" d="M115.11,506.67s34-2.48,42.68-6.68c5.26-2.55,48.07-38.94,48.07-38.94l-3-94.35,30.7-3.15S252.28,467.43,247.06,479c-5.4,11.94-68.15,62.15-80.4,83.55-7.06,12.33-.36,179.7-2.65,181.24-16.34,9.06-85,17.08-84,11.82C109.56,610.2,115.11,506.67,115.11,506.67Z" transform="translate(44 -6.65)"/><path class="cls-15" d="M113.34,476.38l1.77,30.29s-21.22,38.88-32.77,33.84c-9.69-4.23-2-33.58-2-33.58s1.48-6.72,3.58-14.46c1.47-5.4,2.65-11.24,2.44-15.5C85.89,466.61,113.34,476.38,113.34,476.38Z" transform="translate(44 -6.65)"/><path class="cls-27" d="M86.4,477c-.51-10.36,26.94-.59,26.94-.59l.17,3a15.29,15.29,0,0,1-2.94,3.53,37.44,37.44,0,0,1-26.27,8.31C85.61,486.15,86.6,480.89,86.4,477Z" transform="translate(44 -6.65)"/><path class="cls-24" d="M85,407.93S74.1,425.31,73.63,439.7s2.83,24.11,2.83,24.11l35.2-44.4Z" transform="translate(44 -6.65)"/><path class="cls-27" d="M69.79,436.85c-.38,5,1.69,9.32,4.62,9.54s5.61-3.69,6-8.73-1.69-9.32-4.63-9.54S70.17,431.81,69.79,436.85Z" transform="translate(44 -6.65)"/><path class="cls-15" d="M123.61,426.07c.82-.2,1.84,41.62-10,51.78s-32.95,11.58-39.37,1.83c-7.1-10.79-1.77-55,16-64.86S123.61,426.07,123.61,426.07Z" transform="translate(44 -6.65)"/><path class="cls-24" d="M126,400.05c9.47,7.87,14.1,13.68,20.74,27.94,8.17,17.54-6.62,36.32-19.24,44s-13.45,16.5-13.45,16.5l-.68-5.43a13.62,13.62,0,0,1,0-5,23.53,23.53,0,0,1,1.7-4.47c1-2.36,4.33-10.44,5.64-12.58,3.45-5.65,4.13-6.88,2.22-12.11-1.48-4-.13-13-2.42-19.69l-17.34-3.26s-10.86-2.32-16.47-8.46C70.62,399.8,101,378.86,126,400.05Z" transform="translate(44 -6.65)"/><path class="cls-15" d="M119,453.53c-2,4.65-1.44,9.36,1.26,10.52s6.51-1.65,8.51-6.3,1.44-9.35-1.26-10.52S121,448.89,119,453.53Z" transform="translate(44 -6.65)"/></g><g class="cls-28"><path class="cls-5" d="M702.41,144.62s-24.24-6.48-24.52-4.53c-6.25,42.78-9,58.24-9.84,58.66-3,1.44-41.24-35.42-48.17-38-3.31-1.25-7-1.15-10.44-1.14-8.31,0-10,0-10,0h-.3l-.16,7.82c9.14,8.67,18.12,176.11,19.93,176.07,2,0,40-.25,38.21-3.42,0,0-9.18-51.56-16.41-85.55-2.43-11.41-9.2-35.27-9.2-35.27,9.29,5,45.58,24,51.47,21.79C701.34,234.09,702.41,144.62,702.41,144.62Z" transform="translate(44 -6.65)"/><path class="cls-23" d="M630.61,246.44c-4.16-20.51-14.83-54.17-18-61.8-7.17-17.52-13.2-24.95-13.2-24.95l-28.38.84s-.66.18-.86.21c-2.32.37-2.39,83-1.14,113.91s8.11,71.12,8.11,71.12l8.1-.77c.13,4.17.22,6.91.22,6.91,41.07,7.24,64-13,64-13S636,273,630.61,246.44Z" transform="translate(44 -6.65)"/><path class="cls-5" d="M571.08,160.53S543,158.48,535.85,155c-4.34-2.1-39.68-32.14-39.68-32.14L498.62,45l-25.34-2.6s-15.43,85.75-11.12,95.29c4.46,9.86,56.25,51.31,66.37,69,5.82,10.18.3,148.33,2.19,149.6,13.48,7.48,70.18,14.1,69.29,9.75C575.65,246,571.08,160.53,571.08,160.53Z" transform="translate(44 -6.65)"/><path class="cls-8" d="M572.54,135.52l-1.46,25s17.51,32.09,27,27.93c8-3.49,1.61-27.72,1.61-27.72s-1.22-5.55-3-11.93c-1.21-4.46-2.19-9.29-2-12.8C595.2,127.46,572.54,135.52,572.54,135.52Z" transform="translate(44 -6.65)"/><path class="cls-9" d="M594.77,136c.43-8.55-22.23-.49-22.23-.49L572.4,138a12.4,12.4,0,0,0,2.43,2.91,30.82,30.82,0,0,0,21.67,6.86C595.43,143.59,594.61,139.25,594.77,136Z" transform="translate(44 -6.65)"/><path class="cls-9" d="M596,79s9,14.34,9.37,26.22a61.71,61.71,0,0,1-2.34,19.9L573.92,88.5Z" transform="translate(44 -6.65)"/><path class="cls-25" d="M608.49,102.9c.31,4.16-1.4,7.69-3.82,7.87s-4.63-3-4.95-7.21,1.4-7.69,3.82-7.87S608.17,98.74,608.49,102.9Z" transform="translate(44 -6.65)"/><path class="cls-8" d="M564.06,94c-.68-.16-1.52,34.36,8.28,42.75s27.19,9.56,32.49,1.51c5.86-8.91,1.46-45.42-13.22-53.54S564.06,94,564.06,94Z" transform="translate(44 -6.65)"/><path class="cls-9" d="M562.09,72.52C554.27,79,550.45,83.81,545,95.59c-6.74,14.47,5.47,30,15.88,36.28S572,145.48,572,145.48l.55-4.48a11.09,11.09,0,0,0,0-4.13,19.07,19.07,0,0,0-1.41-3.69c-.85-2-3.56-8.61-4.65-10.38-2.85-4.67-3.41-5.68-1.83-10,1.22-3.33.11-10.76,2-16.25l14.31-2.7s9-1.9,13.6-7C607.8,72.32,582.71,55,562.09,72.52Z" transform="translate(44 -6.65)"/><path class="cls-8" d="M567.88,116.67c1.65,3.83,1.19,7.72-1,8.68s-5.38-1.37-7-5.2-1.19-7.72,1-8.69S566.23,112.83,567.88,116.67Z" transform="translate(44 -6.65)"/></g><g class="cls-29"><path class="cls-21" d="M842.4,591s14.23-3.81,14.4-2.66c3.66,25.11,5.26,34.18,5.77,34.43,1.76.85,24.21-20.79,28.27-22.32a16.9,16.9,0,0,1,6.13-.67h6l.09,4.59c-5.37,5.09-10.64,103.38-11.7,103.36s-23.49-.15-22.43-2c0,0,5.39-30.27,9.64-50.22,1.42-6.7,5.4-20.7,5.4-20.7-5.46,2.91-26.76,14.1-30.22,12.79C843,643.48,842.4,591,842.4,591Z" transform="translate(44 -6.65)"/><path class="cls-23" d="M884.55,650.73a306.47,306.47,0,0,1,10.53-36.27c4.21-10.29,7.75-14.65,7.75-14.65l16.66.49s.39.11.51.13c1.36.21,1.4,48.73.66,66.86S915.9,709,915.9,709l-4.75-.45c-.08,2.44-.13,4-.13,4-24.1,4.25-37.56-7.63-37.56-7.63S881.37,666.34,884.55,650.73Z" transform="translate(44 -6.65)"/><path class="cls-21" d="M919.49,600.3s16.48-1.2,20.68-3.23c2.55-1.24,23.3-18.87,23.3-18.87L962,532.48,976.9,531s9.06,50.33,6.52,55.93c-2.61,5.79-33,30.12-38.95,40.49-3.42,6-.18,87.06-1.28,87.81-7.92,4.39-41.2,8.28-40.68,5.73C916.81,650.46,919.49,600.3,919.49,600.3Z" transform="translate(44 -6.65)"/><path class="cls-8" d="M918.64,585.63l.85,14.67s-10.28,18.84-15.88,16.4c-4.69-2.05-.94-16.27-.94-16.27s.71-3.26,1.73-7a27,27,0,0,0,1.18-7.51C905.33,580.89,918.64,585.63,918.64,585.63Z" transform="translate(44 -6.65)"/><path class="cls-9" d="M905.58,585.91c-.25-5,13.06-.28,13.06-.28l.08,1.43a7.42,7.42,0,0,1-1.43,1.71,18.09,18.09,0,0,1-12.72,4A25.1,25.1,0,0,0,905.58,585.91Z" transform="translate(44 -6.65)"/><path class="cls-5" d="M904.89,552.46s-5.27,8.42-5.5,15.39a36.21,36.21,0,0,0,1.38,11.69L917.82,558Z" transform="translate(44 -6.65)"/><path class="cls-25" d="M897.53,566.48c-.18,2.44.82,4.51,2.24,4.62s2.72-1.79,2.91-4.24-.82-4.51-2.24-4.62S897.72,564,897.53,566.48Z" transform="translate(44 -6.65)"/><path class="cls-8" d="M923.61,561.25c.4-.1.89,20.17-4.86,25.09s-16,5.61-19.07.89c-3.44-5.23-.86-26.67,7.76-31.43S923.61,561.25,923.61,561.25Z" transform="translate(44 -6.65)"/><path class="cls-5" d="M924.77,548.64c4.59,3.82,6.83,6.63,10.05,13.54,4,8.5-3.21,17.6-9.33,21.3s-6.51,8-6.51,8l-.33-2.63a6.53,6.53,0,0,1,0-2.43,10.75,10.75,0,0,1,.83-2.16c.49-1.14,2.09-5.06,2.72-6.09,1.68-2.74,2-3.34,1.08-5.87-.72-2-.06-6.32-1.17-9.54l-8.4-1.58s-5.27-1.12-8-4.1C897.94,548.52,912.67,538.38,924.77,548.64Z" transform="translate(44 -6.65)"/><path class="cls-8" d="M921.37,574.56c-1,2.25-.7,4.53.61,5.09s3.16-.8,4.13-3,.7-4.53-.61-5.1S922.34,572.31,921.37,574.56Z" transform="translate(44 -6.65)"/></g><g class="cls-30"><path class="cls-9" d="M1505.54,665.59s-17.16-4.59-17.37-3.2c-4.42,30.29-6.34,41.24-7,41.54-2.13,1-29.21-25.08-34.11-26.93-2.35-.89-4.93-.82-7.4-.81-5.89,0-7,0-7,0h-.21l-.12,5.53c6.48,6.14,12.84,124.72,14.12,124.69s28.33-.17,27.06-2.42c0,0-6.51-36.51-11.63-60.58-1.71-8.09-6.51-25-6.51-25,6.57,3.52,32.28,17,36.45,15.43C1504.78,729,1505.54,665.59,1505.54,665.59Z" transform="translate(44 -6.65)"/><path class="cls-23" d="M1454.7,737.7c-3-14.52-10.51-38.36-12.72-43.76-5.07-12.42-9.35-17.68-9.35-17.68l-20.1.6s-.46.13-.6.15c-1.65.26-1.69,58.78-.81,80.67s5.74,50.36,5.74,50.36l5.74-.55c.09,3,.16,4.9.16,4.9,29.08,5.13,45.31-9.21,45.31-9.21S1458.52,756.53,1454.7,737.7Z" transform="translate(44 -6.65)"/><path class="cls-9" d="M1412.53,676.86s-19.87-1.45-24.94-3.91c-3.08-1.49-28.11-22.76-28.11-22.76l1.74-55.15-18-1.84s-10.92,60.72-7.87,67.48c3.16,7,39.84,36.34,47,48.84,4.13,7.21.21,105,1.55,106,9.55,5.29,49.7,10,49.08,6.9C1415.78,737.37,1412.53,676.86,1412.53,676.86Z" transform="translate(44 -6.65)"/><path class="cls-8" d="M1413.57,659.15l-1,17.71s12.41,22.72,19.16,19.78c5.67-2.47,1.14-19.63,1.14-19.63s-.86-3.93-2.09-8.45a32.15,32.15,0,0,1-1.42-9.07C1429.61,653.44,1413.57,659.15,1413.57,659.15Z" transform="translate(44 -6.65)"/><path class="cls-9" d="M1429.32,659.49c.29-6-15.75-.34-15.75-.34l-.1,1.73a8.9,8.9,0,0,0,1.72,2.07,21.87,21.87,0,0,0,15.35,4.85A30.24,30.24,0,0,1,1429.32,659.49Z" transform="translate(44 -6.65)"/><path class="cls-24" d="M1430.15,619.14s6.36,10.16,6.63,18.57a43.51,43.51,0,0,1-1.65,14.1l-20.58-26Z" transform="translate(44 -6.65)"/><path class="cls-25" d="M1439,636.05c.22,3-1,5.44-2.7,5.57s-3.29-2.15-3.51-5.1,1-5.45,2.7-5.58S1438.8,633.1,1439,636.05Z" transform="translate(44 -6.65)"/><path class="cls-8" d="M1407.57,629.74c-.49-.12-1.08,24.33,5.85,30.27s19.26,6.77,23,1.07c4.16-6.3,1-32.17-9.35-37.91S1407.57,629.74,1407.57,629.74Z" transform="translate(44 -6.65)"/><path class="cls-24" d="M1406.17,614.53c-5.54,4.6-8.25,8-12.13,16.34-4.77,10.25,3.88,21.23,11.25,25.69s7.87,9.65,7.87,9.65l.39-3.18a7.91,7.91,0,0,0,0-2.93,13.32,13.32,0,0,0-1-2.61c-.6-1.38-2.53-6.1-3.29-7.35-2-3.31-2.42-4-1.3-7.08.86-2.36.07-7.62,1.42-11.51l10.13-1.91s6.35-1.35,9.63-4.94C1438.54,614.39,1420.77,602.15,1406.17,614.53Z" transform="translate(44 -6.65)"/><path class="cls-8" d="M1410.27,645.8c1.17,2.71.84,5.47-.74,6.15s-3.81-1-5-3.69-.84-5.47.74-6.15S1409.1,643.08,1410.27,645.8Z" transform="translate(44 -6.65)"/></g><g class="cls-31"><path class="cls-5" d="M1129.71,753.87s22.3-29.78,30.44-43.87-5.54-4.92-19.52-8.63c-5.3-1.4-.91-30.31-10.92-20.22-16.41,16.54-32.87,52.38-32.87,52.38Z" transform="translate(44 -6.65)"/><path class="cls-32" d="M1132.12,679.17c14.42-4.37,41.44-6.66,41.44-6.66s16.93-2.75,22.43-1.56c8.1,1.75,23.31,2.56,24.72,37.71,1,25.16,3.88,87.4,6.75,129.43l-103.11,6.25C1129,779.68,1118.47,683.31,1132.12,679.17Z" transform="translate(44 -6.65)"/><path class="cls-8" d="M1159.46,642.47l16.19,29.78s-12.2,21.75-23.73,22.33c-9.69.48-8.16-13.83-8.16-13.83s-1.53-18.51-6.18-26.8S1159.46,642.47,1159.46,642.47Z" transform="translate(44 -6.65)"/><path class="cls-9" d="M1158,654.4a61.34,61.34,0,0,1-16.29,12.24c-1-4.65-2.29-9.45-4.11-12.69-2.14-3.82,2.36-6.56,7.82-8.4,7.32-1.95,14.06-3.08,14.06-3.08l3.11,5.72C1161.78,650.2,1159.19,653.11,1158,654.4Z" transform="translate(44 -6.65)"/><path class="cls-8" d="M1151.14,592.3c.67-.47,16.64,36.76,9.71,50.15s-25.23,22.24-34.47,15.78c-10.23-7.14-21.41-48.82-9.08-64.05S1151.14,592.3,1151.14,592.3Z" transform="translate(44 -6.65)"/><path class="cls-21" d="M1117.4,571.86a44.34,44.34,0,0,1,26,6.55c5.57-.86,13.74.08,24.8,10.51,13.6,12.83,11.48,31.83,3,43.23s-5.67,21-5.67,21l-3.1-4.54a29,29,0,0,1-4.64-11.41,23.88,23.88,0,0,1-.22-7.58c1-6.33-8.2-7.76-11.79-11.78-2.77-3.09-5.14-11.27-9.58-16.42l-4.6-3.6s-9.36-3.85-16.41-.06S1101.28,573,1117.4,571.86Z" transform="translate(44 -6.65)"/><path class="cls-8" d="M1148.14,624.62c1.23,4.74,4.45,8,7.19,7.3s4-5.13,2.72-9.87-4.45-8-7.19-7.3S1146.9,619.88,1148.14,624.62Z" transform="translate(44 -6.65)"/><path class="cls-10" d="M1135.11,640,1120,643.37s1.63,5.67,8.32,4.37C1136.47,646.17,1135.11,640,1135.11,640Z" transform="translate(44 -6.65)"/><path class="cls-5" d="M1184.21,759.09s27.07-34.41,33.69-47.92-.46-34.9-13.58-37.43-51.13,59.19-51.13,59.19Z" transform="translate(44 -6.65)"/></g><g class="cls-33"><path class="cls-6" d="M221.45,222.5S208.31,205,203.52,196.65s3.26-2.89,11.5-5.08c3.12-.83.53-17.86,6.43-11.91,9.67,9.74,19.37,30.86,19.37,30.86Z" transform="translate(44 -6.65)"/><path class="cls-7" d="M220,178.49c-8.49-2.57-24.41-3.92-24.41-3.92s-10-1.62-13.22-.92c-4.77,1-13.73,1.5-14.57,22.22-.59,14.82-2.28,51.49-4,76.25l60.75,3.69C221.86,237.71,228.07,180.93,220,178.49Z" transform="translate(44 -6.65)"/><path class="cls-8" d="M203.92,156.87l-9.54,17.54s7.19,12.82,14,13.16c5.7.29,4.81-8.15,4.81-8.15s.89-10.9,3.63-15.79S203.92,156.87,203.92,156.87Z" transform="translate(44 -6.65)"/><path class="cls-9" d="M204.79,163.9a36.27,36.27,0,0,0,9.6,7.21,28.21,28.21,0,0,1,2.42-7.48c1.27-2.25-1.38-3.87-4.6-4.95-4.31-1.15-8.29-1.81-8.29-1.81l-1.83,3.37A15.86,15.86,0,0,0,204.79,163.9Z" transform="translate(44 -6.65)"/><path class="cls-8" d="M208.83,127.31c-.4-.28-9.81,21.66-5.73,29.55S218,170,223.42,166.15c6-4.2,12.61-28.76,5.34-37.73S208.83,127.31,208.83,127.31Z" transform="translate(44 -6.65)"/><path class="cls-24" d="M228.71,115.27a26.12,26.12,0,0,0-15.3,3.85c-3.29-.5-8.1,0-14.62,6.2-8,7.56-6.76,18.75-1.75,25.47s3.34,12.39,3.34,12.39l1.83-2.67a17,17,0,0,0,2.73-6.73,13.67,13.67,0,0,0,.13-4.46c-.61-3.73,4.83-4.57,7-6.94,1.63-1.82,3-6.64,5.65-9.68l2.7-2.12s5.52-2.26,9.67,0S238.2,115.94,228.71,115.27Z" transform="translate(44 -6.65)"/><path class="cls-8" d="M210.59,146.35c-.72,2.8-2.62,4.72-4.23,4.3s-2.33-3-1.61-5.82,2.63-4.71,4.24-4.29S211.32,143.56,210.59,146.35Z" transform="translate(44 -6.65)"/><path class="cls-10" d="M218.27,155.41l8.91,2a4,4,0,0,1-4.9,2.58C217.47,159.05,218.27,155.41,218.27,155.41Z" transform="translate(44 -6.65)"/><path class="cls-6" d="M189.34,225.58s-16-20.27-19.84-28.23.26-20.57,8-22.06,30.12,34.88,30.12,34.88Z" transform="translate(44 -6.65)"/></g><g class="cls-34"><path class="cls-35" d="M507.85,397.32c1.71.07,6.39,1.63,13.23,14.56,8.73,16.51,21.5,66.38,21.5,66.38l-38.11,14.19L499.57,482l-8.06-80.13S507.38,397.3,507.85,397.32Z" transform="translate(44 -6.65)"/><path class="cls-23" d="M457.47,390.13c10.9,0,37.86,3.19,50.38,7.19,0,0,9.19,79-8.28,139.07-3.91,13.44,3.24,55.72,3.24,55.72l-112.93-1.49s13.38-102.21,8.34-118.72-5.16-74-5.16-74,.77-.12,25.37-4.37A255.46,255.46,0,0,1,457.47,390.13Z" transform="translate(44 -6.65)"/><path class="cls-8" d="M391.83,406.64c10.56-4,15.72,91.17,17.15,130.33,18.69,1.8,51.28,0,59.4-.6,3.82-.29,12.62-3.51,16.41-4s7.42-.77,9.33-.44c.7.12,20.19,8.09,21.86,9.84,2.07,2.17,7.65,7.64,6.71,10s-10.75-6.59-10.75-6.59l-4.79-2.69c6,5.83,17.35,13.51,15.71,16.31s-11.87-5.07-19.19-10.38c6.28,5.67,14.08,15.81,12.28,17.39-1.61,1.43-10.48-10.32-20-13.7-3.51-1.25-7,2.22-9.78,2.64-2,.31-5.16,1-7.15.4l-10.26-2.91c-3.5.31-3.59,2.38-7.12,3.13-4.1.87-10.82,1.79-16,3.07-30.05,7.34-40.07,10.75-49.28,10.74C368.49,569.16,366.88,416,391.83,406.64Z" transform="translate(44 -6.65)"/><path class="cls-35" d="M371.79,496c-2-40.11-1.69-89.55,20.8-98,8.87-3.33,24.51,16.68,21.7,98.79C402.28,497.76,384.66,498.55,371.79,496Z" transform="translate(44 -6.65)"/><path class="cls-36" d="M482.81,293.61a81.64,81.64,0,0,1-9.43-3.77c-3.45-1.67-7.93-3.62-10.76-4-5.95-.92-16.17-.31-21.81,5.81-7,7.63-19.53,1.38-17,41.34,2.85,45.22,28,40.26,28.61,39.49s22.43-28.93,22.43-28.93,7.63,16.69,7.63,16.07S521.41,306.61,482.81,293.61Z" transform="translate(44 -6.65)"/><path class="cls-8" d="M463.72,375.77l2.17,16.16s4.86,23.29-1.39,27.78-26.61-28.44-26.61-28.44L440,350.32Z" transform="translate(44 -6.65)"/><path class="cls-9" d="M439.35,363.59c5.16,14,17.47,22.56,26.21,25.89l-1.84-13.71L440,350.32Z" transform="translate(44 -6.65)"/><path class="cls-8" d="M462.43,305.76a21.55,21.55,0,0,1,24.82,21.79,164.59,164.59,0,0,1-1.81,20.73c-2.89,18.66-15.61,35.08-24,33.62s-29.59-17.56-25.86-44.11C437.85,321.4,448.52,308,462.43,305.76Z" transform="translate(44 -6.65)"/><path class="cls-8" d="M441.39,341c-.71,4.1-4,7-7.34,6.37s-5.48-4.38-4.77-8.48,4-7,7.34-6.37S442.1,336.86,441.39,341Z" transform="translate(44 -6.65)"/><path class="cls-36" d="M436.62,332.48s10.17,2.52,13.95-4,17.28-20.67,34.44-14.81-15.1-14.24-16.47-14.24l-17.85-.11S438,309.74,437.53,310.89s-4.12,13.67-4.12,13.67Z" transform="translate(44 -6.65)"/><path class="cls-10" d="M455.23,359.78l18.52,3.54s-1.77,7-9.95,5.65C453.81,367.36,455.23,359.78,455.23,359.78Z" transform="translate(44 -6.65)"/></g><g class="cls-37"><path class="cls-38" d="M706.51,637.43c.89,0,3.32.85,6.88,7.57,4.54,8.58,11.17,34.51,11.17,34.51l-19.8,7.37-2.55-5.41L698,639.82S706.27,637.42,706.51,637.43Z" transform="translate(44 -6.65)"/><path class="cls-21" d="M680.33,633.7c5.66,0,19.68,1.66,26.18,3.74,0,0,4.78,41.07-4.3,72.28-2,7,1.68,29,1.68,29l-58.69-.78s6.95-53.12,4.33-61.7-2.68-38.49-2.68-38.49L660,635.44A132.62,132.62,0,0,1,680.33,633.7Z" transform="translate(44 -6.65)"/><path class="cls-8" d="M646.21,642.28c5.49-2.06,8.17,47.39,8.91,67.74,9.72.93,26.66,0,30.88-.31,2-.15,6.56-1.83,8.53-2.08a19.16,19.16,0,0,1,4.85-.23c.36.06,10.49,4.2,11.36,5.11,1.07,1.13,4,4,3.49,5.2s-5.59-3.43-5.59-3.43l-2.49-1.39c3.1,3,9,7,8.16,8.47s-6.16-2.63-10-5.39c3.27,2.94,7.32,8.21,6.38,9s-5.44-5.37-10.37-7.13c-1.83-.65-3.64,1.16-5.08,1.37a10.42,10.42,0,0,1-3.72.21L686.22,718c-1.82.16-1.87,1.24-3.7,1.63-2.13.45-5.63.93-8.34,1.59-15.62,3.82-20.83,5.59-25.61,5.59C634.08,726.75,633.24,647.14,646.21,642.28Z" transform="translate(44 -6.65)"/><path class="cls-38" d="M635.8,688.7c-1-20.85-.88-46.54,10.81-50.93,4.61-1.73,12.74,8.67,11.27,51.35C651.65,689.64,642.49,690.05,635.8,688.7Z" transform="translate(44 -6.65)"/><path class="cls-36" d="M693.5,583.53a40.69,40.69,0,0,1-4.9-2,24.59,24.59,0,0,0-5.59-2.1c-3.1-.48-8.41-.16-11.34,3-3.66,4-10.15.71-8.84,21.48,1.48,23.51,14.55,20.93,14.86,20.53s11.66-15,11.66-15,4,8.68,4,8.36S713.56,590.29,693.5,583.53Z" transform="translate(44 -6.65)"/><path class="cls-15" d="M683.58,626.24l1.13,8.4s2.52,12.1-.73,14.43-13.83-14.78-13.83-14.78L671.27,613Z" transform="translate(44 -6.65)"/><path class="cls-39" d="M670.91,619.91c2.68,7.26,9.08,11.72,13.62,13.45l-.95-7.12L671.27,613Z" transform="translate(44 -6.65)"/><path class="cls-15" d="M682.91,589.85a11.2,11.2,0,0,1,12.9,11.32,85,85,0,0,1-.95,10.78c-1.49,9.69-8.11,18.23-12.48,17.47S667,620.29,668.93,606.5C670.13,598,675.68,591,682.91,589.85Z" transform="translate(44 -6.65)"/><path class="cls-15" d="M672,608.14c-.37,2.13-2.08,3.62-3.82,3.31s-2.84-2.27-2.47-4.41,2.07-3.61,3.81-3.31S672.34,606,672,608.14Z" transform="translate(44 -6.65)"/><path class="cls-36" d="M669.49,603.73s5.29,1.32,7.25-2.08,9-10.75,17.9-7.7-7.85-7.4-8.56-7.4l-9.28-.06s-6.6,5.43-6.84,6-2.14,7.1-2.14,7.1Z" transform="translate(44 -6.65)"/><path class="cls-10" d="M679.17,617.92l9.62,1.84a4.28,4.28,0,0,1-5.17,2.94C678.43,621.87,679.17,617.92,679.17,617.92Z" transform="translate(44 -6.65)"/></g><g class="cls-40"><path class="cls-41" d="M1551.75,213.31l30.73,3.13s1.41-25.19,1.41-37.21c0-14.58-1.24-33.36-3-33-4.94,1.14-11.6,3.87-15.56,9.31C1551.62,174.42,1551.75,213.31,1551.75,213.31Z" transform="translate(44 -6.65)"/><path class="cls-9" d="M1566.85,176.66c-.64,4.45-12.46,125.3-12.46,125.3,56,27,86.84,4.82,86.84,4.82s-1.84-84.87.36-96.42c1.45-7.64,3.26-58.43-1.69-59.85a124.07,124.07,0,0,0-21.59-4.59c-6.78-.7-33.11-1.11-37.82.47A60.06,60.06,0,0,0,1566.85,176.66Z" transform="translate(44 -6.65)"/><path class="cls-8" d="M1610.83,122.56l3.61,23.77s-13.17,28.31-21,25.85c-6.59-2.06-2.53-27.1-2.53-27.1s3.59-13.45,2.51-20.18S1610.83,122.56,1610.83,122.56Z" transform="translate(44 -6.65)"/><path class="cls-9" d="M1593.38,124.9c-1.07-6.73,17.45-2.34,17.45-2.34l.3,2a10.71,10.71,0,0,1-2,3.31,24.4,24.4,0,0,1-16.2,7.34A36.41,36.41,0,0,0,1593.38,124.9Z" transform="translate(44 -6.65)"/><path class="cls-8" d="M1613.87,88.93c.53-.19,4.2,27.07-2.77,34.58s-20.56,10-25.43,4c-5.39-6.53-5.12-35.84,5.72-43.55S1613.87,88.93,1613.87,88.93Z" transform="translate(44 -6.65)"/><path class="cls-36" d="M1595.52,69.41a30.15,30.15,0,0,1,15.8,9c3.8.45,9,2.55,14.31,11.39,6.57,10.87,1.72,22.92-5.92,28.83s-7.54,12.73-7.54,12.73l-1.21-3.53a19.9,19.9,0,0,1-1-8.32,16.11,16.11,0,0,1,1.24-5c1.84-4-4-6.57-5.57-9.86-1.25-2.52-1.31-8.31-3.28-12.49L1600,89s-5.42-4.22-10.73-3S1584.77,67.22,1595.52,69.41Z" transform="translate(44 -6.65)"/><path class="cls-8" d="M1606,109.53c-.06,3.32,1.45,6,3.37,6.08s3.53-2.64,3.58-6-1.46-6-3.38-6.08S1606.08,106.2,1606,109.53Z" transform="translate(44 -6.65)"/><path class="cls-10" d="M1594.7,117.21l-10.5-.54s0,4,4.65,4.38C1594.47,121.5,1594.7,117.21,1594.7,117.21Z" transform="translate(44 -6.65)"/><path class="cls-42" d="M1696.65,303.24a3.39,3.39,0,0,0,0-.78c-.82-8.37-7.77-78.65-8.94-81.63-1.06-2.7-32.23-47.28-32.23-47.28l-15.31,20.87,30,40c.67,2.54,11.48,50,11.48,50s2.22,8.65,3.21,13.83c-.45,1.24-.89,2.42-1.29,3.39a30.64,30.64,0,0,1-3.23,5.19,35.4,35.4,0,0,0-3.82,6.77c-.32,1.22-.89,3.76-1.22,5.29s-.76,3.31-.84,4.14a8.14,8.14,0,0,1-1,2.23,1.34,1.34,0,0,0,1.58,1.93c1.09-.36,1.94-1.77,2.46-2.65,1.47-2.48,2.26-7,2.63-6.77s1.66,7.92,1.86,8.79,1.76,9.79,2.63,11.42,2,1.35,2.34.33-1-13.35-1-13.35-.15-1.6.55-1.1,1.83,11.83,2.32,13.48,1.59,2.54,2.53,1.21c1.14-1.62-.82-13.64-.82-13.64s-.22-1.51.42-1.37,1.46,9.8,2,10.63a1.27,1.27,0,0,0,2.37-.26c.71-1.64-1.13-12.35-1.13-12.35s.09-.85.49-.57,1.68,8.47,2.52,9.23a.89.89,0,0,0,1.28,0c1.52-1-.82-8.82-.79-12.69s-1.78-8.22-1.24-12.82C1696.49,304.4,1696.59,303.69,1696.65,303.24Z" transform="translate(44 -6.65)"/><path class="cls-9" d="M1679.84,201.78l-26.62,17.88s-15-22.33-23.06-30.28c-10.09-10,3.67-40.46,10.18-38.74C1654.88,154.5,1679.84,201.78,1679.84,201.78Z" transform="translate(44 -6.65)"/></g><g class="cls-43"><path class="cls-32" d="M1823.58,424.79c7.9-24,16.74-23,16.74-23l-6.83,50.4c-4.88-1.33-11.24-4.3-16.11-5.68A217.33,217.33,0,0,1,1823.58,424.79Z" transform="translate(44 -6.65)"/><path class="cls-21" d="M1826,362.46c2.42-15.77,16.69-27.1,31.6-19.45a35.44,35.44,0,0,1,10.22,8.18c6.26,8,7.87,18,14.34,25.78a65,65,0,0,1-8.68,5.51l-4-5.37,1.39,6.7c-10,4.79-24.16,8.75-43.5,8.64A83.46,83.46,0,0,1,1826,362.46Z" transform="translate(44 -6.65)"/><path class="cls-5" d="M1860.54,397.54s12.83-1.68,18.59,4.61S1868.09,459,1867,467s7.36,28.09,7.36,28.09-36.69,6.9-46.47.41c0,0-.58-56.37.47-62.09s9.77-29,11.87-31.27S1860.54,397.54,1860.54,397.54Z" transform="translate(44 -6.65)"/><path class="cls-8" d="M1855.7,378s.07.43.21,1.16c.65,3.51,3.15,15.15,4.84,18.35,2,3.86-7,16.2-15.68,14.69-2.59-.45,2.19-11.33,2-12.48-.44-2.21-1-5.22-1.65-8.31-.34-1.74-.69-3.5-1-5.16-.93-4.72-1.68-8.58-1.68-8.58Z" transform="translate(44 -6.65)"/><path class="cls-44" d="M1855.91,379.2c-.14-.73-.21-1.16-.21-1.16l-13-.33s.75,3.86,1.68,8.58c.33,1.65.68,3.4,1,5.13a12.07,12.07,0,0,0,6.21-3.12,16.39,16.39,0,0,0,4.71-7C1856.14,380.46,1856,379.74,1855.91,379.2Z" transform="translate(44 -6.65)"/><path class="cls-8" d="M1846.93,348.38s6.14-.72,10,4.27,8,20.41-1.57,28.8-19-1.11-20.39-11.17S1833,348,1846.93,348.38Z" transform="translate(44 -6.65)"/><path class="cls-8" d="M1832.13,370.13c1.14,2.22,3,3.45,4.28,2.75s1.28-3.08.14-5.3-3-3.46-4.28-2.75S1831,367.9,1832.13,370.13Z" transform="translate(44 -6.65)"/><path class="cls-21" d="M1846.25,346.73s8.2,14.66,14.06,15.34,6.64,8.47,6.64,8.47-2.1-18-7.91-21.42S1846.25,346.73,1846.25,346.73Z" transform="translate(44 -6.65)"/><path class="cls-8" d="M1858.77,365.75c-.47,2.61.49,5,2.15,5.34s3.39-1.49,3.87-4.1-.49-5-2.15-5.33S1859.25,363.15,1858.77,365.75Z" transform="translate(44 -6.65)"/><path class="cls-10" d="M1851.55,375.21l-8.87,1.75a4,4,0,0,0,4.79,2.68C1852.25,378.84,1851.55,375.21,1851.55,375.21Z" transform="translate(44 -6.65)"/><path class="cls-32" d="M1876.82,400.41s4.84,2.29,9.1,12.21c4,9.42,5.23,56.46,5.23,56.46l-17.65-2.92L1867,444.47c-2-8.59-4.32-28.41,4.15-40C1873.36,401.38,1875.44,399.52,1876.82,400.41Z" transform="translate(44 -6.65)"/></g><g class="cls-45"><path class="cls-21" d="M308.36,656.83a56.09,56.09,0,0,0-5.13-27.07c-3.57-7.43-12.41-11.65-20.46-11.66-25.59,0-28.84,33.77-45.13,46.81-5,4-10.54,7.23-15.25,11.53-17.39,15.86-9.55,45.23,6.41,59.14,11.08,9.66,28.5,15.14,42.15,7.59,7.13-3.93,12.54-10.48,16.4-17.66,5.47-10.18,9-21.92,12.89-32.78C304.38,681.18,307.85,669.16,308.36,656.83Z" transform="translate(44 -6.65)"/><path class="cls-9" d="M298.79,742.21s-19.1-19.59-24-28.1,3.35-3,11.79-5.21c3.2-.85,2.39-19.59,8.43-13.5,9.92,10,22.38,27.47,22.38,27.47Z" transform="translate(44 -6.65)"/><path class="cls-41" d="M271.63,686.81s-17.15-3.39-25,3.15,1.68,64.67,1.67,74.3-5.37,34.8-5.37,34.8,52,11.16,60.23-3.3c0,0,2.35-55.12,2-62S297.12,698.44,295,695.4,271.63,686.81,271.63,686.81Z" transform="translate(44 -6.65)"/><path class="cls-8" d="M271.52,660.28s-.09.52-.25,1.39c-.78,4.18-3.78,18.07-5.8,21.89-2.45,4.61,8.37,19.32,18.78,17.52,3.1-.53-2.62-13.51-2.34-14.89.52-2.63,1.24-6.22,2-9.91.41-2.07.82-4.18,1.22-6.16l2-10.23Z" transform="translate(44 -6.65)"/><path class="cls-9" d="M271.27,661.67c.16-.87.25-1.39.25-1.39l15.6-.39-2,10.23c-.39,2-.81,4.06-1.22,6.13a14.58,14.58,0,0,1-7.45-3.73,19.65,19.65,0,0,1-5.64-8.37C271,663.16,271.15,662.32,271.27,661.67Z" transform="translate(44 -6.65)"/><path class="cls-8" d="M282,624.89s-7.35-.84-12,5.11-9.58,24.34,1.87,34.35S294.69,663,296.37,651,298.7,624.46,282,624.89Z" transform="translate(44 -6.65)"/><path class="cls-21" d="M293.48,621.87s-14.33,20.54-28,17.79l-.38-8.76,1.26-3.32,6.91-4.44,11.24-2.56Z" transform="translate(44 -6.65)"/><path class="cls-8" d="M299.76,650.84c-1.37,2.65-3.67,4.12-5.13,3.28s-1.54-3.67-.17-6.32,3.66-4.12,5.12-3.28S301.12,648.19,299.76,650.84Z" transform="translate(44 -6.65)"/><path class="cls-8" d="M267.83,645.63c.57,3.1-.58,6-2.57,6.36s-4.06-1.78-4.63-4.89.58-6,2.57-6.36S267.26,642.52,267.83,645.63Z" transform="translate(44 -6.65)"/><path class="cls-10" d="M286.44,657.74l-10.78-.56s0,4.11,4.77,4.49C286.2,662.14,286.44,657.74,286.44,657.74Z" transform="translate(44 -6.65)"/><path class="cls-10" d="M286.44,657.74l-10.78-.56s0,4.11,4.77,4.49C286.2,662.14,286.44,657.74,286.44,657.74Z" transform="translate(44 -6.65)"/><path class="cls-9" d="M253.12,741.53s-11.26-24.95-13-34.63,6.6-21.83,15.3-21,21.74,43.85,21.74,43.85Z" transform="translate(44 -6.65)"/></g></svg>