<?xml version="1.0" encoding="utf-8"?>
<!-- Generator: Adobe Illustrator 23.0.0, SVG Export Plug-In . SVG Version: 6.00 Build 0)  -->
<svg version="1.1" id="Layer_1" xmlns="http://www.w3.org/2000/svg" xmlns:xlink="http://www.w3.org/1999/xlink" x="0px" y="0px"
	 viewBox="0 0 1932.4 1170.3" style="enable-background:new 0 0 1932.4 1170.3;" xml:space="preserve">
<style type="text/css">
	.st0{fill:#468BB7;}
	.st1{fill:#743064;}
	.st2{fill:#303030;}
	.st3{fill:#56585E;}
	.st4{fill:#0A2126;}
	.st5{fill:#004555;}
	.st6{fill:#1E0C00;}
	.st7{fill:#0089A9;}
	.st8{fill:#3C1047;}
	.st9{fill:#FD5E5A;}
	.st10{fill:#FC7575;}
	.st11{fill:#AF9BE2;}
	.st12{fill:#CFC3EE;}
	.st13{fill:#8475AA;}
	.st14{fill:url(#SVGID_1_);}
	.st15{fill:#F8F0A1;}
	.st16{fill:#6B9FC5;}
	.st17{fill:url(#SVGID_2_);}
	.st18{fill:#002B32;}
	.st19{fill:#746C87;}
	.st20{fill:#FFFFFF;}
	.st21{fill:#2E0A29;}
	.st22{fill:#172866;}
	.st23{fill:#001542;}
	.st24{fill:#FF4747;}
	.st25{fill:#4D475B;}
	.st26{fill:#998DB6;}
	.st27{fill:#703C6A;}
	.st28{fill:#47003F;}
	.st29{fill:#060032;}
	.st30{fill:#482044;}
	.st31{fill:#FF7B7B;}
	.st32{fill:#4B2847;}
	.st33{fill:#99CEDC;}
	.st34{fill:#95508D;}
	.st35{fill:#CEF2FA;}
	.st36{fill:#5DB9F4;}
	.st37{fill:#00485C;}
	.st38{fill:#333A6A;}
	.st39{fill:#47405C;}
	.st40{fill:#5F557B;}
	.st41{fill:#C3EDF4;}
	.st42{fill:#363A68;}
	.st43{fill:#260E0D;}
	.st44{fill:#2F1954;}
	.st45{fill:#0E0E0E;}
	.st46{fill:#F1A97E;}
	.st47{fill:#121841;}
	.st48{fill:#2F499F;}
	.st49{fill:#555DA2;}
	.st50{fill:#777EB5;}
	.st51{fill:#1E3340;}
	.st52{fill:#EEF1F9;}
	.st53{fill:#2B3278;}
	.st54{fill:#403003;}
	.st55{fill:#4C3D65;}
	.st56{fill:#554004;}
	.st57{fill:#322844;}
	.st58{fill:#000945;}
	.st59{fill:#F66D75;}
	.st60{fill:#98B0BF;}
	.st61{fill:#2D1175;}
	.st62{fill:#CAEBFF;}
	.st63{fill:#C33EA4;}
	.st64{fill:#7F71A4;}
	.st65{fill:#B2AAC8;}
	.st66{fill:#0A6980;}
	.st67{fill:#084F60;}
	.st68{fill:#D4C5F6;}
	.st69{fill:#313B3D;}
	.st70{fill:url(#SVGID_3_);}
	.st71{fill:#339CB4;}
	.st72{fill:#666E9E;}
	.st73{fill:#371C45;}
	.st74{fill:#170053;}
	.st75{fill:#510B5E;}
	.st76{fill:#42004A;}
	.st77{opacity:0.53;fill:#FD5E5A;}
	.st78{fill:#322554;}
	.st79{fill:#1B2B80;}
	.st80{fill:#023135;}
	.st81{fill:#560D68;}
</style>
<g>
	<path class="st0" d="M1620.6,1082c0,25.8-339.9,46.8-759.1,46.8s-759.1-20.9-759.1-46.8c0-25.8,339.9-46.8,759.1-46.8
		S1620.6,1056.2,1620.6,1082z"/>
	<rect x="1343" y="668.3" class="st1" width="14" height="413.6"/>
	<g>
		<g>
			<rect x="881.1" y="795.2" class="st2" width="29.5" height="40.6"/>
			<g>
				<g>
					<rect x="882.5" y="806.2" class="st3" width="25.6" height="197.3"/>
				</g>
				<g>
					<polygon class="st4" points="1035,1040.9 912.2,975.4 912.2,1005.2 1000.2,1040.9 1000.2,1047.4 1035,1047.4 					"/>
					<polygon class="st4" points="912.2,1005.2 878.8,1005.2 878.8,975.4 878.8,951.4 912.2,951.4 					"/>
					<polygon class="st4" points="756,1040.9 878.8,975.4 878.8,1005.2 790.8,1040.9 790.8,1047.4 756,1047.4 					"/>
					<polygon class="st4" points="884.3,975.4 884.3,1047.4 876.1,1047.4 876.1,1052.5 912.2,1052.5 912.2,1047.4 904.5,1047.4 
						906.9,975.4 					"/>
				</g>
			</g>
		</g>
		<g>
			<path class="st5" d="M949.2,695.8H827.2l-33.5-207.6c-6-37.3,22.8-71.1,60.6-71.1h68.1c37.8,0,66.6,33.8,60.6,71.1L949.2,695.8z"
				/>
			<polygon class="st6" points="810.5,592.7 760.4,612.6 791.2,740.8 804.6,738.8 789.9,627.1 816.5,615.7 			"/>
			<polygon class="st6" points="962.6,592.7 1005.4,622.5 998.3,747.4 981,744.2 987.1,636.5 952.7,616.3 			"/>
			<path class="st7" d="M1018.3,761.5H789.9v-22.6h205.8C1008.2,738.8,1018.3,749,1018.3,761.5L1018.3,761.5z"/>
		</g>
	</g>
	<path class="st8" d="M942.3,331.9c0,0-4.8,54.2,10.1,69.1c14.9,14.9,17,14.5,22.2,13.1c0,0-3.4,9.2-12.9,9.8c-0.6,0-1.3,0-2,0
		c-11-0.7,0.9,8.3,6.6,10.3c5.7,2-11.5,4.3-23.6,1.4c-7.4-1.8-84.7-0.8-96.7-11.5c-7.5-6.7,25.3-40,26.9-56.8
		C876.8,323.5,942.3,331.9,942.3,331.9z"/>
	<path class="st9" d="M1097.7,327.3c0,0-7.2,15.2-10.3,32.7c-3.1,17.5,1.6,48.4,10.3,61.4c8.7,13,9.6,17.8,17.5,17.8
		c7.9,0,39.4-13.9,42.2-46c2.8-32.1-57.5-65.9-57.5-65.9H1097.7z"/>
	<path class="st10" d="M1423.6,601.8c0,0-20.3-9.3-26.5-15.5c-6.3-6.3-26-22.5-36-22.5c-10,0-60,22.4-53,25c7,2.6,45.5-8.9,45.5-8.9
		s-45,18.5-37,22c8,3.5,32.5-6,32.5-6s-12.5,6-12.5,10.5c0,4.5,18.3-4.5,28.9-4.5c10.6,0,38.6,17.5,38.6,17.5L1423.6,601.8z"/>
	<g>
		<g>
			<path class="st11" d="M1535.3,876.9c-3.8,4-10.7,6.5-18.6,6.2c-7.8-0.3-14.6-3.3-18.1-7.5c3.8-4,10.7-6.5,18.6-6.2
				C1525.1,869.6,1531.8,872.6,1535.3,876.9z"/>
			<g>
				<path class="st11" d="M1620.4,1040c-5.2-35.7-7.6-71.7-7-107.6c0.1-18,1.1-35.9,2.6-53.8c1.4-17.9,3.6-35.7,6-53.5
					c5.1-35.5,12.3-70.7,21.2-105.5c4.5-17.4,9.4-34.6,14.8-51.7c5.4-17.1,11.2-34,17.9-50.7l2.1,0.9c-6.4,16.6-12,33.6-17.2,50.7
					c-5.2,17.1-9.9,34.3-14.2,51.7c-8.5,34.7-15.2,69.9-19.8,105.3c-2.3,17.7-4.2,35.5-5.3,53.3c-1.2,17.8-2,35.6-1.9,53.5
					c-0.2,35.6,2.7,71.3,8.3,106.4L1620.4,1040z"/>
				<path class="st11" d="M1686.4,545.7c-10.2,6.1-18.2,19.1-20.5,35c-2.3,15.9,1.9,30.6,10,39.3c10.2-6.1,18.3-19.1,20.5-35
					C1698.6,569.1,1694.5,554.4,1686.4,545.7z"/>
				<path class="st11" d="M1626.6,600.4c-1.2,9.2,2.7,20.5,11.2,29.6c8.6,9.1,19.6,13.8,28.8,13.2c1.2-9.2-2.7-20.5-11.3-29.6
					C1646.8,604.4,1635.8,599.7,1626.6,600.4z"/>
				<path class="st11" d="M1667.4,648.2c7.8,5,19.7,6.3,31.6,2.4c11.9-3.9,20.8-11.8,24.2-20.5c-7.8-5-19.7-6.3-31.6-2.4
					C1679.7,631.6,1670.8,639.6,1667.4,648.2z"/>
				<path class="st11" d="M1656.7,682c7.8,5,19.7,6.3,31.6,2.4c11.9-3.9,20.8-11.8,24.2-20.5c-7.8-5-19.7-6.3-31.6-2.4
					C1669,665.4,1660.1,673.4,1656.7,682z"/>
				<path class="st11" d="M1644.6,722.3c7.8,5,19.7,6.3,31.6,2.4c11.9-3.9,20.8-11.8,24.2-20.5c-7.8-5-19.7-6.3-31.6-2.4
					C1656.8,705.8,1647.9,713.7,1644.6,722.3z"/>
				<path class="st11" d="M1636.4,759.9c7.8,5,19.7,6.3,31.6,2.4c11.9-3.9,20.8-11.8,24.2-20.5c-7.8-5-19.7-6.3-31.6-2.4
					C1648.7,743.3,1639.8,751.3,1636.4,759.9z"/>
				<path class="st11" d="M1639.8,752.3c-7.8,5-19.7,6.3-31.6,2.4c-11.9-3.9-20.8-11.8-24.2-20.5c7.8-5,19.7-6.3,31.6-2.4
					C1627.6,735.7,1636.5,743.7,1639.8,752.3z"/>
				<path class="st11" d="M1615.7,636.1c-1.2,9.2,2.7,20.5,11.3,29.6c8.6,9.1,19.6,13.8,28.8,13.2c1.2-9.2-2.7-20.5-11.3-29.6
					C1635.9,640.1,1624.9,635.5,1615.7,636.1z"/>
				<path class="st11" d="M1603.2,676.7c-1.2,9.2,2.7,20.5,11.3,29.6c8.6,9.1,19.6,13.8,28.8,13.2c1.2-9.2-2.7-20.5-11.3-29.6
					C1623.4,680.7,1612.4,676.1,1603.2,676.7z"/>
				<g>
					<path class="st11" d="M1849.7,711.2c-15.6,8.6-30.2,18.7-44.3,29.4c-14.1,10.7-27.6,22.3-40.6,34.5
						c-12.9,12.2-25.2,25-36.8,38.5c-11.6,13.5-22.4,27.6-32.6,42.2c-20.3,29.2-37.2,60.8-50.9,93.7
						c-13.3,33.1-23.2,67.5-29.4,102.7l7.5,1.3c5.6-34.7,14.8-68.8,27.5-101.7c13-32.7,29.2-64.2,48.9-93.5
						c9.8-14.6,20.4-28.8,31.7-42.4c11.3-13.5,23.3-26.5,36-38.8c12.7-12.3,25.9-24,39.8-34.9c13.9-10.8,28.4-21.2,43.7-29.9
						L1849.7,711.2z"/>
					<path class="st11" d="M1907.1,671.1c-0.8,11.8-8.7,24.9-21.8,34.2c-13.1,9.2-28.1,12.2-39.5,9c0.8-11.8,8.7-24.9,21.8-34.2
						C1880.7,670.9,1895.7,667.9,1907.1,671.1z"/>
					<path class="st11" d="M1818.9,661.1c8.8,8,14.1,22.3,13.2,38.3c-0.9,16-7.9,29.6-17.5,36.5c-8.8-8-14.1-22.3-13.2-38.3
						C1802.3,681.6,1809.3,668,1818.9,661.1z"/>
					<path class="st11" d="M1766.8,687.2c10.6,5.4,19.6,17.7,22.9,33.4c3.4,15.7,0.3,30.6-7.1,39.9c-10.6-5.4-19.6-17.7-22.9-33.4
						C1756.3,711.5,1759.4,696.5,1766.8,687.2z"/>
					<path class="st11" d="M1731.7,719.6c10.6,5.4,19.6,17.7,22.9,33.4c3.4,15.7,0.3,30.6-7.1,39.9c-10.6-5.4-19.6-17.7-22.9-33.4
						C1721.1,743.8,1724.2,728.8,1731.7,719.6z"/>
					<path class="st11" d="M1691.2,752.8c11.6,2.5,23.4,12.2,30.7,26.4c7.3,14.3,8.1,29.5,3.3,40.4c-11.6-2.5-23.5-12.1-30.7-26.4
						C1687.2,778.9,1686.4,763.6,1691.2,752.8z"/>
					<path class="st11" d="M1662.7,794.4c10.6-0.5,23,5.2,32.5,15.9c9.5,10.7,13.7,23.7,11.9,34.2c-10.6,0.4-23-5.2-32.5-15.9
						C1665.2,817.9,1661,804.8,1662.7,794.4z"/>
					<path class="st11" d="M1642.1,820.6c10.6-0.5,23,5.2,32.5,15.9c9.5,10.7,13.7,23.7,11.9,34.2c-10.6,0.4-23-5.2-32.5-15.9
						C1644.5,844,1640.3,831,1642.1,820.6z"/>
					<path class="st11" d="M1630.2,859.1c9.1-0.4,19.7,4.5,27.9,13.6c8.1,9.2,11.7,20.3,10.2,29.3c-9.1,0.4-19.7-4.5-27.9-13.6
						C1632.3,879.2,1628.8,868.1,1630.2,859.1z"/>
					<path class="st11" d="M1618.8,899.4c6.6-3.7,16.4-4.2,26-0.5c9.6,3.7,16.6,10.6,19,17.8c-6.6,3.7-16.4,4.2-26,0.5
						C1628.2,913.5,1621.2,906.5,1618.8,899.4z"/>
					<path class="st11" d="M1614.2,932.5c4.1-4.5,11.4-7.4,19.6-7c8.3,0.4,15.3,3.8,19,8.7c-4.1,4.5-11.4,7.4-19.7,7
						C1624.9,940.8,1617.8,937.4,1614.2,932.5z"/>
					<path class="st11" d="M1885.3,759.2c-10.1,6.2-25.3,7.5-40.5,2.3c-15.1-5.2-26.3-15.7-30.4-26.8c10.1-6.2,25.3-7.5,40.5-2.3
						C1870.1,737.7,1881.3,748.1,1885.3,759.2z"/>
					<path class="st11" d="M1853.4,785.5c-10.1,6.2-25.3,7.5-40.5,2.3c-15.1-5.2-26.3-15.7-30.4-26.8c10.1-6.2,25.3-7.5,40.5-2.3
						C1838.1,764,1849.3,774.4,1853.4,785.5z"/>
					<path class="st11" d="M1819.3,818c-10.1,6.2-25.3,7.5-40.5,2.3c-15.1-5.2-26.3-15.7-30.4-26.8c10.1-6.2,25.3-7.5,40.5-2.3
						C1804,796.4,1815.2,806.8,1819.3,818z"/>
					<path class="st11" d="M1780.8,839.6c-8.2,5.1-20.6,6.1-32.9,1.9c-12.3-4.3-21.4-12.7-24.7-21.8c8.2-5.1,20.6-6.1,32.9-1.9
						C1768.4,822,1777.5,830.5,1780.8,839.6z"/>
					<path class="st11" d="M1752,860.2c-6.7,4.3-16.8,5.3-26.7,1.9c-10-3.4-17.2-10.4-19.8-18c6.7-4.3,16.8-5.3,26.7-1.9
						C1742.1,845.6,1749.4,852.6,1752,860.2z"/>
					<path class="st11" d="M1734.8,886.7c-6.7,4.3-16.8,5.3-26.7,1.9c-9.9-3.4-17.2-10.4-19.8-18c6.7-4.3,16.8-5.3,26.7-1.9
						C1724.9,872.2,1732.2,879.2,1734.8,886.7z"/>
					<path class="st11" d="M1715.9,910.7c-5.4,4.6-14.5,6.9-24.3,5.3c-9.8-1.6-17.7-6.6-21.4-12.7c5.4-4.6,14.5-6.9,24.3-5.3
						C1704.3,899.6,1712.2,904.6,1715.9,910.7z"/>
					<path class="st11" d="M1697.6,940.9c-6.1,1.7-14.3,0.2-21.4-4.7c-7.2-4.9-11.6-11.9-12.2-18.3c6.1-1.7,14.3-0.2,21.5,4.7
						C1692.6,927.6,1697,934.6,1697.6,940.9z"/>
					<path class="st11" d="M1677.3,959c-4.8,0.4-10.7-1.9-15.5-6.6c-4.7-4.7-7-10.6-6.6-15.5c4.8-0.4,10.7,1.9,15.4,6.6
						C1675.5,948.2,1677.8,954.1,1677.3,959z"/>
					<path class="st11" d="M1663.9,963.7c-3.2,0.5-6.9-0.8-9.8-3.7c-2.9-2.9-4.2-6.6-3.7-9.8c3.2-0.5,6.9,0.8,9.8,3.7
						C1663.1,956.8,1664.4,960.5,1663.9,963.7z"/>
					<path class="st11" d="M1659.5,972.6c-3.2,0.5-6.9-0.8-9.8-3.7c-2.9-2.9-4.2-6.6-3.7-9.8c3.2-0.5,6.9,0.8,9.8,3.7
						C1658.7,965.7,1660,969.4,1659.5,972.6z"/>
				</g>
				<g>
					<path class="st12" d="M1503.3,681.3c11.1,12.2,20.9,25.4,30.2,39c9.2,13.6,17.6,27.8,25.4,42.4c7.7,14.6,14.7,29.5,20.9,44.8
						c6.1,15.3,11.5,30.9,16,46.8c9.1,31.7,14.6,64.5,16.7,97.5c1.8,33,0.2,66.2-4.7,98.9l-7-1.1c5.4-32.2,7.5-64.9,6.2-97.5
						c-1.6-32.6-6.5-65.1-15.1-96.7c-4.3-15.8-9.3-31.4-15.2-46.7c-5.9-15.3-12.6-30.2-20.1-44.8c-7.5-14.6-15.6-28.8-24.6-42.5
						c-9-13.7-18.6-27.1-29.4-39.3L1503.3,681.3z"/>
					<path class="st12" d="M1464.8,629c-2.8,10.6,0.2,24.5,9,36.5c8.8,12,21,19.1,32,19.7c2.8-10.6-0.2-24.5-9-36.5
						C1488.1,636.6,1475.8,629.5,1464.8,629z"/>
					<path class="st12" d="M1545.3,646.5c-10.1,4.4-19.1,15.4-23,29.7c-4,14.3-1.9,28.3,4.5,37.3c10.1-4.4,19.1-15.4,23-29.7
						C1553.8,669.5,1551.7,655.4,1545.3,646.5z"/>
					<path class="st12" d="M1583.3,685c-10.9,1.6-22.5,9.8-30.1,22.5c-7.6,12.8-9.4,26.8-5.6,37.2c10.9-1.6,22.5-9.8,30.1-22.5
						C1585.3,709.4,1587,695.3,1583.3,685z"/>
					<path class="st12" d="M1604.5,723.8c-10.9,1.6-22.5,9.8-30.1,22.5c-7.6,12.8-9.4,26.8-5.6,37.2c10.9-1.6,22.5-9.8,30.1-22.5
						C1606.5,748.2,1608.2,734.2,1604.5,723.8z"/>
					<path class="st12" d="M1630.1,765.1c-10.9-1.3-24.2,3.7-34.9,14.1c-10.6,10.4-15.9,23.5-14.9,34.5c10.9,1.3,24.2-3.7,34.9-14.1
						C1625.8,789.2,1631.1,776,1630.1,765.1z"/>
					<path class="st12" d="M1642.7,810.1c-9.2-3.5-21.8-2.3-33.3,4.3c-11.5,6.6-19.1,16.8-20.7,26.4c9.2,3.5,21.8,2.3,33.3-4.3
						C1633.6,830,1641.1,819.8,1642.7,810.1z"/>
					<path class="st12" d="M1653.1,839.2c-9.2-3.5-21.8-2.3-33.3,4.3c-11.5,6.6-19.1,16.8-20.7,26.4c9.2,3.5,21.8,2.3,33.3-4.3
						C1643.9,859.1,1651.5,848.9,1653.1,839.2z"/>
					<path class="st12" d="M1652,876.6c-7.9-3-18.7-2-28.5,3.7c-9.9,5.6-16.3,14.4-17.7,22.7c7.9,3,18.7,1.9,28.5-3.7
						C1644.1,893.7,1650.6,885,1652,876.6z"/>
					<path class="st12" d="M1650,915.4c-4.7-5.2-13.2-8.6-22.7-8.2c-9.6,0.4-17.7,4.4-22,10c4.7,5.2,13.2,8.6,22.7,8.2
						C1637.6,925,1645.8,921,1650,915.4z"/>
					<path class="st12" d="M1644.2,945.9c-2.2-5.2-7.8-9.9-15.2-12c-7.4-2.1-14.6-1.2-19.2,2c2.2,5.2,7.8,9.9,15.2,12
						C1632.3,950,1639.5,949.1,1644.2,945.9z"/>
					<path class="st12" d="M1457.7,712.8c7,8.5,20,14.2,34.9,14.1c14.9-0.1,27.8-5.9,34.7-14.5c-7-8.5-20-14.2-34.9-14.1
						C1477.5,698.4,1464.6,704.3,1457.7,712.8z"/>
					<path class="st12" d="M1477.9,745.5c7,8.5,20,14.2,34.9,14.1c14.9-0.1,27.8-5.9,34.7-14.5c-7-8.5-20-14.2-34.9-14.1
						C1497.8,731.1,1484.8,736.9,1477.9,745.5z"/>
					<path class="st12" d="M1498.2,784.2c7,8.5,20,14.2,34.9,14.1c14.9-0.1,27.8-5.9,34.7-14.5c-7-8.5-20-14.2-34.9-14.1
						C1518,769.8,1505.1,775.6,1498.2,784.2z"/>
					<path class="st12" d="M1525.6,814.6c5.7,6.9,16.3,11.5,28.3,11.4c12.1-0.1,22.6-4.8,28.2-11.8c-5.7-6.9-16.3-11.5-28.4-11.4
						C1541.7,802.9,1531.2,807.6,1525.6,814.6z"/>
					<path class="st12" d="M1544.7,841.3c4.6,5.8,13.1,9.7,22.9,9.6c9.8-0.1,18.3-4,22.8-9.9c-4.6-5.8-13.1-9.7-22.9-9.6
						C1557.7,831.5,1549.2,835.4,1544.7,841.3z"/>
					<path class="st12" d="M1551.9,869.7c4.6,5.8,13.1,9.7,22.9,9.6c9.8-0.1,18.3-4,22.8-9.9c-4.6-5.8-13.1-9.7-22.9-9.6
						C1565,859.9,1556.5,863.9,1551.9,869.7z"/>
					<path class="st12" d="M1561.4,896.4c3.4,5.7,10.7,10.4,19.8,11.9c9.1,1.5,17.5-0.5,22.6-4.8c-3.4-5.7-10.7-10.4-19.8-11.9
						C1574.9,890.1,1566.4,892.2,1561.4,896.4z"/>
					<path class="st12" d="M1568.4,928.4c4.9,3.4,12.5,4.4,20.3,2.2c7.8-2.2,13.8-7,16.2-12.4c-4.9-3.4-12.5-4.4-20.3-2.2
						C1576.8,918.2,1570.8,923,1568.4,928.4z"/>
					<path class="st12" d="M1580.8,950.3c4.1,1.8,10,1.5,15.5-1.2c5.5-2.7,9.3-7.2,10.4-11.6c-4.1-1.8-10-1.5-15.5,1.2
						C1585.7,941.4,1581.9,945.9,1580.8,950.3z"/>
					<path class="st12" d="M1591.3,958.5c2.7,1.4,6.3,1.4,9.7-0.3c3.4-1.7,5.6-4.6,6.1-7.5c-2.7-1.4-6.3-1.4-9.7,0.3
						C1594,952.6,1591.8,955.5,1591.3,958.5z"/>
					<path class="st12" d="M1592.4,967.6c2.6,1.4,6.3,1.4,9.7-0.3c3.4-1.7,5.6-4.6,6.1-7.5c-2.7-1.4-6.3-1.4-9.7,0.3
						C1595.2,961.7,1592.9,964.7,1592.4,967.6z"/>
				</g>
				<g>
					<path class="st13" d="M1739,645.1c-11.3,13.7-21.2,28.5-30.5,43.6c-9.2,15.2-17.5,30.9-25.1,46.9
						c-7.5,16.1-14.2,32.5-20.1,49.3c-5.8,16.8-10.7,33.9-14.8,51.2c-8.2,34.6-12.3,70.2-12.9,105.8c-0.2,35.6,3.2,71.3,10.3,106.3
						l7.5-1.6c-7.5-34.3-11.5-69.5-11.8-104.7c0-35.2,3.6-70.4,11.2-104.9c3.8-17.2,8.4-34.3,13.9-51c5.6-16.7,12-33.2,19.2-49.3
						c7.3-16.1,15.3-31.9,24.2-47.1c9-15.2,18.6-30.1,29.6-43.9L1739,645.1z"/>
					<path class="st13" d="M1777.7,586.7c3.6,11.3,1.1,26.4-7.7,39.8c-8.8,13.4-21.7,21.7-33.5,22.9c-3.6-11.3-1.1-26.4,7.7-39.8
						C1753.1,596.2,1765.9,587.9,1777.7,586.7z"/>
					<path class="st13" d="M1692,609.8c11.1,4.2,21.3,15.6,26.4,30.8c5,15.2,3.5,30.4-2.9,40.4c-11.1-4.2-21.3-15.6-26.4-30.8
						C1684.1,635,1685.6,619.8,1692,609.8z"/>
					<path class="st13" d="M1653.1,653.2c11.8,1.1,24.7,9.3,33.6,22.7c8.9,13.3,11.5,28.4,8,39.7c-11.8-1.1-24.7-9.3-33.6-22.7
						C1652.2,679.6,1649.6,664.6,1653.1,653.2z"/>
					<path class="st13" d="M1632.3,696.2c11.8,1.1,24.7,9.3,33.6,22.7c8.9,13.3,11.5,28.4,8,39.7c-11.8-1.1-24.7-9.3-33.6-22.7
						C1631.4,722.6,1628.8,707.5,1632.3,696.2z"/>
					<path class="st13" d="M1606.9,742c11.7-1.9,26.3,2.7,38.3,13.3c12,10.6,18.4,24.5,17.9,36.4c-11.7,1.9-26.3-2.7-38.3-13.3
						C1612.7,767.7,1606.4,753.8,1606.9,742z"/>
					<path class="st13" d="M1595.6,791.1c9.7-4.3,23.3-3.6,36.1,2.9c12.8,6.5,21.4,17,23.7,27.4c-9.7,4.3-23.3,3.6-36.1-2.9
						C1606.5,812,1597.9,801.5,1595.6,791.1z"/>
					<path class="st13" d="M1586,823c9.7-4.3,23.3-3.6,36.1,2.9c12.8,6.5,21.4,17,23.7,27.4c-9.7,4.3-23.3,3.6-36.1-2.9
						C1596.9,844,1588.3,833.4,1586,823z"/>
					<path class="st13" d="M1589.2,863.2c8.3-3.7,20-3.1,30.9,2.5c10.9,5.5,18.3,14.6,20.3,23.5c-8.3,3.7-20,3.1-30.9-2.5
						C1598.5,881.2,1591.1,872.1,1589.2,863.2z"/>
					<path class="st13" d="M1593.3,904.9c4.8-5.9,13.7-9.9,24-10c10.3-0.1,19.3,3.8,24.2,9.6c-4.8,5.9-13.7,9.9-24,10
						C1607.2,914.6,1598.2,910.7,1593.3,904.9z"/>
					<path class="st13" d="M1601.2,937.4c2.1-5.7,7.9-11,15.7-13.7c7.8-2.7,15.7-2.1,20.8,1.1c-2.1,5.7-7.9,11-15.7,13.7
						C1614.2,941.2,1606.3,940.6,1601.2,937.4z"/>
					<path class="st13" d="M1789.8,676.7c-7.1,9.5-20.8,16.3-36.8,17c-16,0.7-30.2-4.9-38.1-13.8c7.1-9.5,20.8-16.3,36.8-17
						C1767.7,662.2,1781.9,667.8,1789.8,676.7z"/>
					<path class="st13" d="M1769.7,712.9c-7.1,9.5-20.8,16.3-36.8,17c-16,0.7-30.2-4.9-38.1-13.8c7.1-9.5,20.8-16.3,36.8-17
						C1747.6,698.4,1761.8,704,1769.7,712.9z"/>
					<path class="st13" d="M1749.9,755.6c-7.1,9.5-20.8,16.3-36.8,17c-16,0.7-30.2-4.9-38.1-13.8c7.1-9.5,20.8-16.3,36.8-17
						C1727.8,741.1,1742,746.7,1749.9,755.6z"/>
					<path class="st13" d="M1722,789.8c-5.8,7.7-16.9,13.3-29.9,13.8c-13,0.6-24.6-4-31-11.2c5.8-7.7,16.9-13.3,29.9-13.8
						C1704.1,778,1715.6,782.6,1722,789.8z"/>
					<path class="st13" d="M1702.8,819.6c-4.6,6.5-13.6,11.1-24.2,11.6c-10.5,0.5-19.9-3.4-25.1-9.5c4.6-6.5,13.6-11.1,24.2-11.6
						C1688.3,809.7,1697.6,813.5,1702.8,819.6z"/>
					<path class="st13" d="M1696.5,850.5c-4.6,6.5-13.6,11.1-24.2,11.6c-10.5,0.4-19.9-3.4-25.1-9.5c4.6-6.5,13.6-11.1,24.2-11.6
						C1682,840.6,1691.3,844.5,1696.5,850.5z"/>
					<path class="st13" d="M1687.8,879.8c-3.4,6.3-11,11.7-20.7,13.8c-9.7,2.1-18.9,0.4-24.6-3.9c3.4-6.3,11-11.7,20.7-13.8
						C1672.9,873.7,1682.1,875.5,1687.8,879.8z"/>
					<path class="st13" d="M1681.9,914.6c-5.1,3.9-13.2,5.4-21.7,3.5c-8.5-1.9-15.2-6.8-18.1-12.5c5-3.9,13.2-5.4,21.7-3.5
						C1672.3,904,1679,908.9,1681.9,914.6z"/>
					<path class="st13" d="M1669.6,938.8c-4.3,2.2-10.7,2.2-16.8-0.5c-6.1-2.7-10.4-7.3-11.8-12c4.3-2.2,10.7-2.2,16.8,0.5
						C1663.9,929.5,1668.3,934.2,1669.6,938.8z"/>
					<path class="st13" d="M1658.8,948.2c-2.8,1.6-6.7,1.8-10.5,0.2c-3.7-1.6-6.3-4.6-7-7.8c2.8-1.6,6.7-1.8,10.5-0.2
						C1655.6,942,1658.1,945,1658.8,948.2z"/>
					<path class="st13" d="M1658.1,958.1c-2.8,1.6-6.7,1.8-10.5,0.2c-3.7-1.6-6.3-4.6-7-7.8c2.8-1.6,6.7-1.8,10.5-0.2
						C1654.8,951.9,1657.4,954.9,1658.1,958.1z"/>
				</g>
				<g>
					<path class="st11" d="M1574.3,930.8c-16.7-24.5-34.4-48.5-53.2-71.5l0.3-0.3c19.3,22.6,37.4,46.3,54.7,70.5
						c17.2,24.3,33.5,49.3,48.1,75.3c3.5,6.3,7,12.7,10.3,19.1c-1.3,0.7-2.6,1.5-3.9,2.2c-3.2-6.5-6.5-13-9.9-19.4
						C1606.7,980.6,1591,955.3,1574.3,930.8z"/>
					<path class="st11" d="M1502.6,828c6.2,0.6,12.6,4.7,16.6,11.4c4,6.7,4.7,14.3,2.3,20c-6.2-0.6-12.6-4.7-16.6-11.4
						C1500.9,841.3,1500.2,833.7,1502.6,828z"/>
					<path class="st11" d="M1548.5,842.3c2.5,4.9,2.6,12.3-0.2,19.6c-2.8,7.3-7.9,12.7-13,14.6c-2.5-4.9-2.6-12.3,0.2-19.6
						C1538.3,849.6,1543.4,844.2,1548.5,842.3z"/>
					<path class="st11" d="M1550.1,896.3c-4.2,3.6-11.3,5.4-19.1,4.3c-7.8-1.1-14.2-4.8-17.2-9.3c4.2-3.6,11.3-5.4,19.1-4.3
						C1540.6,888,1547,891.7,1550.1,896.3z"/>
					<path class="st11" d="M1568.6,920.2c-4.2,3.6-11.3,5.4-19.1,4.3c-7.8-1.1-14.2-4.7-17.2-9.3c4.2-3.6,11.3-5.4,19.1-4.3
						C1559.1,911.9,1565.5,915.6,1568.6,920.2z"/>
					<path class="st11" d="M1581.2,939.2c-4.2,3.6-11.3,5.4-19.1,4.3c-7.8-1.1-14.1-4.8-17.2-9.3c4.2-3.6,11.3-5.4,19.1-4.3
						C1571.7,931,1578.1,934.6,1581.2,939.2z"/>
					<path class="st11" d="M1595.1,960.3c-4.2,3.6-11.3,5.4-19.1,4.3c-7.8-1.1-14.1-4.8-17.2-9.3c4.2-3.6,11.3-5.4,19.1-4.3
						C1585.7,952,1592.1,955.7,1595.1,960.3z"/>
					<path class="st11" d="M1564.6,862.8c2.5,4.9,2.6,12.3-0.2,19.6c-2.8,7.3-7.9,12.7-13,14.6c-2.5-4.9-2.6-12.3,0.2-19.6
						C1554.4,870.1,1559.5,864.7,1564.6,862.8z"/>
					<path class="st11" d="M1580.1,883.9c2.5,4.9,2.6,12.3-0.2,19.6c-2.8,7.3-7.9,12.7-13,14.6c-2.5-4.9-2.6-12.3,0.2-19.6
						C1569.8,891.2,1574.9,885.9,1580.1,883.9z"/>
					<path class="st11" d="M1594.7,905.2c2.5,4.9,2.6,12.3-0.2,19.6c-2.8,7.3-7.9,12.7-13,14.6c-2.5-4.9-2.6-12.3,0.2-19.6
						C1584.5,912.5,1589.6,907.1,1594.7,905.2z"/>
					<path class="st11" d="M1608.9,926.1c2.5,4.9,2.6,12.3-0.2,19.6c-2.8,7.3-7.9,12.7-13,14.6c-2.5-4.9-2.6-12.3,0.2-19.6
						C1598.7,933.4,1603.8,928,1608.9,926.1z"/>
				</g>
			</g>
		</g>
		<linearGradient id="SVGID_1_" gradientUnits="userSpaceOnUse" x1="1533.041" y1="1027.002" x2="1704.5443" y2="1027.002">
			<stop  offset="0" style="stop-color:#F24949"/>
			<stop  offset="1" style="stop-color:#FFC16F"/>
		</linearGradient>
		<path class="st14" d="M1563.2,986.9h111.1c18.5,9.4,30.2,23.5,30.2,39.1c0,16.7-13.4,31.6-34,41h-103.5c-20.7-9.4-34-24.3-34-41
			C1533,1010.4,1544.8,996.4,1563.2,986.9z"/>
		<path class="st15" d="M1573.7,995.7c-11-1.3-25.6,7-29.4,23.6c-5.2,32.8,27.7,42.4,45.6,34.1c-15.6-3.9-32.7-11.1-33.2-27.2
			c-0.9-8.4,4.1-16.6,4.2-16.8c0.7-1,2.1-3.5,4.7-6.3C1567.9,1000.3,1570.7,998,1573.7,995.7z"/>
		
			<rect x="1558" y="982.1" transform="matrix(-1 -1.224647e-16 1.224647e-16 -1 3238.8433 1971.9664)" class="st16" width="122.8" height="7.7"/>
	</g>
	<g>
		<g>
			<path class="st11" d="M304.3,856.7c-3.8,4-10.7,6.5-18.6,6.2c-7.8-0.3-14.6-3.3-18.1-7.6c3.8-4,10.7-6.5,18.6-6.2
				C294.1,849.5,300.8,852.5,304.3,856.7z"/>
			<g>
				<path class="st11" d="M389.4,1020.3c-5.2-35.7-7.6-71.7-7-107.6c0.1-18,1.1-35.9,2.6-53.8c1.4-17.9,3.6-35.7,6-53.5
					c5.1-35.5,12.3-70.7,21.2-105.5c4.5-17.4,9.4-34.6,14.8-51.7c5.4-17.1,11.2-34,17.9-50.7l2.1,0.9c-6.4,16.6-12,33.6-17.2,50.7
					c-5.2,17.1-9.9,34.3-14.2,51.7c-8.5,34.7-15.2,69.9-19.8,105.3c-2.3,17.7-4.2,35.5-5.3,53.3c-1.2,17.8-1.9,35.6-1.9,53.5
					c-0.2,35.6,2.7,71.3,8.3,106.4L389.4,1020.3z"/>
				<path class="st11" d="M455.5,526c-10.2,6.1-18.3,19.1-20.5,35c-2.3,15.9,1.9,30.6,10,39.3c10.2-6.1,18.2-19.1,20.5-35
					C467.7,549.4,463.5,534.7,455.5,526z"/>
				<path class="st11" d="M395.6,580.7c-1.2,9.2,2.7,20.5,11.3,29.6c8.6,9.1,19.6,13.8,28.8,13.2c1.2-9.2-2.7-20.5-11.3-29.6
					C415.9,584.7,404.9,580,395.6,580.7z"/>
				<path class="st11" d="M436.5,626.4c7.8,5,19.7,6.3,31.6,2.4c11.9-3.9,20.8-11.8,24.2-20.5c-7.8-5-19.7-6.3-31.6-2.4
					C448.7,609.8,439.8,617.8,436.5,626.4z"/>
				<path class="st11" d="M425.8,662.3c7.8,5,19.7,6.3,31.6,2.4c11.9-3.9,20.8-11.8,24.2-20.5c-7.8-5-19.7-6.3-31.6-2.4
					C438,645.7,429.1,653.7,425.8,662.3z"/>
				<path class="st11" d="M413.6,702.6c7.8,5,19.7,6.3,31.6,2.4c11.9-3.9,20.8-11.8,24.2-20.5c-7.8-5-19.7-6.3-31.6-2.4
					C425.9,686,416.9,694,413.6,702.6z"/>
				<path class="st11" d="M405.4,740.2c7.8,5,19.7,6.3,31.6,2.4c11.9-3.9,20.8-11.8,24.2-20.5c-7.8-5-19.7-6.3-31.6-2.4
					C417.7,723.6,408.8,731.5,405.4,740.2z"/>
				<path class="st11" d="M408.8,732.6c-7.8,5-19.7,6.3-31.6,2.4c-11.9-3.9-20.8-11.8-24.2-20.5c7.8-5,19.7-6.3,31.6-2.4
					C396.6,716,405.5,723.9,408.8,732.6z"/>
				<path class="st11" d="M384.7,616.4c-1.2,9.2,2.7,20.5,11.3,29.6c8.6,9.1,19.6,13.8,28.8,13.2c1.2-9.2-2.7-20.5-11.3-29.6
					C404.9,620.4,393.9,615.7,384.7,616.4z"/>
				<path class="st11" d="M372.2,657c-1.2,9.2,2.7,20.5,11.3,29.6c8.6,9.1,19.6,13.8,28.8,13.2c1.2-9.2-2.7-20.5-11.3-29.6
					C392.4,661,381.4,656.3,372.2,657z"/>
				<g>
					<path class="st11" d="M618.7,691.5c-15.6,8.6-30.2,18.7-44.3,29.4c-14.1,10.7-27.6,22.3-40.6,34.5
						c-12.9,12.2-25.2,25-36.8,38.5c-11.6,13.5-22.4,27.6-32.6,42.2c-20.3,29.2-37.2,60.8-50.9,93.7
						c-13.3,33.1-23.2,67.5-29.4,102.6l7.5,1.3c5.6-34.7,14.8-68.8,27.5-101.7c13-32.7,29.2-64.2,48.9-93.5
						c9.8-14.6,20.4-28.8,31.7-42.4c11.3-13.5,23.4-26.5,36-38.8c12.7-12.3,25.9-24,39.8-34.9c13.9-10.9,28.4-21.2,43.7-29.9
						L618.7,691.5z"/>
					<path class="st11" d="M676.2,651.4c-0.8,11.8-8.7,24.9-21.8,34.2c-13.1,9.2-28.1,12.2-39.5,9c0.8-11.8,8.7-24.9,21.8-34.2
						C649.8,651.2,664.7,648.2,676.2,651.4z"/>
					<path class="st11" d="M587.9,641.4c8.8,8,14.1,22.3,13.2,38.3c-0.9,16-7.9,29.6-17.5,36.5c-8.8-8-14.1-22.3-13.2-38.3
						C571.3,661.9,578.3,648.3,587.9,641.4z"/>
					<path class="st11" d="M535.8,667.5c10.6,5.4,19.6,17.7,22.9,33.4c3.4,15.7,0.3,30.6-7.1,39.9c-10.6-5.4-19.6-17.7-22.9-33.4
						C525.3,691.7,528.4,676.8,535.8,667.5z"/>
					<path class="st11" d="M500.7,699.8c10.6,5.4,19.6,17.7,22.9,33.4c3.4,15.7,0.3,30.6-7.2,39.9c-10.6-5.4-19.6-17.7-22.9-33.4
						C490.2,724.1,493.3,709.1,500.7,699.8z"/>
					<path class="st11" d="M460.2,733.1c11.6,2.5,23.4,12.1,30.7,26.4c7.3,14.3,8.1,29.6,3.3,40.4c-11.6-2.5-23.4-12.2-30.7-26.4
						C456.3,759.2,455.4,743.9,460.2,733.1z"/>
					<path class="st11" d="M431.8,774.7c10.6-0.4,23,5.2,32.5,15.9c9.5,10.7,13.6,23.7,11.9,34.2c-10.6,0.4-23-5.2-32.5-15.9
						C434.2,798.1,430,785.1,431.8,774.7z"/>
					<path class="st11" d="M411.1,800.8c10.6-0.4,23,5.2,32.5,15.9c9.5,10.7,13.7,23.7,11.9,34.2c-10.6,0.4-23-5.2-32.5-15.9
						C413.5,824.3,409.4,811.3,411.1,800.8z"/>
					<path class="st11" d="M399.3,839.4c9.1-0.4,19.7,4.5,27.9,13.7c8.1,9.2,11.7,20.3,10.2,29.3c-9.1,0.4-19.7-4.5-27.9-13.6
						C401.4,859.5,397.8,848.4,399.3,839.4z"/>
					<path class="st11" d="M387.8,879.6c6.6-3.7,16.4-4.2,26-0.5c9.6,3.7,16.6,10.6,19,17.8c-6.6,3.7-16.4,4.2-26,0.5
						C397.2,893.7,390.2,886.8,387.8,879.6z"/>
					<path class="st11" d="M383.2,912.8c4.1-4.5,11.4-7.4,19.6-7c8.3,0.4,15.3,3.8,19,8.7c-4.1,4.5-11.4,7.4-19.6,7
						C393.9,921.1,386.8,917.6,383.2,912.8z"/>
					<path class="st11" d="M654.4,739.5c-10.1,6.2-25.3,7.5-40.5,2.3c-15.1-5.2-26.3-15.7-30.4-26.8c10.1-6.2,25.3-7.5,40.5-2.3
						C639.1,717.9,650.3,728.3,654.4,739.5z"/>
					<path class="st11" d="M622.4,765.8c-10.1,6.2-25.3,7.5-40.5,2.3c-15.1-5.2-26.3-15.7-30.4-26.8c10.1-6.2,25.3-7.5,40.5-2.3
						C607.1,744.2,618.3,754.7,622.4,765.8z"/>
					<path class="st11" d="M588.3,798.3c-10.1,6.2-25.3,7.5-40.5,2.3c-15.1-5.2-26.3-15.7-30.4-26.8c10.1-6.2,25.3-7.5,40.5-2.3
						C573,776.7,584.2,787.1,588.3,798.3z"/>
					<path class="st11" d="M549.8,819.8c-8.2,5.1-20.6,6.1-32.9,1.9c-12.3-4.3-21.4-12.7-24.7-21.8c8.2-5.1,20.6-6.1,32.9-1.9
						C537.4,802.3,546.5,810.8,549.8,819.8z"/>
					<path class="st11" d="M521,840.5c-6.7,4.3-16.8,5.3-26.7,1.9c-9.9-3.4-17.2-10.4-19.8-18c6.7-4.3,16.8-5.3,26.7-1.9
						C511.1,825.9,518.4,832.9,521,840.5z"/>
					<path class="st11" d="M503.8,867c-6.7,4.3-16.8,5.3-26.7,1.9c-9.9-3.4-17.2-10.4-19.8-18c6.7-4.3,16.8-5.3,26.7-1.9
						C493.9,852.4,501.2,859.4,503.8,867z"/>
					<path class="st11" d="M484.9,891c-5.4,4.6-14.5,6.9-24.3,5.3c-9.8-1.6-17.7-6.6-21.4-12.7c5.4-4.6,14.5-6.9,24.3-5.3
						C473.3,879.9,481.2,884.9,484.9,891z"/>
					<path class="st11" d="M466.7,921.2c-6.1,1.7-14.3,0.2-21.5-4.7c-7.2-4.9-11.6-11.9-12.2-18.3c6.1-1.7,14.3-0.2,21.5,4.7
						C461.7,907.9,466.1,914.9,466.7,921.2z"/>
					<path class="st11" d="M446.4,939.2c-4.8,0.4-10.7-1.9-15.4-6.6c-4.7-4.7-7-10.6-6.6-15.5c4.8-0.4,10.7,1.9,15.4,6.6
						C444.5,928.5,446.8,934.4,446.4,939.2z"/>
					<path class="st11" d="M432.9,944c-3.2,0.5-6.9-0.8-9.8-3.7c-2.9-2.9-4.2-6.6-3.7-9.8c3.2-0.5,6.9,0.8,9.8,3.7
						C432.1,937,433.4,940.8,432.9,944z"/>
					<path class="st11" d="M428.6,952.9c-3.2,0.5-6.9-0.8-9.8-3.7c-2.9-2.9-4.2-6.6-3.7-9.8c3.2-0.5,6.9,0.8,9.8,3.7
						C427.8,945.9,429,949.7,428.6,952.9z"/>
				</g>
				<g>
					<path class="st12" d="M272.4,661.6c11.1,12.2,20.9,25.4,30.2,39c9.2,13.6,17.6,27.8,25.4,42.4c7.7,14.6,14.7,29.5,20.9,44.8
						c6.1,15.3,11.5,30.9,16,46.8c9.1,31.7,14.6,64.5,16.7,97.5c1.8,33,0.2,66.2-4.7,98.9l-7-1.1c5.4-32.2,7.5-64.9,6.2-97.5
						c-1.6-32.6-6.5-65.1-15.1-96.7c-4.3-15.8-9.3-31.4-15.2-46.7c-5.9-15.3-12.6-30.2-20.1-44.8c-7.5-14.6-15.6-28.8-24.6-42.6
						c-9-13.7-18.6-27.1-29.4-39.3L272.4,661.6z"/>
					<path class="st12" d="M233.8,609.2c-2.8,10.6,0.2,24.5,9,36.5c8.8,12,21,19.1,32,19.7c2.8-10.6-0.2-24.5-9-36.5
						C257.1,616.9,244.8,609.8,233.8,609.2z"/>
					<path class="st12" d="M314.3,626.7c-10.1,4.4-19.1,15.4-23,29.7c-4,14.3-1.9,28.3,4.5,37.3c10.1-4.4,19.1-15.4,23-29.7
						C322.8,649.7,320.7,635.7,314.3,626.7z"/>
					<path class="st12" d="M352.3,665.2c-10.9,1.6-22.5,9.8-30.1,22.5c-7.6,12.8-9.4,26.8-5.6,37.2c10.9-1.6,22.5-9.8,30.1-22.5
						C354.3,689.6,356,675.6,352.3,665.2z"/>
					<path class="st12" d="M373.5,704.1c-10.9,1.6-22.5,9.8-30.1,22.5c-7.6,12.8-9.4,26.8-5.6,37.2c10.9-1.6,22.5-9.8,30.1-22.5
						C375.5,728.5,377.3,714.4,373.5,704.1z"/>
					<path class="st12" d="M399.1,745.3c-10.9-1.3-24.2,3.7-34.9,14.1c-10.6,10.4-15.9,23.5-14.9,34.5c10.9,1.3,24.2-3.7,34.9-14.1
						C394.8,769.5,400.1,756.3,399.1,745.3z"/>
					<path class="st12" d="M411.8,790.4c-9.2-3.6-21.8-2.3-33.3,4.3c-11.5,6.6-19.1,16.8-20.7,26.4c9.2,3.5,21.8,2.3,33.3-4.3
						C402.6,810.3,410.1,800.1,411.8,790.4z"/>
					<path class="st12" d="M422.1,819.5c-9.2-3.5-21.8-2.3-33.3,4.3c-11.5,6.6-19.1,16.8-20.7,26.4c9.2,3.5,21.8,2.3,33.3-4.3
						C413,839.4,420.5,829.2,422.1,819.5z"/>
					<path class="st12" d="M421,856.9c-7.9-3-18.7-1.9-28.5,3.7c-9.9,5.6-16.3,14.4-17.7,22.7c7.9,3,18.7,2,28.5-3.7
						C413.1,874,419.6,865.2,421,856.9z"/>
					<path class="st12" d="M419.1,895.7c-4.7-5.2-13.2-8.6-22.7-8.2c-9.6,0.4-17.7,4.4-22,10c4.7,5.2,13.2,8.6,22.7,8.2
						C406.6,905.3,414.8,901.3,419.1,895.7z"/>
					<path class="st12" d="M413.2,926.2c-2.2-5.2-7.8-9.9-15.2-12c-7.4-2.1-14.6-1.2-19.3,2c2.2,5.2,7.8,9.9,15.2,12
						C401.3,930.3,408.6,929.3,413.2,926.2z"/>
					<path class="st12" d="M226.7,693.1c7,8.5,20,14.2,34.9,14.1c14.9-0.1,27.8-5.9,34.7-14.5c-7-8.5-20-14.2-34.9-14.1
						C246.5,678.7,233.6,684.5,226.7,693.1z"/>
					<path class="st12" d="M247,725.8c7,8.5,20,14.2,34.9,14.1c14.9-0.1,27.8-5.9,34.7-14.5c-7-8.5-20-14.2-34.9-14.1
						C266.8,711.4,253.8,717.2,247,725.8z"/>
					<path class="st12" d="M267.2,764.4c7,8.5,20,14.2,34.9,14.1c14.9-0.1,27.8-5.9,34.7-14.5c-7-8.5-20-14.2-34.9-14.1
						C287.1,750,274.1,755.9,267.2,764.4z"/>
					<path class="st12" d="M294.6,794.9c5.7,6.9,16.3,11.5,28.3,11.4c12.1-0.1,22.6-4.8,28.2-11.8c-5.7-6.9-16.3-11.5-28.3-11.4
						C310.7,783.2,300.2,787.9,294.6,794.9z"/>
					<path class="st12" d="M313.8,821.6c4.6,5.8,13.1,9.7,22.9,9.6c9.8-0.1,18.3-4,22.8-9.9c-4.6-5.8-13.1-9.7-22.9-9.6
						C326.8,811.7,318.3,815.7,313.8,821.6z"/>
					<path class="st12" d="M321,850c4.6,5.8,13.1,9.7,22.9,9.6c9.8-0.1,18.3-4,22.8-9.9c-4.6-5.8-13.1-9.7-22.9-9.6
						C334,840.2,325.5,844.1,321,850z"/>
					<path class="st12" d="M330.4,876.7c3.4,5.7,10.7,10.4,19.8,11.9c9,1.5,17.5-0.5,22.6-4.8c-3.4-5.7-10.7-10.4-19.8-11.9
						C343.9,870.4,335.5,872.4,330.4,876.7z"/>
					<path class="st12" d="M337.4,908.7c4.9,3.4,12.5,4.4,20.3,2.2c7.8-2.2,13.8-7,16.2-12.4c-4.9-3.4-12.5-4.4-20.3-2.2
						C345.8,898.5,339.8,903.3,337.4,908.7z"/>
					<path class="st12" d="M349.9,930.6c4.1,1.8,10,1.5,15.5-1.2c5.5-2.7,9.3-7.2,10.4-11.6c-4.1-1.8-10-1.5-15.5,1.2
						C354.7,921.7,350.9,926.2,349.9,930.6z"/>
					<path class="st12" d="M360.3,938.7c2.6,1.4,6.3,1.4,9.7-0.3c3.4-1.7,5.6-4.6,6.1-7.5c-2.6-1.4-6.3-1.4-9.7,0.3
						C363,932.9,360.8,935.8,360.3,938.7z"/>
					<path class="st12" d="M361.4,947.9c2.7,1.4,6.3,1.4,9.7-0.3c3.4-1.7,5.6-4.6,6.1-7.5c-2.7-1.4-6.3-1.4-9.7,0.3
						C364.2,942,362,944.9,361.4,947.9z"/>
				</g>
				<g>
					<path class="st13" d="M508,625.4c-11.3,13.7-21.2,28.5-30.5,43.6c-9.2,15.2-17.5,30.9-25.1,46.9c-7.5,16.1-14.2,32.5-20.1,49.3
						c-5.8,16.8-10.7,33.9-14.8,51.2c-8.2,34.6-12.3,70.2-12.9,105.8c-0.2,35.6,3.2,71.3,10.3,106.3l7.5-1.6
						c-7.5-34.3-11.5-69.5-11.8-104.7c0-35.2,3.6-70.4,11.2-104.9c3.8-17.2,8.4-34.3,13.9-51c5.6-16.7,12-33.2,19.2-49.3
						c7.3-16.1,15.3-31.9,24.2-47.1c9-15.2,18.6-30.1,29.6-43.9L508,625.4z"/>
					<path class="st13" d="M546.8,567c3.6,11.3,1.1,26.4-7.7,39.8c-8.8,13.4-21.7,21.7-33.5,22.9c-3.6-11.3-1.1-26.4,7.7-39.8
						C522.1,576.5,535,568.2,546.8,567z"/>
					<path class="st13" d="M461,590.1c11.1,4.2,21.3,15.6,26.4,30.8c5,15.2,3.5,30.4-2.9,40.4c-11.1-4.2-21.3-15.6-26.4-30.8
						C453.1,615.3,454.6,600.1,461,590.1z"/>
					<path class="st13" d="M422.1,633.5c11.8,1.1,24.7,9.3,33.6,22.7c8.9,13.3,11.5,28.4,8,39.7c-11.8-1.1-24.7-9.3-33.6-22.7
						C421.2,659.9,418.6,644.8,422.1,633.5z"/>
					<path class="st13" d="M401.3,676.5c11.8,1.1,24.7,9.3,33.6,22.7c8.9,13.3,11.5,28.4,8,39.7c-11.8-1.1-24.7-9.3-33.6-22.7
						C400.4,702.9,397.8,687.8,401.3,676.5z"/>
					<path class="st13" d="M375.9,722.2c11.7-1.9,26.3,2.7,38.3,13.3c12,10.6,18.4,24.5,17.9,36.4c-11.7,1.9-26.3-2.7-38.3-13.3
						C381.8,748,375.4,734.1,375.9,722.2z"/>
					<path class="st13" d="M364.7,771.4c9.7-4.3,23.3-3.6,36.1,2.9c12.8,6.5,21.4,17,23.7,27.4c-9.7,4.3-23.3,3.6-36.1-2.9
						C375.6,792.3,366.9,781.7,364.7,771.4z"/>
					<path class="st13" d="M355,803.3c9.7-4.3,23.3-3.6,36.1,2.9c12.8,6.5,21.4,17,23.7,27.4c-9.7,4.3-23.3,3.6-36.1-2.9
						C365.9,824.2,357.3,813.7,355,803.3z"/>
					<path class="st13" d="M358.2,843.5c8.3-3.7,20-3.1,30.9,2.5c10.9,5.5,18.3,14.6,20.3,23.5c-8.3,3.7-20,3.1-30.9-2.5
						C367.6,861.5,360.1,852.4,358.2,843.5z"/>
					<path class="st13" d="M362.3,885.1c4.8-5.9,13.7-9.9,24-10c10.3-0.1,19.3,3.8,24.2,9.6c-4.8,5.9-13.7,9.9-24,10
						C376.2,894.8,367.2,891,362.3,885.1z"/>
					<path class="st13" d="M370.2,917.7c2.1-5.7,7.9-11,15.7-13.7c7.8-2.7,15.7-2.1,20.8,1.1c-2.1,5.7-7.9,11-15.7,13.7
						C383.2,921.5,375.4,920.9,370.2,917.7z"/>
					<path class="st13" d="M558.8,656.9c-7.1,9.5-20.8,16.3-36.8,17c-16,0.7-30.2-4.9-38.1-13.8c7.1-9.5,20.8-16.3,36.8-17
						C536.7,642.5,551,648.1,558.8,656.9z"/>
					<path class="st13" d="M538.7,693.2c-7.1,9.5-20.8,16.3-36.8,17c-16,0.7-30.2-4.9-38.1-13.8c7.1-9.5,20.8-16.3,36.8-17
						C516.6,678.7,530.9,684.3,538.7,693.2z"/>
					<path class="st13" d="M518.9,735.9c-7.1,9.5-20.8,16.3-36.8,17c-16,0.7-30.2-4.9-38.1-13.8c7.1-9.5,20.8-16.3,36.8-17
						C496.8,721.4,511.1,727,518.9,735.9z"/>
					<path class="st13" d="M491.1,770.1c-5.8,7.7-16.9,13.3-29.9,13.8c-13,0.6-24.6-4-31-11.2c5.8-7.7,16.9-13.3,29.9-13.8
						C473.1,758.3,484.7,762.9,491.1,770.1z"/>
					<path class="st13" d="M471.8,799.8c-4.6,6.5-13.6,11.1-24.2,11.6c-10.5,0.4-19.9-3.4-25.1-9.5c4.6-6.5,13.6-11.1,24.2-11.6
						C457.3,789.9,466.7,793.8,471.8,799.8z"/>
					<path class="st13" d="M465.6,830.8c-4.6,6.5-13.6,11.1-24.2,11.6c-10.5,0.4-19.9-3.4-25.1-9.5c4.6-6.5,13.6-11.1,24.2-11.6
						C451,820.9,460.4,824.7,465.6,830.8z"/>
					<path class="st13" d="M456.8,860.1c-3.4,6.3-11,11.7-20.7,13.8c-9.7,2.1-18.9,0.4-24.6-3.9c3.4-6.3,11-11.7,20.7-13.8
						C441.9,854,451.1,855.7,456.8,860.1z"/>
					<path class="st13" d="M450.9,894.9c-5.1,3.9-13.2,5.4-21.7,3.5c-8.5-1.9-15.2-6.8-18.1-12.5c5.1-3.9,13.2-5.4,21.7-3.5
						C441.4,884.3,448.1,889.2,450.9,894.9z"/>
					<path class="st13" d="M438.7,919.1c-4.3,2.2-10.7,2.2-16.8-0.5c-6.1-2.7-10.4-7.3-11.8-12c4.3-2.2,10.7-2.2,16.8,0.5
						C433,909.8,437.3,914.4,438.7,919.1z"/>
					<path class="st13" d="M427.9,928.4c-2.8,1.6-6.7,1.8-10.5,0.2c-3.7-1.6-6.3-4.6-7-7.8c2.8-1.6,6.7-1.8,10.5-0.2
						C424.6,922.3,427.2,925.3,427.9,928.4z"/>
					<path class="st13" d="M427.1,938.3c-2.8,1.6-6.7,1.8-10.5,0.2c-3.7-1.6-6.3-4.6-7-7.8c2.8-1.6,6.7-1.8,10.5-0.2
						C423.8,932.2,426.4,935.2,427.1,938.3z"/>
				</g>
				<g>
					<path class="st11" d="M343.3,911c-16.7-24.5-34.4-48.5-53.2-71.5l0.3-0.3c19.3,22.6,37.4,46.3,54.7,70.5
						c17.2,24.3,33.5,49.3,48.1,75.3c3.5,6.3,7,12.7,10.3,19.1c-1.3,0.7-2.6,1.5-3.9,2.2c-3.2-6.5-6.5-13-9.9-19.4
						C375.7,960.8,360,935.6,343.3,911z"/>
					<path class="st11" d="M271.6,808.2c6.2,0.6,12.6,4.7,16.6,11.4c4,6.7,4.7,14.3,2.3,20c-6.2-0.6-12.6-4.7-16.6-11.4
						C269.8,821.5,269.2,813.9,271.6,808.2z"/>
					<path class="st11" d="M317.5,822.6c2.5,4.9,2.6,12.3-0.2,19.6c-2.8,7.3-7.9,12.7-13,14.6c-2.5-4.9-2.6-12.3,0.2-19.6
						C307.3,829.9,312.4,824.5,317.5,822.6z"/>
					<path class="st11" d="M319.1,876.5c-4.2,3.6-11.3,5.4-19.1,4.3c-7.8-1.1-14.2-4.8-17.2-9.3c4.2-3.6,11.3-5.4,19.1-4.3
						C309.6,868.3,316,872,319.1,876.5z"/>
					<path class="st11" d="M337.6,900.4c-4.2,3.6-11.3,5.4-19.1,4.3c-7.8-1.1-14.2-4.8-17.2-9.3c4.2-3.6,11.3-5.4,19.1-4.3
						C328.2,892.2,334.6,895.9,337.6,900.4z"/>
					<path class="st11" d="M350.2,919.5c-4.2,3.6-11.3,5.4-19.1,4.3c-7.8-1.1-14.2-4.7-17.2-9.3c4.2-3.6,11.3-5.4,19.1-4.3
						C340.7,911.2,347.1,914.9,350.2,919.5z"/>
					<path class="st11" d="M364.2,940.5c-4.2,3.6-11.3,5.4-19.1,4.3c-7.8-1.1-14.2-4.7-17.2-9.3c4.2-3.6,11.3-5.4,19.1-4.3
						S361.1,935.9,364.2,940.5z"/>
					<path class="st11" d="M333.7,843.1c2.5,4.9,2.6,12.3-0.2,19.6c-2.8,7.3-7.9,12.7-13,14.6c-2.5-4.9-2.6-12.3,0.2-19.6
						C323.5,850.4,328.5,845,333.7,843.1z"/>
					<path class="st11" d="M349.1,864.2c2.5,4.9,2.6,12.3-0.2,19.6c-2.8,7.3-7.9,12.7-13,14.6c-2.5-4.9-2.6-12.3,0.2-19.6
						C338.9,871.5,343.9,866.1,349.1,864.2z"/>
					<path class="st11" d="M363.8,885.5c2.5,4.9,2.6,12.3-0.2,19.6c-2.8,7.3-7.9,12.7-13,14.6c-2.5-4.9-2.6-12.3,0.2-19.6
						C353.5,892.8,358.6,887.4,363.8,885.5z"/>
					<path class="st11" d="M378,906.3c2.5,4.9,2.6,12.3-0.2,19.6c-2.8,7.3-7.9,12.7-13,14.6c-2.5-4.9-2.6-12.3,0.2-19.6
						C367.8,913.6,372.8,908.3,378,906.3z"/>
				</g>
			</g>
		</g>
		<linearGradient id="SVGID_2_" gradientUnits="userSpaceOnUse" x1="302.0692" y1="1007.2751" x2="473.5763" y2="1007.2751">
			<stop  offset="0" style="stop-color:#F24949"/>
			<stop  offset="1" style="stop-color:#FFC16F"/>
		</linearGradient>
		<path class="st17" d="M332.3,967.2h111.1c18.5,9.4,30.2,23.5,30.2,39.1c0,16.7-13.4,31.6-34,41H336.1c-20.7-9.4-34-24.3-34-41
			C302.1,990.7,313.8,976.6,332.3,967.2z"/>
		<path class="st15" d="M342.7,976c-11-1.3-25.6,7-29.4,23.6c-5.2,32.8,27.7,42.4,45.6,34.1c-15.6-3.9-32.7-11.1-33.2-27.2
			c-0.9-8.4,4.2-16.6,4.2-16.8c0.7-1,2.1-3.5,4.7-6.3C336.9,980.6,339.7,978.2,342.7,976z"/>
		
			<rect x="327.1" y="962.4" transform="matrix(-1 -1.224647e-16 1.224647e-16 -1 776.9036 1932.5118)" class="st16" width="122.8" height="7.7"/>
	</g>
	<g>
		<g>
			<g>
				<g>
					<rect x="558.7" y="806.2" class="st3" width="25.6" height="197.2"/>
				</g>
				<g>
					<polygon class="st4" points="588.4,1005.2 555.1,1005.2 555.1,975.3 555.1,951.3 588.4,951.3 					"/>
					<polygon class="st4" points="432.2,1040.8 555.1,975.3 555.1,1005.2 467,1040.8 467,1047.3 432.2,1047.3 					"/>
					<polygon class="st4" points="711.2,1040.8 588.4,975.3 588.4,1005.2 676.5,1040.8 676.5,1047.3 711.2,1047.3 					"/>
					<polygon class="st4" points="560.5,975.3 560.5,1047.3 552.3,1047.3 552.3,1052.4 588.4,1052.4 588.4,1047.3 580.7,1047.3 
						583.1,975.3 					"/>
				</g>
			</g>
			<rect x="555.5" y="795.2" class="st2" width="33.1" height="40.6"/>
		</g>
		<g>
			<polygon class="st6" points="486.7,592.7 446,615.2 478.9,764.5 494.9,761.5 476,622.9 498.2,613.4 			"/>
			<polygon class="st6" points="638.8,592.7 681.7,626.4 674.5,767.9 657.2,764.3 663.3,642.3 628.9,619.4 			"/>
			<path class="st7" d="M625.5,695.8H503.4l-33.5-207.6c-6-37.3,22.8-71.1,60.6-71.1h68.1c37.8,0,66.6,33.8,60.6,71.1L625.5,695.8z"
				/>
			<path class="st7" d="M689.4,779.2H460.9l0,0c0-12.5,10.1-22.6,22.6-22.6h183.2C679.2,756.6,689.4,766.7,689.4,779.2L689.4,779.2z
				"/>
		</g>
	</g>
	<path class="st18" d="M636,441.3l11.5-7.7c0,0-29.9-49.2-26.8-91.6c1.6-22.4-35.1-55.4-44.8-50.3c-0.6-0.2-32.6,0.7-35.4,73.8
		l-6.8,85.6l34.6,30.6c0,0,21.8-37.4,49.5-20.9c27.7,16.4,17.3,9.4,17.3,9.4S636,449.2,636,441.3z"/>
	<path class="st19" d="M511.2,443.3c0,0-0.3,81.5,8,98.8c8.3,17.3,4.6,120.3,4.6,120.3l95.2,2.8c0,0,12.2-96.1,12.2-122.3
		c0-26.3,9.6-99.8,9.6-99.8S576,426.4,511.2,443.3z"/>
	<path class="st10" d="M604.1,385.2c1.4,1.4-4.4,40.6,1.3,52.1c0,0-15.2,84.4-25.5,85.6c-8.9,1.1-13.7-70.6-15.5-78.8
		c-2.4-11,2.8-66,2.8-66L604.1,385.2z"/>
	<path class="st9" d="M603.5,402.4c-13.6,12.3-27.2,6.5-37.6-8.9c0.2-7.8,1.3-14.9,1.3-15.4l36.8,7.2
		C604.7,385.8,604.1,393.1,603.5,402.4z"/>
	<path class="st10" d="M598.7,294.7c0,0,16.8,3.2,18.8,17.6c2,14.4,4.8,26.4,2,43.1c-2.8,16.8-12.8,39.1-29.2,42.7
		c-16.4,3.6-33.5-23.6-33.5-38.3c0-14.8-6-39.5,5.2-54.7C573.1,289.9,598.7,294.7,598.7,294.7z"/>
	<g>
		<path class="st20" d="M579.7,372c8.8,3.8,21.9,3.9,21.9,3.9s-0.9,1.8-2.5,3.7c-3.8-0.2-11.3-0.9-17.5-3.1
			C580.4,374.1,579.7,372,579.7,372z"/>
		<path class="st21" d="M581.6,376.6c6.2,2.2,13.6,2.9,17.5,3.1C592.9,387.1,586.2,385.3,581.6,376.6z"/>
	</g>
	<path class="st9" d="M598.7,294.7c0,0,16.8,3.2,18.8,17.6c1.8,13,4.3,24.1,2.6,38.5c-2.7-1.8-6.5-3.7-11.8-5.5
		c-14.8-4.9-29.9-27.4-32-44.5C576,286.5,598.7,294.7,598.7,294.7z"/>
	<g>
		<path class="st22" d="M598.8,362.4c-0.4-4.6-0.7-9.2-0.7-13.8c1,5.9,1.3,10.1,1.6,14.4c-2.4,0.7-5.4,2-9,0.6
			C593.5,364.1,596.3,363.3,598.8,362.4z"/>
	</g>
	<path class="st22" d="M589.7,348.1c-0.8-2.6-3.1-5.2-6.2-6c-5.5-1.4-8.8,6.5-12.6,6.4c2.7,1.4,7-3.2,10-4.4c1.6-0.6,3-0.2,4.6,0.5
		C587.1,345.4,588.5,346.7,589.7,348.1z"/>
	<path class="st22" d="M579.8,345.7c0,1.7,1.2,3,2.7,3c1.5,0,2.7-1.4,2.7-3c0-1.7-1.2-3-2.7-3C581,342.7,579.8,344.1,579.8,345.7z"
		/>
	<path class="st22" d="M601.9,349.8c1-2.6,3.3-5,6.4-5.7c5.5-1.2,8.5,6.8,12.3,6.9c-2.8,1.3-6.9-3.5-9.8-4.9c-1.6-0.7-3-0.3-4.6,0.3
		C604.7,347.3,603.2,348.5,601.9,349.8z"/>
	<path class="st22" d="M611.9,347.9c-0.1,1.7-1.3,3-2.8,2.9c-1.5-0.1-2.6-1.5-2.5-3.1c0.1-1.7,1.3-3,2.8-2.9
		C610.9,344.8,612,346.2,611.9,347.9z"/>
	<path class="st22" d="M591.7,335.3c0.6-0.4-4.2-5.2-9.9-5.7c-5.7-0.5-11.9,5.7-11.9,5.7s8.4-5,12-3.4
		C585.4,333.6,588.4,337.5,591.7,335.3z"/>
	<path class="st9" d="M584,358.9c-0.7,2.2-4.8,2.8-9,1.4c-4.2-1.4-7-4.3-6.3-6.5c0.7-2.2,4.7-2.8,9-1.4
		C581.9,353.8,584.7,356.7,584,358.9z"/>
	<path class="st9" d="M618,357.8c0.3,2.1-2.4,4.2-6.1,4.8c-3.7,0.6-6.9-0.7-7.3-2.8c-0.3-2.1,2.4-4.2,6.1-4.8
		C614.4,354.5,617.7,355.7,618,357.8z"/>
	<path class="st23" d="M535.7,656.7l-17.9,8.4c0,0-20.3,22.5-24.8,62.3c-4.5,39.8,49.5,59.3,49.5,59.3l106.6-7.5
		c0,0,39.4-108-26-121C560.2,645.8,535.7,656.7,535.7,656.7z"/>
	<path class="st24" d="M595.7,716.2c0,0,0.6,18.9,1.6,19.3c8.9,3.5,48.1-0.9,52.4,21.5c4.8,25-74.6,207.2-69.3,234.3
		c5.3,27,12.4,50.3,16.7,54.6c4.3,4.3,4.4,8,0.6,11.8c-3.8,3.8-19.7-0.6-24.2-5.1c-4.5-4.5-9.9-39.3-18-47.4
		c-8.1-8.1-11.3-13.1-1.9-32.3c9.4-19.1,33.8-167.4,36.8-182.8c3-15.4-1.9-22.2-1.9-22.2l-37.2-23.6L595.7,716.2z"/>
	<path class="st10" d="M625.8,699.7c0,0-13.9-9.4-41.7,0c-27.8,9.4-46.5,32.6-49.5,43.5c-3,10.9-15.4,222.2-31.9,256.7
		c-16.5,34.5-17.5,36.5-24.8,43.8c-7.3,7.3-3.9,25.2,0,29.1c4,4,34.5-4.1,38-16.1c3.5-12,11-40,14-48.5c3-8.5,24.2-88.9,44.4-127
		c20.2-38.1,26.8-122.1,26.8-129.2c0-7,35.4-9.6,35.4-9.6S644,703.8,625.8,699.7z"/>
	<path class="st25" d="M640.8,443c0,0,12.9,7.5,14.8,17c7.4,38.3,13.8,135.5,10.8,160.1c-3.8,30.7-15.8,30.7-15.8,30.7l-143.4-17.2
		l6-38.3c0,0,97.6,6,107.3,6c9.8,0,10.5-74.1,10.5-74.1L640.8,443z"/>
	<path class="st26" d="M511.2,443.3c0,0-34.1-0.3-41.6,43.2c-7.5,43.5-3,164.3,12.8,164.3c15.8,0,102.9-50.5,114.9-50.5l0,0
		c-3.2-0.7-5.7-3.3-6.2-6.5l-4.1-23.2c0,0-67.7,0.8-79.7,12.8c0,0,12.8-47.3,12.8-64.5C519.9,501.5,532.2,443.3,511.2,443.3z"/>
	<path class="st10" d="M627.2,584.5c0,0-38-12.7-39-6.8c-2.7,15.8,6.1,23.1,6.1,23.1s25.7,3.9,29.9-0.3
		C628.3,596.4,627.2,584.5,627.2,584.5z"/>
	<path class="st9" d="M950.7,587.1l-2,61.2c0,0,29,5.5,37,2.4c4.4-1.7,5.3-32.2,3.9-67.5C974.5,582,965,582,950.7,587.1z"/>
	<path class="st27" d="M989.6,583.3c-1.1-28.3-3.7-59.7-7.1-81.7c-7.5-49.5-37.5-75.2-37.5-75.2l-0.8,152.5l0.7,10.2
		C959.2,583.9,974.5,582,989.6,583.3z"/>
	<path class="st28" d="M837,429.4c0,20,3.4,119.9,9.4,151.8c6,31.9-41.9,87.4-41.9,114.3c0,26.9,35,66,35,66h117.1
		c0,0,36-65.5,23-96.3c-13-30.8-31-7.8-22-51.8c9-44,9.9-104.4,4.9-146.4c-5-42-27.7-54.8-66.8-54.8
		C856.8,412.1,837,409.3,837,429.4z"/>
	<path class="st29" d="M944.2,676.9c0,0-55.2-16.9-81.6,9.5c-26.4,26.4-23,75.1-23,75.1h117.1C956.7,761.5,994.8,707.9,944.2,676.9z
		"/>
	<path class="st9" d="M919.9,712.1c-8.2-20-17.2-23.9-24.8-23.9c-13.7,0-35.3,7.5-44.5,31.2c-9.8,25.1-47.8,178.3-54.5,206.7
		c-4.7,20.2-14.1,34.2-23.9,45.6c-20.8,31.3-14.8,51.5-0.6,66.4c0,1.9,15.1,5.8,32-41.2c3.8-10.5,5.5-16.9,10-39.6
		C818.1,934.6,928.1,732.1,919.9,712.1z"/>
	<path class="st30" d="M801.6,1002.1c-5.5,3.5-18.9,11.5-24.2,11.5c-5.2,0-12.3-15.2-15.4-22.4c-7.7,21.2-1.6,37.1,9.4,48.7
		C773.6,1042.4,785.5,1043.8,801.6,1002.1z"/>
	<path class="st31" d="M975.7,723.9c0.4-21.9-13-26.5-23.7-28.4c-13.4-2.4-31.1,13-45.6,35.8c-14.5,22.7-47.8,178.3-54.5,206.7
		c-4.7,20.2-14.1,34.2-23.9,45.6c-20.8,31.3-14.8,51.8-0.7,66.7c0,1.9,15.1,5.4,32-41.5c3.8-10.5,5.5-16.9,10-39.7
		C873.8,946.4,975.2,745.6,975.7,723.9z"/>
	<path class="st32" d="M854.7,1020.5c-6.6,2.2-13.5,3.7-18.9,2.8c-10.7-1.8-12.7-19.6-12.7-31.8c-14.8,27.1-8.6,46.5,4.2,60.1
		C829.7,1053.1,839.8,1055.3,854.7,1020.5z"/>
	<path class="st33" d="M910.2,590.3l26.5,49c0.2,0.4,0.1,0.9-0.3,1.1c-0.4,0.2-0.8,0.1-1.1-0.3L907.3,592c-0.5-0.8-0.2-1.8,0.6-2.3
		C908.7,589.2,909.7,589.5,910.2,590.3C910.2,590.3,910.2,590.3,910.2,590.3z"/>
	<path class="st10" d="M923.7,606.3c-5.8-5.8-14.5,2-22.5,4.5c-8,2.5-83.1,2-93.6-0.5c-3.9-0.9-2.1-12.9,1.9-29.1
		c-12.2-4-25.5-5.2-37.9-3.7c-4.1,39.4-5.4,74.3,0,77.9c12,7.9,111.9-24.6,122-24.6c10.1,0,5.1,4.7,20.1,4.7c8.8,0,15-1.7,18.6-3
		c2.2-0.8,3.2-3.2,2.4-5.4C932.5,621.4,927.9,610.5,923.7,606.3z"/>
	<path class="st9" d="M808.1,587.2c0.4-1.9,0.9-3.9,1.4-5.9c-12.2-4-25.5-5.2-37.9-3.7c-0.5,4.9-1,9.8-1.4,14.6
		C777.7,590.7,796.1,587.4,808.1,587.2z"/>
	<path class="st34" d="M809.5,581.3c12.5-27.3,32.7-72.8,34.3-91.1c2.5-29-3.8-73.2-3.8-73.2s-34.2,21.2-45.2,45.7
		c-6,13.4-24.7,70.9-29.6,118.6C777.6,579.8,797.3,577.2,809.5,581.3z"/>
	<path class="st35" d="M885.6,646.8h72C957.7,646.8,908.2,630.8,885.6,646.8z"/>
	<path class="st36" d="M1026.7,646.8h-69.1c0,0,26.6-5.6,44.6-5.6C1020.2,641.2,1026.7,646.8,1026.7,646.8z"/>
	<path class="st36" d="M1014.5,624.5c0,0-33.6-1-56.8,22.3c0,0,11-7.9,29-12.5c18.1-4.6,30.3-4.4,30.3-4.4L1014.5,624.5z"/>
	<polygon class="st37" points="880.9,646.8 957.7,646.8 885.1,645.1 	"/>
	<path class="st9" d="M1017.8,566.6c-5.4-34.9-1-75.8-1-75.8s9.3-8.1,21.8-4.8c12.5,3.3,19.1,5.4,17.9,1.8
		c-1.2-3.6-17.4-9.2-17.4-9.2s15.6-0.2,23.6,3.9c8,4.1,9.8-3.8-12.4-7.8c-22.2-3.9-15-6.1-11.2-7.4c3.7-1.3,25.9,4.5,31.8,0.3
		c5.4-3.9-30.1-7.8-40.5-6.5c45.5-12.9,31.3-18.5-11.8-3.7c-12.4,4.2-23.5,22.7-23.7,23.1c-1.1,1.5-13.3,57.9-14,100.9
		C992.7,576.2,1007,573.4,1017.8,566.6z"/>
	<path class="st38" d="M987.7,495.7c-3.3,3.3-41.9,147.4-19.9,153.1c22,5.8,48.8-21.7,48.8-21.7l5.2-118.9L987.7,495.7z"/>
	<path class="st10" d="M1292.9,488.7c4.5-10.2,23.4-12.9,29.5-14.8c6.1-1.9,11.6-14.1,15.7-15.4c4-1.3,2.8,12.3-3.3,15.8
		c-6.1,3.5,1.7,8.9,6.5,8.9c4.8,0,22-1.3,26-10.2c4-8.9,11.3-14.3,12.3-11.1c1,3.1-9.1,16.7-9.1,16.7s16.4-15,17.6-11.3
		c1.2,3.7-13.8,14.4-13.8,14.4s10.1-4.6,13-2.9c2.9,1.7-23.9,18.3-29.2,20c-5.3,1.7-26.3,0.6-36.6-0.5c-4.3-0.4-6.5,20.9-13.9,48.8
		c-3.8-6.8-22.2-12.7-27.6-18.3C1288.6,509.8,1291.1,492.8,1292.9,488.7z"/>
	<path class="st38" d="M1280.2,509.2l-33.9,142.5c0,0,31.8,4.6,45.2,0c13.3-4.6,30-99.2,30-140.5L1280.2,509.2z"/>
	<polygon class="st39" points="1542.9,772.1 1472.2,785.8 1427.3,768 1472.2,721.4 	"/>
	<path class="st40" d="M1576.7,455.2c0,0-11.5,6.9-25.3,40.5c-13.8,33.6-13.8,103.1-27.3,109.4c-11.8,5.6-106.5,17.1-129.9,19.9
		c-3.3,0.4-6.3,2.3-8,5.1l-12.2,19.5l63.5,2.1c0,0,72.2,36,90.7,23.7c18.5-12.3,72.1-113.9,79-143.9
		C1614.2,501.5,1576.7,455.2,1576.7,455.2z"/>
	<path class="st41" d="M1437.6,595.3c-3,0-33-7-33-7l-7,31l31,13L1437.6,595.3z"/>
	<path class="st40" d="M1377.5,1013.6c0,0-10.6,32.1-40.1,40c-11.1,3-61.9,28.1-52.4,28.1c3.6,0,108.8,0.4,108.8,0.4
		s7.9-13.9,4.9-26.4c-3-12.5,11.5-42,11.5-42H1377.5z"/>
	<g>
		<path class="st42" d="M208.4,276.8c0,0,8.9,53,36.6,88.6c20.8,26.6,64.2,56.4,64.2,56.4l-24.6,27l-67.8-56L208.4,276.8z"/>
		<polygon class="st43" points="171.3,227.2 116.9,227.2 118.6,406.1 190.8,411 		"/>
		<path class="st43" d="M232.2,1084.4c30.6,0,29.9,12.6,29.9,12.6h-89.7c0,0,4.5-38.7,5.1-47.9h21.1
			C201,1060.3,208.7,1084.4,232.2,1084.4z"/>
		<path class="st43" d="M82.3,1089c27.9,0,33.6-33.8,34.4-39.9h20.1c0,1.6,0,2.7,0,2.9c0,4.2,5.2,49.5,5.2,49.5s-22.4,0-37.4,0
			c-14.9,0-52.3,0-52.3,0S51.7,1089,82.3,1089z"/>
		<path class="st44" d="M90.3,845.5L61.7,603.3l8.1-71.7h157.6l1.1,63.1l16.5,246c0,0-41.1,204.8-40.4,208.2h-29.8
			c0.1-0.7,8.4-224.6,8.4-224.6l-34-199.4L136,834.4c0,0,6,188.7,6.1,214.7h-28C114.2,1048.5,90.3,845.5,90.3,845.5z"/>
		<path class="st45" d="M68.7,541.1l1.1-9.4h157.6l0.1,8.3l-33.1,11.3c-27,9.2-55.7,9.9-83,2.1L68.7,541.1z"/>
		<path class="st46" d="M58.8,274.8c17.1-19.3,56.8-50,100.5-42.6l45.7,20.3l13.4,98.6l12,187.8l-162.9,1.9L52.1,358
			C52.1,358,41.7,294.1,58.8,274.8z"/>
		<path class="st10" d="M164.9,188c0,0,0.5,38.5,4.2,58.1c1.4,7.6-2.1,15.4-8.5,18.2c-4.8,2.1-11,3.3-18.9,1.8
			c-20.5-3.9-21.2-26.9-21.2-26.9l6.9-70.3L164.9,188z"/>
		<path class="st9" d="M127.4,168.9l37.6,19.1c0,0,0.2,14.2,1.1,29.8c-9.8,0.5-22.1-5.1-35.2-21.8c-1.9-2.5-3.8-5-5.4-7.4
			L127.4,168.9z"/>
		<path class="st10" d="M162.5,89.2c0,0,12.9,10.9,18.4,29.3c5.6,18.3,10.4,31.6,10.4,31.6l-5.9,3.9c0,0,4.7,25.6,1,34.4
			c-5.6,13.3-29,24-55.6-5.9c-26.6-29.9-28.8-56.2-24.3-69.1C111.1,100.6,152.1,82.6,162.5,89.2z"/>
		<path class="st47" d="M122.5,117.8c0,0,11.8-10.9,28.8-6.2c17,4.7,22.8-2.5,19.5-6.2c0,0,14.9,0.4,20.5-13.3
			c5.6-13.7,4.2-55-22.2-47.2C142.7,52.6,148,71.3,148,71.3s-8.5-9-16.5-4.3c-8,4.7-6.9,11.3-6.9,11.3s-7.3,15.2-17.4,17.2
			c-10.1,2-9,24.6-9,24.6s-5.9,4.7-1.7,21.1c4.2,16.4,28.7,41.8,28.7,49.6c0,0,6-10.2,1.2-26.2c-4.9-16-4.9-25.4,0.3-25.4
			C131.9,139.3,122.5,117.8,122.5,117.8z"/>
		<path class="st10" d="M130,149.9c0,0-1.7-13.5-5.5-13.5c-3.8,0-7.3,1.5-6.4,9.1c0.9,7.6,4.8,16.1,9.8,12.6
			C132.9,154.5,130,149.9,130,149.9z"/>
		<path class="st47" d="M85.4,118.8c0.3-1.1,1.2-2.4,2.3-2.9c3.5-1.7,8.3,1.9,11.4,4.5l0.5-0.7c-2.1-2.4-4.3-4.9-7.4-6.4
			c-4.6-2.2-8.7,0-10.4,4.2L85.4,118.8z"/>
		<path class="st47" d="M85.1,136.3c-0.3-2-0.3-4.2,0.1-6.3c2.3-10.1,13.2-9.2,13.8-9.5v-0.6c-0.3,0.1-15.9-3.3-18.1,13.1
			c-0.2,1.4-0.3,2.6-0.2,4.3L85.1,136.3z"/>
		<path class="st48" d="M165.5,129.9c0,3.3,1.3,6,2.9,6c1.6,0,2.9-2.7,2.9-6c0-3.3-1.3-6-2.9-6C166.8,123.9,165.5,126.6,165.5,129.9
			z"/>
		<path class="st48" d="M159,124c6.5-5.9,13.4-2.1,13.5-2l1.1-4.3c-0.3-0.2-7.7-4.3-15,2.4L159,124z"/>
		<path class="st49" d="M176.7,234l12.1,364.5h75.6L242.1,433l-14.6-100.7c0,0-7.1-67.7-22.5-79.8C189.6,240.4,176.7,234,176.7,234z
			"/>
		<path class="st9" d="M127.5,144.4c0,0-2.2-4.6-4.2-3.9c-2,0.7-2.4,9.8,1.1,13.7C128,158.1,130.9,151.7,127.5,144.4z"/>
		<path class="st49" d="M116,232l8,366.5H43.1c0,0-3-290.5,5.9-320.9C57.9,247.3,116,232,116,232z"/>
		<polygon class="st50" points="206.1,247.6 171.3,227.2 182.5,408.4 201.6,305.7 194.9,301 		"/>
		<polygon class="st50" points="119.8,406.7 116.9,227.2 85.8,241.3 102.7,300.9 98.5,304.2 		"/>
		<polygon class="st51" points="262.1,460 374.3,374.2 255.5,363.2 165.6,460 		"/>
		<path class="st10" d="M199.6,423.6c0,0-12.2,2.8-16.7,7.7c-5.8,6.3-19.4,16.5-25.1,16.5c-5.7,0-30.2,2.4-30.2,2.4l-4.1,27.5
			c0,0,91.1-21.3,95.4-26c4.3-4.7-21.4,3.5-21.4,1.4c0-2.1,30.9-4.4,29.3-9.7c-1.6-5.3-28.5,7.1-30.9,4.5c-2.4-2.6,32.5-7,32.5-12.5
			c0-5.6-34.7,8.1-34.7,8.1s-0.6-2.8,8.8-7.4c9.4-4.5,18.5-8.2,16.4-10.5c-2.1-2.3-26.1,12.2-29.3,8.7L199.6,423.6z"/>
		<path class="st50" d="M71.3,270.6c0,0,13.2,24.7,10.6,60.4c-2.6,35.7-7.2,90.3,0.3,108.1c7.4,17.8,61.7,0,61.7,0v42.2
			c0,0-78.8,32.7-101.6,22c-22.8-10.7-20.6-102.8-20.6-147.9C21.6,310.2,56.7,238.2,71.3,270.6z"/>
		<path class="st52" d="M71.3,270.6c6.5,14.3,10.8,35.6,9.5,57.6c-2.5,33.2-10.2,105.2,4,116.2c13.6,8.6,44.5,0,59.2-5.2
			c-14.4,3.9-55.2,13.5-60.5-0.6c-4.5-11.3-3.8-38.7-3.4-50.9c1.6-52.6,8-71.2-2.9-103.3C75.5,279.5,73.6,274.9,71.3,270.6z"/>
		<path class="st53" d="M180.3,175.2l-1,6.6c-13.2-1.5-19.7-12.9-19.7-12.9C167.3,176.9,180.3,175.2,180.3,175.2z"/>
		<path class="st10" d="M295.1,422.5c0,0,1.6,2,4.1,8c2.4,5.9-4.3,11.9-5.7,13.2c-2.5,2.4-7.1,5.7-9.9,7.4c-2.8,1.7-4.7,2.5-7.4,3.1
			c-4,0.9-13-13.7-11.8-15.1c0.8-0.9,1.8-1.7,2.8-1.4c1,0.3,11,8.3,11,8.3s-9-11.5-8-14.9c1-3.4,3-3,3.7-2.1
			c0.8,0.9,12.2,11.6,12.2,11.6s-7.7-13.7-7-15.9c0.7-2.2,3.8-3.8,7.3,1.7c2,3.1,7.2,8.1,7.2,8.1s-4.3-10.3-3.3-13.7
			C291.4,417.5,295.1,422.5,295.1,422.5z"/>
	</g>
	<path class="st54" d="M1152.4,1055.1c0,0,0.3,1.4,1,3.5c2.1,6.5,8,19.8,21.6,23.1c18,4.4,32.3-0.4,35.5,2.9
		c3.3,3.3,4.5,13.3,4.5,13.3l-108.5,5.1l6.4-44.3L1152.4,1055.1z"/>
	<polygon class="st54" points="1064.2,788.3 1105.8,1069.3 1161.5,1060.4 1152.4,786.4 	"/>
	<path class="st55" d="M1100.3,1045.2c0,0-13.8,11.7-13.8,24l-47.6,35.1H1022c0,0,35.1-43.9,42.2-54.9c7.1-11,7.4-21.8,7.4-21.8
		L1100.3,1045.2z"/>
	<path class="st56" d="M1250.8,782c-15.5-46.5-57.9-25-57.9-25c-26.5,5-66,96.6-71.5,125.1c-4,20.6-43.1,114.3-64.6,164.9
		c14.9-8.1,34.6-3.4,43.2,10.7C1145.5,982.4,1255.9,797.3,1250.8,782z"/>
	<path class="st57" d="M1069,1052.5c0,0,13,3.8,17.2,12.4c4.2,8.6-17.2,25.3-17.2,33c0,7.6,5.6,14.1,0,16.9
		c-5.6,2.8-51.8,3.3-49.3-6c2.5-9.2,20.7-19.7,28.1-31.2C1055.2,1066.1,1061.8,1049.5,1069,1052.5z"/>
	<path class="st54" d="M1199.2,772.1c0,0,69.8-20.1,47.2,27.5c-4.4,9.2-205.5,23.1-205.5,6.2c0-16.9,12.8-33.7,12.8-33.7H1199.2z"/>
	<path class="st58" d="M1045.3,470.6c0,0,23.7-9.6,52.4-12.1c15.7-1.3,31.5,3.8,49.2,3.8c50,0,98.3,13.3,103.6,37.6
		c5.3,24.4-60.6,261.7-45.6,276.7c15,15-132.6,24.5-151.1,5.9C1035.3,764,991.3,491.6,1045.3,470.6z"/>
	<path class="st59" d="M1112.7,413.2l-15,50.5c0,0,39.2,15.5,65.4,0l-8.3-56L1112.7,413.2z"/>
	<path class="st58" d="M1045.3,470.6c0,0-42.1,56.5-51.1,83.5c-9,27-33.6,72.9-31.5,84.8c2.1,11.9,16.7,23.7,41.2,17.8
		c24.5-5.9,22.7-29.6,22.7-29.6L1045.3,470.6z"/>
	<path class="st58" d="M1249.2,495.7c0,0,52.8,145.6,42.3,156c-10.5,10.5-45.2,0-45.2,0l-38.1-74.4L1249.2,495.7z"/>
	<path class="st10" d="M1567.2,289.3c0,0-19.6,25.8-22.6,43.3c-3,18-6.7,46.8-6.7,46.8h8c0,0,6.7,16,6.7,26.7c0,10.7,16.9,4,26.6,4
		c9.8,0,31.5-8.4,40-39.1C1627.6,340.3,1643.2,285.7,1567.2,289.3z"/>
	<polygon class="st60" points="1590.3,435.1 1578.3,443.9 1574.1,460.2 1591.1,452.4 	"/>
	<path class="st10" d="M1610.3,370.6l29.8,68.4c0,0-57.1,18.9-54.2,16c2.9-2.9-3.7-53.3-3.7-53.3L1610.3,370.6z"/>
	<path class="st61" d="M1540.6,270.6c-0.9,1.5-16.3,32.9,10.3,44.9c26.6,12,33.2-5.3,40.3,5.4c7.1,10.7-6.2,27.9-0.4,37.7l8.9,1.7
		c0,0,1.8-5.3,5.4-5.3s4.6,26.9,10.3,26.9c5.7,0,16.8-22.9,22.2-33.6s16.4-46.6-4-56c-20.4-9.3-29.3-2.2-29.3-11.1
		c0-8.9-8.9,0.4-8.9,0.4s-4.9-6.7-1.8-14.2c3.1-7.6-21.8-10.2-27.5,4.9C1560.1,287.5,1550.3,254.2,1540.6,270.6z"/>
	<g>
		<g>
			<rect x="1627" y="882.1" class="st3" width="25.6" height="189.9"/>
		</g>
		<g>
			<polygon class="st4" points="1656.7,1073.6 1623.4,1073.6 1623.4,1044.9 1623.4,1021.8 1656.7,1021.8 			"/>
			<polygon class="st4" points="1500.6,1107.9 1623.4,1044.9 1623.4,1073.6 1535.3,1107.9 1535.3,1114.2 1500.6,1114.2 			"/>
			<polygon class="st4" points="1779.5,1107.9 1656.7,1044.9 1656.7,1073.6 1744.8,1107.9 1744.8,1114.2 1779.5,1114.2 			"/>
			<polygon class="st4" points="1628.8,1044.9 1628.8,1114.2 1620.6,1114.2 1620.6,1119.2 1656.7,1119.2 1656.7,1114.2 
				1649.1,1114.2 1651.5,1044.9 			"/>
		</g>
	</g>
	<rect x="1623.4" y="841.9" class="st2" width="32.9" height="66.4"/>
	<path class="st39" d="M1287.3,892.9c0,0-23.9,24-32,32c-8,8-52.7,12.1-43.8,21c8.9,8.9,31.8,20.4,42.3,20.4c10.5,0,50.5-9,50.5-9
		s4.6-40.1,10-45.5L1287.3,892.9z"/>
	<path class="st40" d="M1428.5,686.7c-34,0-153.1,195.2-153.1,195.2l11.9,11l32,23.8c5.4-5.4,130-159.7,130-159.7
		s48.4,19.7,85.4,19.7c37,0,81.4-76.5,81.4-76.5C1611.8,695.9,1462.6,686.7,1428.5,686.7z"/>
	<path class="st41" d="M1675.1,685c0.1-0.7,0.1-1.4,0.2-2.1c2.5-29,10.4-259.2-30.2-259.2c0,0-46.8,8.4-76.6,46.3
		c-5,6.4-5.9,12.1-8.1,20.8c-14.8,58-24.6,165.7-23.3,206.5C1582.9,715.4,1634.1,714.3,1675.1,685z"/>
	<path class="st62" d="M1629.5,404c-4,0-44.9,39.4-44.9,39.4l-3.5,22.7l64-29.9L1629.5,404z"/>
	<polygon class="st63" points="1584.2,446.1 1574.2,450.2 1563.7,471.9 1569.7,470 1581.8,461 	"/>
	<path class="st1" d="M1569.7,470c0,0-24.2,122.9-29.9,230.9l-15.7,14c0,0,2-17,2-41.5c0-24.5,25.4-183.9,37.6-201.5L1569.7,470z"/>
	<path class="st64" d="M1645.1,423.7c0,0-12.2,2.2-28.2,9.4c-4.5,18.1-29.5,60-40.7,104.6c-8.3,33.4-27.8,76.9-31,104.6
		c-2.8,23.9-7.3,44.4-8.8,58.4c-3.8,33.8-19.2,91.3-19.2,91.3l145.6-19.9c0,0,10-60.2,12.5-89.2
		C1677.8,653.9,1685.6,423.7,1645.1,423.7z"/>
	<path class="st26" d="M1626.3,741.8l-28.3-3.2c-10.9-1.2-18.8-11.1-17.6-22.1l6.2-54.8l68,7.7l-6.2,54.8
		C1647.2,735.2,1637.3,743.1,1626.3,741.8z"/>
	<path class="st65" d="M1624.5,417.6l-38.8,33l-39,188.7c0,0,44.7-78.3,43.6-86.3c-1.1-8.1-8.1-15.2-8.1-15.2
		S1624.5,431.6,1624.5,417.6z"/>
	<polygon class="st65" points="1637.7,408.4 1624.5,417.6 1619.7,437 1650.6,425.3 	"/>
	<path class="st2" d="M1652.7,844H1622c-8.6,0-15.6-7-15.6-15.6v-29.9h61.9v29.9C1668.3,837.1,1661.3,844,1652.7,844z"/>
	<g>
		<path class="st6" d="M1689.3,656.4c0,0-142.8-1-147.3,9c-4.5,10,2.2,126.7,2.2,126.7l17-3.1c0,0-7-99,3.5-109.5
			c10.5-10.5,126.1,5.4,127.6,3.9C1693.8,681.9,1689.3,656.4,1689.3,656.4z"/>
		<path class="st65" d="M1540.1,662.3c-7.6,8,1.5,94.7,2.8,105.6c1.1-49-0.4-90,2-100.8c7.9-4.9,67.5-6.9,115.8-10.7
			C1644.3,655.4,1551.4,652,1540.1,662.3z M1544.9,666.9C1544.9,666.8,1544.9,666.8,1544.9,666.9
			C1545,666.8,1545,666.8,1544.9,666.9z"/>
		<path class="st66" d="M1755.3,799.5h-254.2l0,0c0-15.1,12.2-27.4,27.4-27.4h226.8V799.5z"/>
		<path class="st66" d="M1731.3,479.3c0,0-60,28.8-60,124.5c0,95.7,35,168.4,35,168.4h49c0,0-63-134.8-34-192.3
			C1750.3,522.3,1799.3,490.3,1731.3,479.3z"/>
		<path class="st67" d="M1721.3,579.8c27.7-54.9,73.7-86.6,18.5-98.9c40.8,13.8-1.4,44.9-27.4,96.5c-29,57.5,34,192.3,34,192.3V797
			h-245.2c-0.1,0.8-0.1,1.6-0.1,2.4h254.2v-27.4C1755.3,772.1,1692.3,637.3,1721.3,579.8z"/>
	</g>
	<path class="st26" d="M1631.4,442.1c-18.1,4.3-39.8,17.6-51.7,53.6c-11.9,36-24,86.2-40,93.5c-16,7.3-120.1-0.9-120.1-0.9
		l-2.6,46.8c0,0,113.6,33.4,144.1,30c30.5-3.3,84-111.5,100.2-150.6C1692.6,439.1,1650.5,437.6,1631.4,442.1z"/>
	<path class="st68" d="M1631.4,442.1c-51.2,15.6-49.1,69.1-71.6,124c-3.6,8.4-10.5,22.9-19.1,26.2c-1.9,0-12.9,9.8-121.2-4
		c36.3,0.8,110.5,3.4,120.1-2.8c14.5-10,27.1-63,38.4-93.1c4.5-12,10.9-23.5,20-32.6C1607.3,450.7,1619,444.3,1631.4,442.1z"/>
	<path class="st64" d="M1469.9,810.8c-13.7,66.1-56.6,220.8-56.6,220.8l-52.2-15.1c0,0,32.6-247.8,59-274.2
		C1446.5,715.9,1483.6,744.7,1469.9,810.8z"/>
	<path class="st69" d="M1395.1,629.9c0,0,14.4-2.2,21.9,5.3c7.4,7.5,10.4,16.1,10.4,16.1l-53.3-1.6
		C1374,649.7,1382.3,629.3,1395.1,629.9z"/>
	<path class="st41" d="M1374,649.7c0,0,8.3-20.4,21-19.8c0,0,14.4-2.2,21.9,5.3c1.3,1.3,2.5,2.7,3.5,4c-1.3-2.2-2.9-4.6-4.8-6.8
		c-7.4-9-16.9-6.8-21.9-6.3c-12.7,1.1-21,23.9-21,23.9L1374,649.7z"/>
	<path class="st10" d="M1394.4,629.9c0,0-7.2-0.7-9.9,1.9c-2.6,2.6-4.3,4.4-5.1,5.3c-0.8,0.8-0.1,11.3,11.9,13.9
		c12,2.6,9.9-3.1,13.3-1.6c3.5,1.4,7.4,3.7,9.1,2c1.7-1.7,4,2.4,6.5,0c2.5-2.4-4.4-17.8-8.3-21.7c-3.9-3.8-6.8-2.4-10-2.4
		C1398.8,627.1,1394.4,629.9,1394.4,629.9z"/>
	<rect x="1419.1" y="675.2" class="st1" width="14" height="413.6"/>
	<rect x="313.7" y="672.7" class="st1" width="14" height="413.6"/>
	<rect x="444.4" y="662.3" class="st1" width="14" height="413.6"/>
	<linearGradient id="SVGID_3_" gradientUnits="userSpaceOnUse" x1="871.5777" y1="791.5176" x2="878.0093" y2="658.5958">
		<stop  offset="0" style="stop-color:#6A0352"/>
		<stop  offset="1" style="stop-color:#B8004C"/>
	</linearGradient>
	<rect x="273.7" y="646.8" class="st70" width="1208.5" height="28.7"/>
	<path class="st7" d="M1182.3,814.5h-158.6l-43.6-237.4c-7.8-42.7,29.6-81.3,78.7-81.3h88.4c49.1,0,52.8,57.3,50.3,103.2l-6.6,93.9
		L1182.3,814.5z"/>
	<path class="st71" d="M996.6,597.4c-7.8-42.7,29.6-81.3,78.7-81.3h88.4c10.3,0,18.6,2.5,25.3,6.9c-7.4-16.3-20.2-27.3-41.7-27.3
		h-88.4c-49.1,0-86.5,38.7-78.7,81.3l43.6,237.4h12.7L996.6,597.4z"/>
	<g>
		<g>
			<g>
				<rect x="1112.8" y="853.5" class="st72" width="25.6" height="248.7"/>
			</g>
			<g>
				<polygon class="st73" points="1142.5,1104.1 1109.2,1104.1 1109.2,1071.4 1109.2,1045 1142.5,1045 				"/>
				<polygon class="st73" points="986.4,1143.2 1109.2,1071.4 1109.2,1104.1 1021.1,1143.2 1021.1,1150.4 986.4,1150.4 				"/>
				<polygon class="st73" points="1265.4,1143.2 1142.5,1071.4 1142.5,1104.1 1230.6,1143.2 1230.6,1150.4 1265.4,1150.4 				"/>
				<polygon class="st73" points="1114.7,1071.4 1114.7,1150.4 1106.4,1150.4 1106.4,1156 1142.5,1156 1142.5,1150.4 1134.9,1150.4 
					1137.3,1071.4 				"/>
			</g>
		</g>
		<rect x="1109.1" y="831.5" class="st2" width="33.1" height="25.2"/>
	</g>
	<path class="st5" d="M1269,831.5H982.8l0,0c0-17.7,14.4-32.1,32.1-32.1h222.1C1254.6,799.5,1269,813.8,1269,831.5L1269,831.5z"/>
	<path class="st38" d="M1095.8,447c0,0,46,18.3,67.4,1.4l6.4,14.8c0,0-7.3,12.8-36.9,15.1c-29.6,2.3-44.1-18.7-44.1-18.7L1095.8,447
		z"/>
	<path class="st59" d="M1102,375.3c0,0-10.6-8-10.6-2.1c0,5.9-1.2,26.8,8.7,21C1110,388.4,1102,375.3,1102,375.3z"/>
	<path class="st74" d="M1114.1,316.8c0,0-20-6.5-25.5,13.8c-5.5,20.3,9.1,41.2,9.1,51.3c0,10.1,5.4,21.8,15,31.3
		c9.5,9.5,31.8,19.5,31.8,19.5s24.8-15.3,33.2-32.2c8.4-16.9,3.4-28.2,6.8-53.5c3.4-25.4-14-33.8-21.3-33.8
		C1155.8,313.2,1130.4,285.6,1114.1,316.8z"/>
	<polygon class="st6" points="1275.4,714.9 1191.1,689.6 1189.6,711.5 1246.3,724.2 1232.5,800.5 1248.6,801.7 	"/>
	<path class="st32" d="M925.3,419.2c0-6.2-4.8-8.1-10.9-9.4c-20.5-4.6-46.9-5.4-45,1.7c2.5,9.3,22.2,22.1,35.6,22.1
		c13.4,0,19.7-11,19.7-11L925.3,419.2z"/>
	<path class="st10" d="M910.2,390.3l4.3,49.4c0,0-18,8.9-40.3-1.5l8.9-81L910.2,390.3z"/>
	<path class="st9" d="M910.2,390.3l1.9,21.2c-2-0.1-4.1-0.6-6.2-1.8c-17.2-9.3-19.7-34.7-20-49.3L910.2,390.3z"/>
	<path class="st10" d="M941.2,305.2c0,0,7.9,6.2,9.7,17.4c1.8,11.2-5.7,23.7-5.7,33.2c0,9.4-17.5,54.3-39.3,43.7
		c-21.8-10.6-20-44.8-20-52.4c0-7.7,10.6-34.2,23.6-40.3C922.3,300.5,941.2,305.2,941.2,305.2z"/>
	<g>
		<path class="st75" d="M930.7,349.3c0,0-0.8-5.3-4.1-9.1c-3.2-3.9-12.2-4.4-12.2-4.4s8.4,2.1,10.5,4.7c2.1,2.7,2.9,6.5,2.9,6.5
			L930.7,349.3z"/>
		<path class="st75" d="M935.6,353c0,0,3.4-3.2,7.1-3.8c3.7-0.6,6.9,4.3,6.9,4.3s-3.9-3.4-6.3-2.9c-2.5,0.5-5.1,2.7-5.1,2.7
			L935.6,353z"/>
		<path class="st20" d="M909.3,378.9c6.6,2.8,9.6,5.6,18.3,5.2C920.9,386.4,913.1,383.7,909.3,378.9z"/>
		<path class="st75" d="M922,352.3c-0.6,2.1-2.3,3.5-3.8,3.1c-1.5-0.4-2.2-2.5-1.6-4.7c0.6-2.1,2.3-3.5,3.9-3.1
			C921.9,348.1,922.6,350.2,922,352.3z"/>
		<path class="st76" d="M909.2,349.9c13.2-7.2,14.8,1.6,18,3.1c-2.8-0.7-5-4.6-8.2-4.7C916.4,348.2,912,349.3,909.2,349.9z"/>
		<path class="st75" d="M942.3,362c-0.7,1.6-2.2,2.6-3.3,2c-1.1-0.5-1.5-2.3-0.8-3.9c0.7-1.6,2.2-2.6,3.3-2
			C942.6,358.7,943,360.4,942.3,362z"/>
		<path class="st76" d="M933.4,361.3c9.6-9.1,12.4-0.7,15.2,0.4c-2.4-0.2-4.8-3.7-7.5-3.4C939,358.5,935.7,360.3,933.4,361.3z"/>
		<path class="st9" d="M914.3,360c-0.9,2.9-4.7,4.4-8.6,3.2c-3.9-1.1-6.3-4.4-5.5-7.4c0.9-2.9,4.7-4.4,8.6-3.2
			C912.7,353.8,915.2,357.1,914.3,360z"/>
		<path class="st75" d="M934.9,357.1c-2.3,5.2-4.5,11.7-6.1,17.2c-2,0-4.4-0.6-6.2-1.9c2.5,2.9,6.7,2.8,6.9,2.8
			C931,370.9,933.2,365,934.9,357.1z"/>
	</g>
	<path class="st77" d="M941.2,305.2c0,0,7.9,6.2,9.7,17.4c1.8,11.2,3.6,31.4-5.7,33.2c-5.4,1-24-29.9-18.7-52.2
		C934.5,303.5,941.2,305.2,941.2,305.2z"/>
	<path class="st34" d="M869.5,411.5l-5.4,24.2c6.2,9.8,38.2,60,46.7,73.5c5.2,8.4,11.3-48.3,14.6-90
		C902,426.6,888.9,430.3,869.5,411.5z"/>
	<path class="st10" d="M1597.3,345.3c0,0-0.4,17.5,3.8,17.5c4.2,0,13.5-9.9,11.9-20.5C1611.5,331.8,1599.3,333,1597.3,345.3z"/>
	<path class="st9" d="M1600.3,343.4c0,0-2.1,7,1.1,10.1c3.2,3.2,9.3-4.4,5.9-10.1C1603.9,337.7,1601,339.4,1600.3,343.4z"/>
	<path class="st61" d="M1554.2,338.5l-0.7,4.2c0,0,7.4-0.9,11.5,3.2c4.1,4.1,4.6,4.5,4.6,4.5S1567.5,340.9,1554.2,338.5z"/>
	<path class="st61" d="M1562.2,351.6c0,2.1-1.5,3.9-3.3,3.9c-1.8,0-3.3-1.7-3.3-3.9c0-2.1,1.5-3.9,3.3-3.9
		C1560.8,347.7,1562.2,349.4,1562.2,351.6z"/>
	<path class="st61" d="M1551.8,398.8c0,0-1.4,6.9-1.4,10.8c0,3.9,9.9,8.3,18.7,5.8c8.9-2.5,21.2-8.4,24.2-11.4
		c3-3,5.4-43.9,5.4-43.9l-8-1.5c0,0-4,26.6-7.3,30C1580.2,391.8,1551.8,398.8,1551.8,398.8z"/>
	<path class="st61" d="M1555.9,390.7c2.5,0,5.1-0.5,7.1-1.8c1-0.6,1.8-1.5,2.4-2.4c0.6-0.9,0.7-2.1,0.9-3.2l0-0.1
		c0.1-0.7,0.7-1.2,1.4-1.1c0.7,0.1,1.2,0.7,1.1,1.4c0,0.1,0,0.1,0,0.2c-0.4,1.4-0.9,2.8-1.8,3.9c-0.9,1.1-2.1,2-3.3,2.5
		C1561.1,391,1558.4,391.1,1555.9,390.7z"/>
	<path class="st61" d="M1528.8,302.6c-0.2,1.5,1.3,4,2.2,5.2c4.7,6.1,13.7,6.9,19.8,7.7c-0.8,0-8.9,1.6-15.7-0.3
		c-7.3-1.9-11.7-6.8-13-11.7L1528.8,302.6z"/>
	<path class="st78" d="M490.5,1059.3c-3.7,0-6.4-13.8-7.5-21.3c-1.5,2-3,3.6-5,5.6c-7.3,7.3-3.9,25.2,0,29.1c4,4,34.5-4.1,38-16.1
		c0.5-1.7,1.1-3.8,1.7-6C509.8,1053.6,494.2,1059.3,490.5,1059.3z"/>
	<path class="st78" d="M555.1,968.7c0,0-11.1,18.4-11.1,27.1c0,8.7,5.5,57.4,5.5,57.4l7.4,0.3c0,0-5.5-33.4-0.7-34.6
		c4.7-1.2,12.3,44.4,12.3,44.4l38.3,2.6c0,0,0.7-12.7-11.1-21.7c-11.7-9-12.3-6-17.9-25.3C572.1,999.6,555.1,968.7,555.1,968.7z"/>
	<path class="st24" d="M546.8,751.4c0,0-0.9,12.9,2.9,16.7c3.8,3.8,22.3,1.4,22.3-8.4C572.1,750,552.5,745.7,546.8,751.4z"/>
	<path class="st24" d="M931.3,723c-15,5.8,3.4,22.5,15.2,20.6C958.3,741.6,949.9,715.8,931.3,723z"/>
	<path class="st24" d="M887.9,716.5c0,0-6.5-6.3-20-4.5c-13.5,1.8,9.6,24.8,20.3,22.3C898.9,731.7,887.9,716.5,887.9,716.5z"/>
	<path class="st24" d="M783.8,635c5.5-0.6,11.8-0.4,11.8,3.1c0,6.3-19.9,11-19.9,5.9C775.9,643.7,776,635.8,783.8,635z"/>
	<path class="st10" d="M527.7,575.6c0,0-2-19-4.3-21.5c-2.3-2.6-22.7-27.8-25.2-25.1c-2.5,2.8,15.1,22.8,15.1,22.8
		s-20.8-19.6-22-15.1c-1.1,4.5,19.2,23.2,19.2,23.2s-21.3-16.2-21.3-12.8c0,0,20,20.9,20.7,21.7c0.7,0.8,2.5,11.3,2.5,11.3
		L527.7,575.6z"/>
	<path class="st10" d="M512,531.6c0,0,9.9,4.7,9.9,8.4c0,3.7,3,21.2,3,21.2l-8.5-3.6l1.6-15.7C518,541.8,508.5,531.6,512,531.6z"/>
	<path class="st79" d="M583.8,282.5c-12.2,1.4-31.6-1.6-40.6,18.4c-5.3,11.3-16.2,33.2-16.2,72c0,57.8-55.8,83.4-55.8,83.4
		l24.5,11.8l14.6-11.8l-10,21.2l40.1,4l1.7-27.7l8.3,31.5l18.7-3.8c0,0-7.4-94.7-8.2-130.4c0.1,0.2,0.2,0.2,0.2,0.2
		s-0.2-4.6-0.2-10.5c0,0,0,0,0,0c0.1-1.7,0.1-3.5,0-5.3c0.1-5.7,0.4-11.7,1.1-15.7c1.8-9.8,5.4-14.8,14.2-19
		c8.8-4.2,40.3,7.8,40.3,7.8C615.5,290.4,596.1,281.1,583.8,282.5z"/>
	<path class="st48" d="M600.2,285.8c15.4,3.4,20,27.1,32.6,39.6c12.6,12.6,9.4,30.8,3.4,42.7c-6,12-15.6,4.2-15.6,4.2s5,2.8,8.2-7.2
		c3.2-10-2.4-17.8-19.4-23.4c-17-5.6-33.1-40.9-33.1-40.9C575.9,294,584.8,282.4,600.2,285.8z"/>
	<path class="st80" d="M620.6,372.4c5.8,3.4,14.1-10.9,8.1-20.2c-4.4-7.2-13.9-10.2-21.6-13.4c-12.1-7-23.7-26.2-30.8-37.9
		c5.1,14,16,33.4,29,41.1l3.1,1.4c3.2,1.3,13.1,4,17.8,10.4c3.8,5,2,12.8-0.5,16.5C624.7,371.8,622.7,373.1,620.6,372.4z"/>
	<path class="st10" d="M564.3,353.2c0,0-4.3-18.5-11.4-14.1c-7.1,4.5,0.5,25,7.2,25C566.7,364.1,564.3,353.2,564.3,353.2z"/>
	<path class="st9" d="M557.4,343c0,0,10.5,16.9,3.3,15C553.5,356.2,550.7,339.9,557.4,343z"/>
	<path class="st81" d="M942.6,306.3c17.5,4.4,24.3,21.5,15.6,34.6c-1.5,2.2-3.5,4.3-6.1,4.5v-3.8c1,0.2,2.8-1.9,3.4-2.7
		C964.3,327.9,958.9,311.7,942.6,306.3z"/>
	<path class="st75" d="M929.8,294.4c0,0,12.3,0,21.3,9.1c9,9,6.3,44.7,0,50c-6.3,5.3,16.1,10.3,2.7,10.3
		C940.3,363.7,917.8,295.6,929.8,294.4z"/>
	<path class="st75" d="M945.4,310.8c0.2-0.6-6.9-19.7-24.3-22.5c-20.8-3.4-45.4,12.1-52.9,33.1c-7.5,21-14.3,44.9-34.8,50.9
		c-20.5,6-24.3,36.2-17.9,55.2c6.4,19,26.1,14.1,26.1,14.1s-12-10.5-8.8-13.7c0,0,9.2,17.8,19.6,14.3c10.4-3.5,14.6-9.3,14.6-9.3
		s-17.9-2.7-6.1-12.7c8.2-6.9,12.4-13.3,22.1-25c9.3-11.2,4.4-41.2,12.5-62.7c1,0.9,2.6,1.6,5.1,1.9c11,1.1,6-6.9,16.5-18.9
		C934.9,305.4,944.2,310.8,945.4,310.8z"/>
	<path class="st81" d="M873.2,334.6c2.8,8.1,4.8,18.7,4.5,27c-1.3,26.5-29.5,12.7-37.3,13.2c-4.8,0.2-8.9,4.6-7.1,10.6
		c1.4,4.9,4.6,6.4,6.3,8.4c2.5,3.1,1.2,6.6-1.7,8c-5.8,2.9-12.9-3.7-15.3,4.2c-1.8,5.5-0.1,12,4.3,16.2c-4.9-3.6-7.4-10.4-6-16.7
		c1.4-6.5,5.9-6.2,12.1-5.7c3.8,0.3,5.2-1.6,4.9-2.8c-0.2-2.3-5.6-3.2-7.9-10.6c-1.8-5.3,0.2-11.1,5.2-13.9
		c12.9-7.4,41.6,19.3,40.4-20.1C875.3,346.5,874.4,340.5,873.2,334.6z"/>
	<path class="st10" d="M897.3,340.1c0,0,0.4-10.2-4.9-9.3c-5.3,0.9-9,7.8-6.5,14.6C888.5,352.2,898,349.2,897.3,340.1z"/>
	<path class="st9" d="M895.2,341.7c0,0,0.7-6.2-1.6-6.8c-2.3-0.6-4.8,4.3-4.3,7.5C889.8,345.7,894.8,345.4,895.2,341.7z"/>
</g>
</svg>
